STARTFONT 2.3
FONT -FontForge-Open Sans-Book-I-Normal-Sans--20-200-72-72-P-108-ISO10646-1
SIZE 20 72 72  4
FONTBOUNDINGBOX 35 26 -10 -5
COMMENT "Generated by fontforge, http://fontforge.sourceforge.net"
COMMENT "Digitized data copyright (c) 2010-2011, Google Corporation."
STARTPROPERTIES 42
FOUNDRY "FontForge"
FAMILY_NAME "Open Sans"
WEIGHT_NAME "Book"
SLANT "I"
SETWIDTH_NAME "Normal"
ADD_STYLE_NAME "Sans"
PIXEL_SIZE 20
POINT_SIZE 200
RESOLUTION_X 72
RESOLUTION_Y 72
SPACING "P"
AVERAGE_WIDTH 108
CHARSET_REGISTRY "ISO10646"
CHARSET_ENCODING "1"
FONTNAME_REGISTRY ""
CHARSET_COLLECTIONS "ISO8859-2 ISO8859-5 ISO8859-7 ISO8859-9 ISO8859-4 ISO10646-1"
BITS_PER_PIXEL 4
FONT_NAME "OpenSans-Italic"
FACE_NAME "Open Sans Italic"
COPYRIGHT "Digitized data copyright (c) 2010-2011, Google Corporation."
FONT_VERSION "1.10"
FONT_ASCENT 16
FONT_DESCENT 4
UNDERLINE_POSITION -2
UNDERLINE_THICKNESS 1
X_HEIGHT 10
CAP_HEIGHT 13
RAW_ASCENT 799
RAW_DESCENT 200
ITALIC_ANGLE 4992
NORM_SPACE 5
RELATIVE_WEIGHT 40
RELATIVE_SETWIDTH 50
SUPERSCRIPT_X 0
SUPERSCRIPT_Y 9
SUPERSCRIPT_SIZE 12
SUBSCRIPT_X 0
SUBSCRIPT_Y 2
SUBSCRIPT_SIZE 12
FIGURE_WIDTH 11
AVG_LOWERCASE_WIDTH 107
AVG_UPPERCASE_WIDTH 121
ENDPROPERTIES
CHARS 936
STARTCHAR space
ENCODING 32
SWIDTH 259 0
DWIDTH 5 0
BBX 1 1 0 0
BITMAP
00
ENDCHAR
STARTCHAR exclam
ENCODING 33
SWIDTH 258 0
DWIDTH 5 0
BBX 6 14 0 0
BITMAP
000AF4
000DF1
001FB0
003F70
006F30
008E00
00BA00
00D600
01F200
03D000
000000
185000
7FC000
6E6000
ENDCHAR
STARTCHAR quotedbl
ENCODING 34
SWIDTH 386 0
DWIDTH 8 0
BBX 6 5 2 9
BITMAP
2F90CE
5F40EA
7E01F6
9A03F1
B605C0
ENDCHAR
STARTCHAR numbersign
ENCODING 35
SWIDTH 645 0
DWIDTH 13 0
BBX 13 14 0 0
BITMAP
000001F400B900
000006E001F400
00000AA005E000
00000E500AA000
02FFFFFFFFFFF0
0144AC447F4430
0000D8008C0000
0001F400C80000
0005F101F40000
5FFFFFFFFFFD00
144E844BB44300
003F200E600000
008C004F100000
00D7009B000000
ENDCHAR
STARTCHAR dollar
ENCODING 36
SWIDTH 550 0
DWIDTH 11 0
BBX 11 16 0 -1
BITMAP
0000005F0000
0000008C0000
00018CFFD920
001DE8F99E20
006F32F30000
008E05E00000
005F79B00000
0009FFB10000
00004FFE5000
00004F2BE100
00007C06F300
1000B90BE100
4E97EBCF6000
29CEFDA30000
0005E0000000
0009B0000000
ENDCHAR
STARTCHAR percent
ENCODING 37
SWIDTH 792 0
DWIDTH 16 0
BBX 14 14 1 0
BITMAP
004CEB100008D1
03E95E80004F30
0AB00AA002E700
0F600AA00CA000
3F200D808D1000
5F102F45F5BEC3
5F107D2E7DB4CB
2F86E6CA6E106E
07ED69D1B9007E
00005E30F6009B
0002E601F400D8
001C9001F403F2
009C1000DB5D90
06E200004DE900
ENDCHAR
STARTCHAR ampersand
ENCODING 38
SWIDTH 669 0
DWIDTH 13 0
BBX 13 14 0 0
BITMAP
000019DEC40000
0001DE76DE2000
0006F4004F5000
0007F1005F4000
0005F404EB0000
0001ECAF910000
0002CFC3000000
008FABE2000000
09F401DC003F70
2F70004F91CC00
5F400008FDD200
3F800004FF4000
0CF967BFBEC100
019DFDA405F900
ENDCHAR
STARTCHAR quotesingle
ENCODING 39
SWIDTH 216 0
DWIDTH 4 0
BBX 3 5 2 9
BITMAP
2F90
5F40
7E00
9A00
B600
ENDCHAR
STARTCHAR parenleft
ENCODING 40
SWIDTH 285 0
DWIDTH 6 0
BBX 8 17 0 -3
BITMAP
00000BC1
00009D10
0006F400
002E9000
009F2000
01F90000
07F30000
0BE00000
0EA00000
1F800000
3F700000
3F600000
2F700000
0F800000
0CB00000
07E00000
01E50000
ENDCHAR
STARTCHAR parenright
ENCODING 41
SWIDTH 285 0
DWIDTH 6 0
BBX 7 17 -2 -3
BITMAP
0000AA00
00004F20
00001F70
00000DA0
00000CC0
00000BD0
00000BD0
00000DC0
00000FA0
00004F60
00008F20
0000EC00
0006F400
001DB000
009E2000
05F50000
3E600000
ENDCHAR
STARTCHAR asterisk
ENCODING 42
SWIDTH 551 0
DWIDTH 11 0
BBX 10 9 2 6
BITMAP
00006D2000
00008E0000
7810990000
8EE8C51221
003AFEFFF3
005EAA0241
07F54F2000
1D800E9000
020009A000
ENDCHAR
STARTCHAR plus
ENCODING 43
SWIDTH 550 0
DWIDTH 11 0
BBX 10 10 1 2
BITMAP
0000C50000
0000E60000
0000E60000
0000E60000
CFFFFFFFF3
4666FA6661
0000E60000
0000E60000
0000E60000
0000210000
ENDCHAR
STARTCHAR comma
ENCODING 44
SWIDTH 240 0
DWIDTH 5 0
BBX 4 5 -1 -3
BITMAP
03FB
08F4
0EB0
5F30
C900
ENDCHAR
STARTCHAR hyphen
ENCODING 45
SWIDTH 312 0
DWIDTH 6 0
BBX 6 2 0 4
BITMAP
4FFFF7
388882
ENDCHAR
STARTCHAR period
ENCODING 46
SWIDTH 252 0
DWIDTH 5 0
BBX 3 3 0 0
BITMAP
1850
7FC0
6E60
ENDCHAR
STARTCHAR slash
ENCODING 47
SWIDTH 350 0
DWIDTH 7 0
BBX 10 14 -1 0
BITMAP
00000004F7
0000000CD0
0000006F40
000001EB00
000008F300
00002F9000
0000AE1000
0004F70000
000CD00000
006F500000
01DB000000
08F3000000
2E90000000
AE20000000
ENDCHAR
STARTCHAR zero
ENCODING 48
SWIDTH 550 0
DWIDTH 11 0
BBX 10 14 1 0
BITMAP
0003AEEB30
004EE78EE1
01ED1006F6
08F40002F9
0EC00001FA
4F700001F9
8F300003F8
AF000005F5
BE000009F2
CD00000ED0
BE00006F70
8F4002ED10
2EE77EE300
04CFEA2000
ENDCHAR
STARTCHAR one
ENCODING 49
SWIDTH 550 0
DWIDTH 11 0
BBX 6 14 3 0
BITMAP
0007EA
04DFF7
9FC8F4
8709F1
000DC0
001F90
004F60
008F20
00BE00
00EB00
03F800
06F400
09F100
0CD000
ENDCHAR
STARTCHAR two
ENCODING 50
SWIDTH 550 0
DWIDTH 11 0
BBX 11 14 0 0
BITMAP
00018CFEA200
001EE979FE20
000510007F60
000000004F70
000000006F50
00000001DD00
0000000AF300
000001BF5000
00001CE40000
0002DD200000
004EB1000000
06F900000000
6FD888888100
CFFFFFFFF000
ENDCHAR
STARTCHAR three
ENCODING 51
SWIDTH 550 0
DWIDTH 11 0
BBX 11 14 0 0
BITMAP
00029DFEB300
002FE968EE20
000510006F60
000000004F60
000000009E20
0000013AE500
0006FFE82000
000367DE5000
0000000CE100
00000007F500
00000008F400
2000001EE100
8E9768EF4000
39CEFD920000
ENDCHAR
STARTCHAR four
ENCODING 52
SWIDTH 550 0
DWIDTH 11 0
BBX 11 14 0 0
BITMAP
00000001CF60
0000000BEF20
000000AE9E00
000009F4CB00
00008F51F700
0006F605F400
005F7008F100
04F8000CC000
3E90000F9000
AFFFFFFFFFA0
688888BF8840
000000AE0000
000000DB0000
000001F80000
ENDCHAR
STARTCHAR five
ENCODING 53
SWIDTH 550 0
DWIDTH 11 0
BBX 11 14 0 0
BITMAP
0000EFFFFF90
0004F9888830
0009E0000000
000E90000000
004F40000000
008FDEEA2000
0058659FE200
00000007F800
00000001FA00
00000001FA00
00000004F700
1100002DE100
3E9779EE4000
18CEED920000
ENDCHAR
STARTCHAR six
ENCODING 54
SWIDTH 550 0
DWIDTH 11 0
BBX 10 14 1 0
BITMAP
000028CEFA
0005EE9775
004FB10000
01EC000000
08F3000000
0DB4BED700
3FBD76BF60
7FB1000DC0
9F20000AE0
AE00000BD0
9F00001EA0
7F50009F30
1EE86BF700
03BEEB5000
ENDCHAR
STARTCHAR seven
ENCODING 55
SWIDTH 550 0
DWIDTH 11 0
BBX 11 14 1 0
BITMAP
09FFFFFFFF10
05777777FC00
00000006F400
0000001EA000
0000009E2000
000003F70000
00000CD00000
00006F400000
0001EB000000
0009F2000000
003F80000000
00CD10000000
06F500000000
1EB000000000
ENDCHAR
STARTCHAR eight
ENCODING 56
SWIDTH 550 0
DWIDTH 11 0
BBX 10 14 1 0
BITMAP
0003AEEC60
004FD87CF6
00CE1001EB
00EB0000DB
00CD0004F6
005F928F90
001AFFD400
05EE8BF800
5F91009F50
DD00001FA0
FA00000FA0
ED10006F70
7FC76AFC10
06CEEC7100
ENDCHAR
STARTCHAR nine
ENCODING 57
SWIDTH 550 0
DWIDTH 11 0
BBX 11 14 0 0
BITMAP
00007CEE9100
001CFA79FA00
009F40008F20
00EA00004F50
02F700005F60
02F80000AF50
00DE4129FF30
004EFFFCCE00
00014530EA00
00000005F500
0000000DD000
000001AF4000
1B879EF60000
0CEFD9300000
ENDCHAR
STARTCHAR colon
ENCODING 58
SWIDTH 252 0
DWIDTH 5 0
BBX 5 11 0 0
BITMAP
008E40
00FF50
007700
000000
000000
000000
000000
000000
185000
7FC000
6E6000
ENDCHAR
STARTCHAR semicolon
ENCODING 59
SWIDTH 252 0
DWIDTH 5 0
BBX 6 14 -1 -3
BITMAP
0008E4
000FF5
000770
000000
000000
000000
000000
000000
000000
03FB00
08F400
0EB000
5F3000
C90000
ENDCHAR
STARTCHAR less
ENCODING 60
SWIDTH 550 0
DWIDTH 11 0
BBX 10 10 1 2
BITMAP
00000002A2
0000019FC1
00018EC500
006ED50000
5DD5000000
BF81000000
06DF920000
0005CFA400
000004BFC1
00000003A2
ENDCHAR
STARTCHAR equal
ENCODING 61
SWIDTH 550 0
DWIDTH 11 0
BBX 10 5 1 5
BITMAP
CFFFFFFFF3
4555555551
0000000000
4666666661
CFFFFFFFF3
ENDCHAR
STARTCHAR greater
ENCODING 62
SWIDTH 550 0
DWIDTH 11 0
BBX 10 10 1 2
BITMAP
A400000000
8FB3000000
02AFA20000
0003AF9200
000003BE81
0000005EF2
00017DE820
028EE71000
8FD7100000
A600000000
ENDCHAR
STARTCHAR question
ENCODING 63
SWIDTH 426 0
DWIDTH 9 0
BBX 8 14 1 0
BITMAP
04ADED81
0DD97BF9
010000CE
000000BE
000002EA
00002DD2
0004EC20
005FA100
01E90000
05F10000
00000000
08600000
5FE00000
4E800000
ENDCHAR
STARTCHAR at
ENCODING 64
SWIDTH 847 0
DWIDTH 17 0
BBX 16 16 1 -2
BITMAP
0000038CEFDA4000
0001AFB7546BF900
002DC20000005F70
01CA0000000008E0
09D1006CEEB403F4
2F500AE737F401F5
7E007E2007F101F5
BA00E8000BB002F4
D902F5001F7006F0
E803F4008F501D90
C901EB48CD94BD10
9D005DEA15DEA200
4F50000000000000
0BE4000000000000
01BFB6557AE00000
0005BEFEC9400000
ENDCHAR
STARTCHAR A
ENCODING 65
SWIDTH 555 0
DWIDTH 11 0
BBX 12 14 -1 0
BITMAP
00000009F600
0000003FF800
000000BCCA00
000004F5BC00
00000DC0AE00
00006F408F10
0001EB006F30
0008F3004F50
002EFFFFFF70
00AF88888F90
03F900000EB0
0BE100000CD0
5F8000000AE0
DE10000008F1
ENDCHAR
STARTCHAR B
ENCODING 66
SWIDTH 598 0
DWIDTH 12 0
BBX 12 14 0 0
BITMAP
0004FFFFEB40
0007F8779EF4
000AF00004FA
000DC00001FA
002F800005F7
005F50026EC0
008FFFFFD600
00BE6679FB10
00EA00004F80
03F700000FC0
06F400001FB0
09F10000AF60
0DE6678DFA00
1FFFFFEB5000
ENDCHAR
STARTCHAR C
ENCODING 67
SWIDTH 584 0
DWIDTH 12 0
BBX 12 14 1 0
BITMAP
000017CEED93
0004EFC98AE4
004FD3000010
01ED20000000
09F500000000
0ED000000000
4F8000000000
7F6000000000
8F4000000000
7F5000000000
5F9000000000
0EF400000000
04FFA78AD000
003AEFEC8000
ENDCHAR
STARTCHAR D
ENCODING 68
SWIDTH 666 0
DWIDTH 13 0
BBX 13 14 0 0
BITMAP
0004FFFFDA3000
0007F877AFF500
000AF10003EE10
000DC000007F60
002F9000003F90
005F5000001FA0
008F2000002FA0
00BE0000004F80
00EA0000009F40
03F7000002ED00
06F400000BF500
09F10003CF8000
0DE779CFE60000
1FFFFEC7200000
ENDCHAR
STARTCHAR E
ENCODING 69
SWIDTH 511 0
DWIDTH 10 0
BBX 11 14 0 0
BITMAP
0004FFFFFFE0
0007F9888860
000AF0000000
000DC0000000
002F80000000
005F50000000
008FFFFFF400
00BE77777100
00EB00000000
03F700000000
06F400000000
09F100000000
0DE777772000
1FFFFFFF2000
ENDCHAR
STARTCHAR F
ENCODING 70
SWIDTH 472 0
DWIDTH 9 0
BBX 11 14 0 0
BITMAP
0004FFFFFFE0
0007F9888860
000AF0000000
000DC0000000
002F90000000
005F60000000
008F30000000
00BFFFFFF300
00ED88887000
03F800000000
06F500000000
09F100000000
0DD000000000
1F9000000000
ENDCHAR
STARTCHAR G
ENCODING 71
SWIDTH 676 0
DWIDTH 14 0
BBX 13 14 1 0
BITMAP
000017CEEDB610
0004EFC98AEE10
005FD300000200
01ED2000000000
09F50000000000
0ED00000000000
4F800000000000
6F60001FFFF600
7F4000277CF200
7F5000000BE000
5F9000000FA000
1EF500004F6000
04EFB879DF3000
0029DFEDA70000
ENDCHAR
STARTCHAR H
ENCODING 72
SWIDTH 678 0
DWIDTH 14 0
BBX 14 14 0 0
BITMAP
0004F6000002F8
0007F3000005F4
000AE0000008F1
000DC000000CD0
002F8000000FA0
005F5000003F60
008FFFFFFFFF30
00BE777777DF00
00EB000000DC00
03F7000001F900
06F4000004F500
09F1000008F200
0DC000000BE000
1F9000000EB000
ENDCHAR
STARTCHAR I
ENCODING 73
SWIDTH 272 0
DWIDTH 5 0
BBX 6 14 0 0
BITMAP
0004F6
0007F3
000AE0
000DB0
001F80
005F50
008F20
00BD00
00EA00
03F700
06F400
09F100
0DC000
1F9000
ENDCHAR
STARTCHAR J
ENCODING 74
SWIDTH 267 0
DWIDTH 5 0
BBX 10 18 -4 -4
BITMAP
00000004F6
00000007F3
0000000AF0
0000000DC0
0000001F90
0000005F50
0000008F20
000000BE00
000000EB00
000002F800
000006F500
000009F100
00000CD000
00000FA000
00004F6000
0000BF2000
198CF80000
1EFC600000
ENDCHAR
STARTCHAR K
ENCODING 75
SWIDTH 557 0
DWIDTH 11 0
BBX 13 14 0 0
BITMAP
0004F600009F60
0007F30009F600
000AE0009F6000
000DB009F50000
002F80AF500000
005F5AF5000000
008FBFD0000000
00BFB8F4000000
00EB01EB000000
03F7009F200000
06F4003F900000
09F1000CE10000
0DC00005F70000
1F900000ED0000
ENDCHAR
STARTCHAR L
ENCODING 76
SWIDTH 474 0
DWIDTH 9 0
BBX 9 14 0 0
BITMAP
0004F60000
0007F30000
000AE00000
000DB00000
002F800000
005F500000
008F200000
00BE000000
00EA000000
03F7000000
06F4000000
09F1000000
0DE8888820
1FFFFFFF20
ENDCHAR
STARTCHAR M
ENCODING 77
SWIDTH 836 0
DWIDTH 17 0
BBX 17 14 0 0
BITMAP
0004FF40000002EFA0
0007EF6000000AEF70
000ACE8000003FAF40
000E9CA00000BC9F10
002F7AC00005F4CD00
005F48E0000DA1FA00
008F16F1006F24F600
00CC04F201E807F300
00F902F408E10AF000
03F600F62F600DC000
06F200D8AD001F9000
0AE000BDF4005F6000
0DB0009FB0008F2000
1F80007F3000BE0000
ENDCHAR
STARTCHAR N
ENCODING 78
SWIDTH 702 0
DWIDTH 14 0
BBX 15 14 0 0
BITMAP
0004FC0000008F10
0007FF300000CC00
000ADF800000F900
000E9AE00003F600
002F64F50007F300
005F30DB000AE000
008F108F100DB000
00CC002F701F8000
00F9000BD04F5000
03F60006F48F1000
06F20001E9AD0000
0AE000009EDA0000
0DB000003FF70000
1F8000000DF30000
ENDCHAR
STARTCHAR O
ENCODING 79
SWIDTH 720 0
DWIDTH 14 0
BBX 13 14 1 0
BITMAP
00003ADFEB4000
0007FEA89EF600
007FA10002DF20
03FB0000006F80
0AF30000002FB0
1FB00000000FB0
4F700000002FA0
6F500000004F90
8F400000008F50
7F60000000DF10
4F90000008F800
0DF400007FD100
04EFA79DFC1000
0029DFEC600000
ENDCHAR
STARTCHAR P
ENCODING 80
SWIDTH 565 0
DWIDTH 11 0
BBX 12 14 0 0
BITMAP
0004FFFFD810
0007F878CFB0
000AF0000BF3
000DC00007F4
002F800008F3
005F50001DE0
008F2015DF50
00BFFFFFD400
00EC66520000
03F700000000
06F400000000
09F100000000
0DC000000000
1F9000000000
ENDCHAR
STARTCHAR Q
ENCODING 81
SWIDTH 720 0
DWIDTH 14 0
BBX 13 17 1 -3
BITMAP
00003ADFEB4000
0007FEA89EF600
007FA10002DF20
03FB0000006F80
0AF30000002FB0
1FB00000000FB0
4F700000001FB0
6F500000003F90
8F400000008F50
7F60000000DE10
4F90000007F800
0DF400007FC100
04EFA79DFC1000
0029DFFE600000
0000008F600000
0000000CF40000
00000002EE2000
ENDCHAR
STARTCHAR R
ENCODING 82
SWIDTH 568 0
DWIDTH 11 0
BBX 12 14 0 0
BITMAP
0004FFFFD810
0007F878CFB0
000AF0000BF3
000DC00006F5
002F900007F3
005F60000CE1
008F2015CF50
00BFFFFFB400
00EC66CE0000
03F8006F5000
06F4001EB000
09F1000AF200
0DD00004F700
1F900000ED00
ENDCHAR
STARTCHAR S
ENCODING 83
SWIDTH 501 0
DWIDTH 10 0
BBX 11 14 0 0
BITMAP
00018DFEC710
002DFB89CF10
009F60000200
00DE00000000
00CF10000000
007FB1000000
0009FE600000
00004CFB1000
0000009F9000
0000000ED000
0000000ED000
1000007F9000
9D978CFD1000
5BEFEC710000
ENDCHAR
STARTCHAR T
ENCODING 84
SWIDTH 498 0
DWIDTH 10 0
BBX 11 14 1 0
BITMAP
0EFFFFFFFFA0
17779FA77740
00007F400000
0000AF100000
0000DC000000
0001F9000000
0005F6000000
0008F3000000
000BE0000000
000EB0000000
003F80000000
006F40000000
009F10000000
00CD00000000
ENDCHAR
STARTCHAR U
ENCODING 85
SWIDTH 675 0
DWIDTH 14 0
BBX 13 14 1 0
BITMAP
006F3000001F90
00AF0000004F60
00DC0000007F30
01F9000000BE00
05F5000000EB00
08F2000002F800
0BE0000006F500
0EA0000009F100
3F7000000CD000
5F5000001F9000
5F5000007F5000
3FA00003EC0000
0BFC88AFE30000
018DFFD8100000
ENDCHAR
STARTCHAR V
ENCODING 86
SWIDTH 547 0
DWIDTH 11 0
BBX 12 14 1 0
BITMAP
2F80000005F8
0FA000000DE1
0DB000006F70
0BD00000DD00
0AF00007F500
08F1001EC000
06F3007F4000
05F401EB0000
03F608F30000
01F72F900000
00F99F200000
00DBF8000000
00BFE1000000
00AF70000000
ENDCHAR
STARTCHAR W
ENCODING 87
SWIDTH 852 0
DWIDTH 17 0
BBX 17 14 2 0
BITMAP
CD00000AF600004F80
BD00002FF60000AF10
BE00009CE70002F900
AE0002F6E80009F200
AF0008E1D9001EA000
9F001E70C9007F3000
8F108E10CA00DB0000
8F11E800BB05F40000
7F27F200AC0CC00000
6F3D90009C3F500000
6F7F20009C8D000000
5FCA00008DE7000000
4FF300007FE1000000
4FB000006F80000000
ENDCHAR
STARTCHAR X
ENCODING 88
SWIDTH 519 0
DWIDTH 10 0
BBX 13 14 -1 0
BITMAP
0009F200003FA0
0003F70001DC00
0000CD000BE200
00006F309F3000
00001E96F60000
000009EF800000
000005FC000000
00001DFE000000
0000BE6F500000
0007F40EA00000
004F7009F10000
02EB0004F60000
0CD10000EC0000
9F3000009F2000
ENDCHAR
STARTCHAR Y
ENCODING 89
SWIDTH 502 0
DWIDTH 10 0
BBX 11 14 1 0
BITMAP
1F9000005F80
0BD00001EC00
07F2000AF300
04F5005F7000
00E901EC0000
00BD0AE20000
007F6F600000
003FFA000000
000EE1000000
000F90000000
003F60000000
007F30000000
00AF00000000
00DC00000000
ENDCHAR
STARTCHAR Z
ENCODING 90
SWIDTH 530 0
DWIDTH 11 0
BBX 13 14 -1 0
BITMAP
0001FFFFFFFF50
0002888888FE10
000000000AF400
000000007F7000
00000004FA0000
0000002EC00000
000001DE200000
00000AF3000000
00008F60000000
0005F900000000
003EB000000000
01DD1000000000
0BFA8888870000
1FFFFFFFFB0000
ENDCHAR
STARTCHAR bracketleft
ENCODING 91
SWIDTH 286 0
DWIDTH 6 0
BBX 9 17 -1 -3
BITMAP
00008FFF40
0000CD6600
0000E90000
0003F50000
0006F20000
000AE00000
000DB00000
001F700000
004F400000
008F100000
00BD000000
00E9000000
03F6000000
06F3000000
09E0000000
0CD6500000
1FFFB00000
ENDCHAR
STARTCHAR backslash
ENCODING 92
SWIDTH 350 0
DWIDTH 7 0
BBX 4 14 2 0
BITMAP
CB00
9D00
7F10
5F30
2F50
0F70
0DA0
0BC0
08E0
06F1
04F4
01F6
00E8
00CB
ENDCHAR
STARTCHAR bracketright
ENCODING 93
SWIDTH 286 0
DWIDTH 6 0
BBX 8 17 -2 -3
BITMAP
0000DFFE
000066EB
000001F7
000005F4
000008F1
00000BD0
00000E90
00003F60
00006F30
00009E00
0000DB00
0001F800
0004F500
0008F100
000BD000
166EA000
5FFF7000
ENDCHAR
STARTCHAR asciicircum
ENCODING 94
SWIDTH 517 0
DWIDTH 10 0
BBX 10 9 0 5
BITMAP
000001E800
000009CD00
00004D2F20
0001D50C60
0008B008B0
003F2004F1
00D80001F4
08E10000C9
3F6000008D
ENDCHAR
STARTCHAR underscore
ENCODING 95
SWIDTH 394 0
DWIDTH 8 0
BBX 9 2 -2 -4
BITMAP
AFFFFFFF40
5666666610
ENDCHAR
STARTCHAR grave
ENCODING 96
SWIDTH 554 0
DWIDTH 11 0
BBX 4 3 5 12
BITMAP
3F90
08E2
00AA
ENDCHAR
STARTCHAR a
ENCODING 97
SWIDTH 564 0
DWIDTH 11 0
BBX 10 11 1 0
BITMAP
0018DEA17D
01DF96BBC9
0BF4000DF6
4F90000AF3
9F20000BF0
DD00000EC0
FB00004F90
FA0000CF60
EC0008EF30
8FA6BC8E00
19EE819B00
ENDCHAR
STARTCHAR b
ENCODING 98
SWIDTH 577 0
DWIDTH 12 0
BBX 11 15 0 0
BITMAP
0005F5000000
0008F2000000
000BD0000000
000EA0000000
003F63BEC400
006F7E86DE10
009FD2005F60
00CF40002F80
01FB00003F70
04F600005F60
07F300009F20
0AF20001EC00
0DF5000AF400
2F9E76CF8000
5E15DEC50000
ENDCHAR
STARTCHAR c
ENCODING 99
SWIDTH 450 0
DWIDTH 9 0
BBX 9 11 1 0
BITMAP
0017DFEA10
01CF968A00
0BF4000000
5F70000000
AF10000000
DC00000000
FA00000000
FB00000000
CE10000000
5FD7699000
05CFEC5000
ENDCHAR
STARTCHAR d
ENCODING 100
SWIDTH 577 0
DWIDTH 12 0
BBX 11 15 1 0
BITMAP
000000000DC0
000000001F90
000000004F60
000000008F20
0019DEB1BE00
02DF96ACDB00
0BF4000CF800
4F800009F400
9F20000AF100
DD00000DD000
FB00003FA000
FA0000BF7000
EC0008EF3000
8FA6BB8F0000
19EE809C0000
ENDCHAR
STARTCHAR e
ENCODING 101
SWIDTH 493 0
DWIDTH 10 0
BBX 9 11 1 0
BITMAP
0018DEC400
01DF87DE10
0BF3006F30
4F80009F10
AF214AF800
DFFFFD6000
FC54200000
FA00000000
CE10001000
5FD769E000
05CFEB6000
ENDCHAR
STARTCHAR f
ENCODING 102
SWIDTH 312 0
DWIDTH 6 0
BBX 12 20 -3 -5
BITMAP
00000003BEE8
0000001ED664
0000007F4000
000000CD0000
00008DFFFE00
000036F84300
000006F40000
000009F10000
00000CD00000
00000F900000
00003F600000
00006F300000
00009F000000
0000CC000000
0000F9000000
0003F6000000
0007F3000000
000CE0000000
279F70000000
3EE800000000
ENDCHAR
STARTCHAR g
ENCODING 103
SWIDTH 500 0
DWIDTH 10 0
BBX 13 16 -2 -5
BITMAP
000007DFFFFF90
00009F847FA210
0003F8000CC000
0007F2000DC000
0007F2002F9000
0003FA34DE2000
00008FFEA20000
0005D200000000
000E8000000000
000DD753000000
001AFFFFD50000
05E71136DF1000
1E8000006F3000
3F700000BF1000
0DE7457CF60000
029DFFDA300000
ENDCHAR
STARTCHAR h
ENCODING 104
SWIDTH 577 0
DWIDTH 12 0
BBX 11 15 0 0
BITMAP
0005F5000000
0008F1000000
000BD0000000
000EA0000000
003F63BED600
006F6E86CF20
009FD2005F50
00CF40005F50
01FC00008F20
04F60000BE00
07F30000EB00
0AE00002F800
0DB00005F500
2F800008F100
5F50000CD000
ENDCHAR
STARTCHAR i
ENCODING 105
SWIDTH 253 0
DWIDTH 5 0
BBX 6 15 0 0
BITMAP
0006E2
0008F2
000010
000000
004F60
007F30
00AE00
00DC00
01F800
04F500
07F200
0AE000
0EB000
2F8000
5F5000
ENDCHAR
STARTCHAR j
ENCODING 106
SWIDTH 253 0
DWIDTH 5 0
BBX 9 20 -3 -5
BITMAP
0000006E20
0000008E20
0000000100
0000000000
000004F600
000007F300
00000AE000
00000DC000
00001F8000
00004F5000
00007F2000
0000AE0000
0000DB0000
0001F80000
0005F50000
0008F20000
000BE00000
001EA00000
46BF300000
7ED5000000
ENDCHAR
STARTCHAR k
ENCODING 107
SWIDTH 487 0
DWIDTH 10 0
BBX 11 15 0 0
BITMAP
0005F5000000
0008F2000000
000BD0000000
000EA0000000
003F6003EC10
006F302EC100
009E02DC1000
00CB2DC10000
01F8DE100000
04FEEF200000
07F93F900000
0AE00BE10000
0EB004F70000
2F8000DE0000
5F50006F6000
ENDCHAR
STARTCHAR l
ENCODING 108
SWIDTH 253 0
DWIDTH 5 0
BBX 6 15 0 0
BITMAP
0005F5
0008F2
000BD0
000EA0
003F70
006F40
009F10
00CC00
01F900
04F600
07F300
0AE000
0EB000
2F8000
5F5000
ENDCHAR
STARTCHAR m
ENCODING 109
SWIDTH 872 0
DWIDTH 17 0
BBX 17 11 0 0
BITMAP
004F34CEC203BED600
007F6D77EA4E86DF20
00AFC100AED3006F40
00DF4000AF60006F40
01FB0000CE00009F10
04F60001FA0000CD00
07F20004F60000FA00
0AE00007F30003F700
0EB0000AE00007F300
2F80000DB0000AF100
5F50001F80000DC000
ENDCHAR
STARTCHAR n
ENCODING 110
SWIDTH 577 0
DWIDTH 12 0
BBX 11 11 0 0
BITMAP
004F33BED600
007F5E86CF30
00AFD2004F50
00DF40005F40
01FC00008F20
04F60000BE00
07F20000EB00
0AE00002F800
0EB00005F500
2F800008F100
5F50000CD000
ENDCHAR
STARTCHAR o
ENCODING 111
SWIDTH 561 0
DWIDTH 11 0
BBX 10 11 1 0
BITMAP
0019DFD600
02DE86BF70
0CE2000CE1
5F600007F3
AF000007F4
EC000008F2
FA00000CE0
FB00002F90
CE1000BE20
4FD77CF500
04CEEA3000
ENDCHAR
STARTCHAR p
ENCODING 112
SWIDTH 577 0
DWIDTH 12 0
BBX 12 16 -1 -5
BITMAP
0004F23BEC40
0007F5E86DE1
000AFD2005F6
000DF40002F8
001FB00003F7
004F600005F6
007F300009F2
00AF20001EC0
00DF5000AF40
01FAE76CF800
04F45DEC5000
08F100000000
0BD000000000
0EA000000000
2F7000000000
5F5000000000
ENDCHAR
STARTCHAR q
ENCODING 113
SWIDTH 577 0
DWIDTH 12 0
BBX 10 16 1 -5
BITMAP
0018DEA17D
01DF96BBC9
0BF4000DF6
4F90000AF3
9F20000BF0
DD00000EC0
FB00004F90
FA0000CF60
EC0008FF30
8F96BCAF00
19EE81DC00
000001F900
000004F600
000007F300
00000AE000
00000DB000
ENDCHAR
STARTCHAR r
ENCODING 114
SWIDTH 395 0
DWIDTH 8 0
BBX 9 11 0 0
BITMAP
004F34CE60
007F6E9820
00AFD20000
00DF400000
01FB000000
04F6000000
07F3000000
0AE0000000
0EB0000000
2F80000000
5F50000000
ENDCHAR
STARTCHAR s
ENCODING 115
SWIDTH 428 0
DWIDTH 9 0
BBX 9 11 0 0
BITMAP
004BEEC810
03FD779C00
08F2000000
08F3000000
03EE500000
003CFB1000
00008FB000
000009F200
10000AF100
D976AFA000
7CEEC70000
ENDCHAR
STARTCHAR t
ENCODING 116
SWIDTH 324 0
DWIDTH 6 0
BBX 7 13 1 0
BITMAP
004D0000
02E90000
AFFFFF10
49F54300
0BE00000
0EB00000
2F800000
5F500000
8F200000
BE000000
CC000000
BF762000
2CFD3000
ENDCHAR
STARTCHAR u
ENCODING 117
SWIDTH 577 0
DWIDTH 12 0
BBX 10 11 1 0
BITMAP
05F40000CC
09F10000F9
0CD00003F6
0FA00006F3
3F70000AF0
7F30000EC0
AF00004F90
CD0000BF60
DC0008EF30
AF86BB9E00
1BED80AB00
ENDCHAR
STARTCHAR v
ENCODING 118
SWIDTH 461 0
DWIDTH 9 0
BBX 9 11 1 0
BITMAP
FA00000CD0
DB00005F60
CD0000DD00
AE0006F500
8F100DC000
7F207F4000
5F41EB0000
3F56F40000
2F6DB00000
0FCF300000
0DFA000000
ENDCHAR
STARTCHAR w
ENCODING 119
SWIDTH 716 0
DWIDTH 14 0
BBX 14 11 1 0
BITMAP
DB0002FE0000DD
CC0008EF0005F6
CC001E9F100BE0
BD007D4F203F70
AD00E73F309E10
AE06E13F41F900
9E0D902F47F200
9E4F201F5DA000
8DAA000F9F4000
7EF3000FEC0000
7FB0000EF50000
ENDCHAR
STARTCHAR x
ENCODING 120
SWIDTH 478 0
DWIDTH 10 0
BBX 11 11 -1 0
BITMAP
003F70004FA0
000BD001EC00
0005F40BD200
0000DA8F3000
00007FF50000
00004FB00000
0002EEF20000
001CD2F80000
00AE20AE1000
07F5003F6000
5F90000CD000
ENDCHAR
STARTCHAR y
ENCODING 121
SWIDTH 461 0
DWIDTH 9 0
BBX 12 16 -2 -5
BITMAP
000FA00000CD
000DC00005F6
000AE0000DD0
0008F1006F50
0006F300DC00
0004F506F400
0002F60DB000
0000E86F3000
0000C9DB0000
0000ADF30000
00008FA00000
00009F200000
0002F9000000
000BE1000000
66BF60000000
CEC500000000
ENDCHAR
STARTCHAR z
ENCODING 122
SWIDTH 443 0
DWIDTH 9 0
BBX 10 11 -1 0
BITMAP
000CFFFFF9
0003333AF4
0000004F80
000002EB00
00001CD100
0000AF3000
0006F60000
003F900000
01EC000000
0BF5333300
3FFFFFFD00
ENDCHAR
STARTCHAR braceleft
ENCODING 123
SWIDTH 349 0
DWIDTH 7 0
BBX 8 17 0 -3
BITMAP
000008DC
00007F94
0000DB00
0002F600
0005F300
0008F000
000CB000
028F4000
8FC50000
5AF60000
00BB0000
00CA0000
01F70000
04F40000
07F10000
06F93000
01AE8000
ENDCHAR
STARTCHAR bar
ENCODING 124
SWIDTH 550 0
DWIDTH 11 0
BBX 2 20 5 -5
BITMAP
BA
BA
BA
BA
BA
BA
BA
BA
BA
BA
BA
BA
BA
BA
BA
BA
BA
BA
BA
BA
ENDCHAR
STARTCHAR braceright
ENCODING 125
SWIDTH 349 0
DWIDTH 7 0
BBX 8 17 -1 -3
BITMAP
0006EA10
00038F80
00000DA0
00001F70
00004F40
00007F10
00009D00
00007F50
00000AFC
0001CE84
0007F200
000CB000
001F8000
004F5000
008F1000
59FA0000
BD910000
ENDCHAR
STARTCHAR asciitilde
ENCODING 126
SWIDTH 550 0
DWIDTH 11 0
BBX 10 3 1 6
BITMAP
3CEC700015
DA69FD87D7
700029EE90
ENDCHAR
STARTCHAR nonbreakingspace
ENCODING 160
SWIDTH 259 0
DWIDTH 5 0
BBX 1 1 0 0
BITMAP
00
ENDCHAR
STARTCHAR exclamdown
ENCODING 161
SWIDTH 258 0
DWIDTH 5 0
BBX 6 15 -1 -4
BITMAP
0003DA
0008FB
000393
000000
000980
000C60
001F30
005F10
008E00
00CB00
01F900
04F700
08F400
0CF200
1FE000
ENDCHAR
STARTCHAR cent
ENCODING 162
SWIDTH 550 0
DWIDTH 11 0
BBX 9 14 2 0
BITMAP
00000A8000
00000C6000
0007DFFC30
01CFA66A10
0AF5000000
3F90000000
8F30000000
BE00000000
BE00000000
9F30000000
3EE868B000
03AFEC7000
004F000000
007C000000
ENDCHAR
STARTCHAR sterling
ENCODING 163
SWIDTH 550 0
DWIDTH 11 0
BBX 13 14 -1 0
BITMAP
0000002ADED820
000002ED769E30
000009E2000000
00000EA0000000
00003F60000000
00006F30000000
00009F00000000
00CFFFFFF60000
0034FA44410000
0004F500000000
0009E100000000
002E7000000000
08ED8888883000
2FFFFFFFFF3000
ENDCHAR
STARTCHAR currency
ENCODING 164
SWIDTH 550 0
DWIDTH 11 0
BBX 9 9 1 3
BITMAP
1A100002A0
1DBAEE9DB0
04FB55CF10
08C0001E60
0B80000B80
09C0001E60
04FB55CF10
1DBAEE9DB0
1A100003A0
ENDCHAR
STARTCHAR yen
ENCODING 165
SWIDTH 550 0
DWIDTH 11 0
BBX 12 14 1 0
BITMAP
08F100000DD1
04F500009F30
00E90004F700
00AD001EA000
006F10AD1000
002F56F30000
000CBE700000
0EFFFFFF4000
1449F6440000
0008E0000000
9FFFFFFA0000
345FA4420000
003F50000000
006F20000000
ENDCHAR
STARTCHAR brokenbar
ENCODING 166
SWIDTH 550 0
DWIDTH 11 0
BBX 2 20 5 -5
BITMAP
BA
BA
BA
BA
BA
BA
BA
BA
00
00
00
00
BA
BA
BA
BA
BA
BA
BA
BA
ENDCHAR
STARTCHAR section
ENCODING 167
SWIDTH 485 0
DWIDTH 10 0
BBX 10 15 0 0
BITMAP
00018DFEB5
000CE756A5
002F800000
000EC20000
0005FF9200
005E88EE30
01E7002EB0
04F4000BC0
02FB103F60
006FE9E800
00029FD200
000003F900
000001E900
6A656CF300
3BEFDA3000
ENDCHAR
STARTCHAR dieresis
ENCODING 168
SWIDTH 554 0
DWIDTH 11 0
BBX 6 2 4 13
BITMAP
5E20B9
5D10C8
ENDCHAR
STARTCHAR copyright
ENCODING 169
SWIDTH 832 0
DWIDTH 17 0
BBX 15 14 1 0
BITMAP
00004ADEEB610000
001AD73125AD4000
01C910000004E400
09A003BEEC304E10
2E103FB549100980
7900AD00000003D0
9700D900000001F0
9700D900000001E0
7900BD00000003C0
2E104FB557100970
09A004CEEB104E10
01C900000004E400
001AD73125AD4000
00004ADEEB610000
ENDCHAR
STARTCHAR ordfeminine
ENCODING 170
SWIDTH 334 0
DWIDTH 7 0
BBX 7 7 1 7
BITMAP
008ED780
07C14F50
0E300F20
3D003E00
5C008B00
3E15E800
0AE99500
ENDCHAR
STARTCHAR guillemotleft
ENCODING 171
SWIDTH 467 0
DWIDTH 9 0
BBX 9 8 0 1
BITMAP
0001B302A0
002DB02D80
02DC11DB00
1ED11CD100
0CC02F8000
04F409E100
00BB01E700
003C107900
ENDCHAR
STARTCHAR logicalnot
ENCODING 172
SWIDTH 550 0
DWIDTH 11 0
BBX 10 5 1 3
BITMAP
CFFFFFFFF3
46666667F3
00000002F3
00000002F3
00000002F3
ENDCHAR
STARTCHAR uni00AD
ENCODING 173
SWIDTH 312 0
DWIDTH 6 0
BBX 6 2 0 4
BITMAP
4FFFF7
388882
ENDCHAR
STARTCHAR registered
ENCODING 174
SWIDTH 832 0
DWIDTH 17 0
BBX 15 14 1 0
BITMAP
00004ADEEB610000
001AD73125AD4000
01C910000004E400
09A00BFFD8004E10
2E100B936E700980
79000B800B9003D0
97000B803E6001F0
97000BFFF70001E0
79000B94E60003C0
2E100B806E200970
09A00B800AB04E10
01C900000004E400
001AD73125AD4000
00004ADEEB610000
ENDCHAR
STARTCHAR overscore
ENCODING 175
SWIDTH 381 0
DWIDTH 8 0
BBX 9 2 2 14
BITMAP
9FFFFFFF10
3444444400
ENDCHAR
STARTCHAR degree
ENCODING 176
SWIDTH 428 0
DWIDTH 9 0
BBX 7 6 2 8
BITMAP
07DEA100
6D43BB00
C5001F20
C5001F10
7D43BB00
07DEA100
ENDCHAR
STARTCHAR plusminus
ENCODING 177
SWIDTH 550 0
DWIDTH 11 0
BBX 10 11 1 0
BITMAP
0000E60000
0000E60000
0000E60000
0000E60000
CFFFFFFFF3
4666FA6661
0000E60000
0000E60000
0000E60000
4666666661
CFFFFFFFF3
ENDCHAR
STARTCHAR twosuperior
ENCODING 178
SWIDTH 350 0
DWIDTH 7 0
BBX 7 9 1 5
BITMAP
019DE900
04934F40
00000E50
00005F10
0002E600
003E7000
04E60000
5E622100
EFFFF800
ENDCHAR
STARTCHAR threesuperior
ENCODING 179
SWIDTH 350 0
DWIDTH 7 0
BBX 7 9 1 5
BITMAP
03BEE800
03735F40
00000E50
00017D10
00FFC100
0012C800
00008B00
8424D700
8DFD8000
ENDCHAR
STARTCHAR acute
ENCODING 180
SWIDTH 554 0
DWIDTH 11 0
BBX 5 3 5 12
BITMAP
01DD20
0AD200
8C1000
ENDCHAR
STARTCHAR mu
ENCODING 181
SWIDTH 583 0
DWIDTH 12 0
BBX 12 16 -1 -5
BITMAP
0004F60000AE
0007F30000DB
000AE00002F8
000DC00005F5
001F800008F2
004F50000CD0
007F20002FA0
00AE0000AF70
00DE0006EF40
01FF96AC7F10
04F7EE918D00
08F000000000
0BD000000000
0EA000000000
2F7000000000
5F4000000000
ENDCHAR
STARTCHAR paragraph
ENCODING 182
SWIDTH 654 0
DWIDTH 13 0
BBX 11 18 1 -3
BITMAP
003BEFFFFFC0
03FFFFFC8AC0
0AFFFFF905C0
0EFFFFF905C0
0FFFFFF905C0
1FFFFFF905C0
0EFFFFF905C0
0BFFFFF905C0
04FFFFF905C0
004CEEE905C0
0000008905C0
0000008905C0
0000008905C0
0000008905C0
0000008905C0
0000008905C0
0000008905C0
0000008905C0
ENDCHAR
STARTCHAR periodcentered
ENCODING 183
SWIDTH 252 0
DWIDTH 5 0
BBX 4 3 1 6
BITMAP
0770
4FF1
3E90
ENDCHAR
STARTCHAR cedilla
ENCODING 184
SWIDTH 205 0
DWIDTH 4 0
BBX 4 5 -2 -5
BITMAP
00D2
06E6
007F
019D
9EB3
ENDCHAR
STARTCHAR onesuperior
ENCODING 185
SWIDTH 350 0
DWIDTH 7 0
BBX 5 9 2 5
BITMAP
007F40
2CCF10
276D00
009A00
00C700
01F400
03F100
07D000
0AA000
ENDCHAR
STARTCHAR ordmasculine
ENCODING 186
SWIDTH 335 0
DWIDTH 7 0
BBX 7 7 1 7
BITMAP
009ED600
09A23E10
1F100C40
4C000D30
5C002E10
2E31B800
06EE9000
ENDCHAR
STARTCHAR guillemotright
ENCODING 187
SWIDTH 467 0
DWIDTH 9 0
BBX 9 8 0 1
BITMAP
04B0087000
02F606E100
009D10E900
003F707F20
008F408F60
06F507F700
3F606F5000
6600B40000
ENDCHAR
STARTCHAR onequarter
ENCODING 188
SWIDTH 741 0
DWIDTH 15 0
BBX 13 14 1 0
BITMAP
003CB000009D10
07ED800005F300
072E50002E6000
002F2000CA0000
005E0009D10000
008B006E308F10
00B802E605FC00
00E51D902DB900
02F2AC10C5C600
0006E20990F300
003F506C13F100
01D900EFFFFF10
0AC000222AA200
6E2000000D6000
ENDCHAR
STARTCHAR onehalf
ENCODING 189
SWIDTH 741 0
DWIDTH 15 0
BBX 15 14 0 0
BITMAP
0008F300003E6000
03CCF00001D90000
0367C0000AC10000
000A90006E200000
000E6003F5000000
002F301D93BED500
005F00AC07628E00
008C06E200004F10
00B93F5000009C00
0001D8000006E200
000AC000006E3000
007E200008D30000
03F400009D422100
1D800004FFFFF300
ENDCHAR
STARTCHAR threequarters
ENCODING 190
SWIDTH 764 0
DWIDTH 15 0
BBX 15 14 0 0
BITMAP
005CED5000002E60
006529E00001C900
000004F00009C100
00002B90006E2000
005FF90003E50000
00014E301D902E70
00000D60AC01CF40
27326F36E209AF10
1AEEC53F506C5E00
000001D903E28B00
00000AC01D50B800
00007E207FFFFF80
0003F4001224F310
001D80000006D000
ENDCHAR
STARTCHAR questiondown
ENCODING 191
SWIDTH 426 0
DWIDTH 9 0
BBX 8 15 0 -4
BITMAP
000008E4
00000EF5
00000670
00000000
00001F50
00008E10
0007F700
009F9000
0AF70000
6F600000
DD000000
FA000000
ED000010
9FB79DC0
18DED930
ENDCHAR
STARTCHAR Agrave
ENCODING 192
SWIDTH 555 0
DWIDTH 11 0
BBX 12 18 -1 0
BITMAP
0000009F3000
0000001DA000
00000002E400
000000000000
00000009F600
0000003FF800
000000BCCA00
000004F5BC00
00000DC0AE00
00006F408F10
0001EB006F30
0008F3004F50
002EFFFFFF70
00AF88888F90
03F900000EB0
0BE100000CD0
5F8000000AE0
DE10000008F1
ENDCHAR
STARTCHAR Aacute
ENCODING 193
SWIDTH 555 0
DWIDTH 11 0
BBX 12 18 -1 0
BITMAP
0000000007F7
000000004F70
00000002D500
000000000000
00000009F600
0000003FF800
000000BCCA00
000004F5BC00
00000DC0AE00
00006F408F10
0001EB006F30
0008F3004F50
002EFFFFFF70
00AF88888F90
03F900000EB0
0BE100000CD0
5F8000000AE0
DE10000008F1
ENDCHAR
STARTCHAR Acircumflex
ENCODING 194
SWIDTH 555 0
DWIDTH 11 0
BBX 12 18 -1 0
BITMAP
00000002EF20
0000002DBDB0
000003D602D5
000000000000
00000009F600
0000003FF800
000000BCCA00
000004F5BC00
00000DC0AE00
00006F408F10
0001EB006F30
0008F3004F50
002EFFFFFF70
00AF88888F90
03F900000EB0
0BE100000CD0
5F8000000AE0
DE10000008F1
ENDCHAR
STARTCHAR Atilde
ENCODING 195
SWIDTH 555 0
DWIDTH 11 0
BBX 13 18 -1 0
BITMAP
0000009E800B40
000005D7EC8D00
00000A502CD400
00000000000000
00000009F60000
0000003FF80000
000000BCCA0000
000004F5BC0000
00000DC0AE0000
00006F408F1000
0001EB006F3000
0008F3004F5000
002EFFFFFF7000
00AF88888F9000
03F900000EB000
0BE100000CD000
5F8000000AE000
DE10000008F100
ENDCHAR
STARTCHAR Adieresis
ENCODING 196
SWIDTH 555 0
DWIDTH 11 0
BBX 12 18 -1 0
BITMAP
000000AB02E4
000000B903E3
000000000000
000000000000
00000009F600
0000003FF800
000000BCCA00
000004F5BC00
00000DC0AE00
00006F408F10
0001EB006F30
0008F3004F50
002EFFFFFF70
00AF88888F90
03F900000EB0
0BE100000CD0
5F8000000AE0
DE10000008F1
ENDCHAR
STARTCHAR Aring
ENCODING 197
SWIDTH 555 0
DWIDTH 11 0
BBX 12 17 -1 0
BITMAP
0000001BEC20
000000890890
000000890890
0000001FFF20
0000003FF800
000000BCCA00
000004F5BC00
00000DC0AE00
00006F408F10
0001EB006F30
0008F3004F50
002EFFFFFF70
00AF88888F90
03F900000EB0
0BE100000CD0
5F8000000AE0
DE10000008F1
ENDCHAR
STARTCHAR AE
ENCODING 198
SWIDTH 816 0
DWIDTH 16 0
BBX 19 14 -1 0
BITMAP
000000005FFFFFFFFF10
00000001ECBF98888700
0000000AF39F10000000
0000004F80CD00000000
000001DD01FA00000000
000009F304F700000000
00004F8007FFFFFF6000
0001DD100AF777772000
0008FFFFFFC000000000
003FB8889F9000000000
00DE10005F6000000000
08F500008F2000000000
3FB00000BF7777730000
CE200000EFFFFFF40000
ENDCHAR
STARTCHAR Ccedilla
ENCODING 199
SWIDTH 584 0
DWIDTH 12 0
BBX 12 19 1 -5
BITMAP
000017CEED93
0004EFC98AE4
004FD3000010
01ED20000000
09F500000000
0ED000000000
4F8000000000
7F6000000000
8F4000000000
7F5000000000
5F9000000000
0EF400000000
04FFA78AD000
003AEFEC8000
000097000000
0001FA000000
00002F500000
00015F300000
004FD6000000
ENDCHAR
STARTCHAR Egrave
ENCODING 200
SWIDTH 511 0
DWIDTH 10 0
BBX 11 18 0 0
BITMAP
000004F80000
0000008E1000
0000000B9000
000000000000
0004FFFFFFE0
0007F9888860
000AF0000000
000DC0000000
002F80000000
005F50000000
008FFFFFF400
00BE77777100
00EB00000000
03F700000000
06F400000000
09F100000000
0DE777772000
1FFFFFFF2000
ENDCHAR
STARTCHAR Eacute
ENCODING 201
SWIDTH 511 0
DWIDTH 10 0
BBX 11 18 0 0
BITMAP
00000000AF40
00000007E400
0000005D3000
000000000000
0004FFFFFFE0
0007F9888860
000AF0000000
000DC0000000
002F80000000
005F50000000
008FFFFFF400
00BE77777100
00EB00000000
03F700000000
06F400000000
09F100000000
0DE777772000
1FFFFFFF2000
ENDCHAR
STARTCHAR Ecircumflex
ENCODING 202
SWIDTH 511 0
DWIDTH 10 0
BBX 11 18 0 0
BITMAP
0000002EF300
000002DBCB00
00003D701D60
000000000000
0004FFFFFFE0
0007F9888860
000AF0000000
000DC0000000
002F80000000
005F50000000
008FFFFFF400
00BE77777100
00EB00000000
03F700000000
06F400000000
09F100000000
0DE777772000
1FFFFFFF2000
ENDCHAR
STARTCHAR Edieresis
ENCODING 203
SWIDTH 511 0
DWIDTH 10 0
BBX 11 18 0 0
BITMAP
00000AB02E40
00000B903E30
000000000000
000000000000
0004FFFFFFE0
0007F9888860
000AF0000000
000DC0000000
002F80000000
005F50000000
008FFFFFF400
00BE77777100
00EB00000000
03F700000000
06F400000000
09F100000000
0DE777772000
1FFFFFFF2000
ENDCHAR
STARTCHAR Igrave
ENCODING 204
SWIDTH 272 0
DWIDTH 5 0
BBX 6 18 0 0
BITMAP
003F90
0008E1
0000A9
000000
0004F6
0007F3
000AE0
000DB0
001F80
005F50
008F20
00BD00
00EA00
03F700
06F400
09F100
0DC000
1F9000
ENDCHAR
STARTCHAR Iacute
ENCODING 205
SWIDTH 272 0
DWIDTH 5 0
BBX 9 18 0 0
BITMAP
000002EC10
00001CC100
0000BA1000
0000000000
0004F60000
0007F30000
000AE00000
000DB00000
001F800000
005F500000
008F200000
00BD000000
00EA000000
03F7000000
06F4000000
09F1000000
0DC0000000
1F90000000
ENDCHAR
STARTCHAR Icircumflex
ENCODING 206
SWIDTH 272 0
DWIDTH 5 0
BBX 8 18 0 0
BITMAP
0000BF70
000ADAE2
01BA10AA
00000000
0004F600
0007F300
000AE000
000DB000
001F8000
005F5000
008F2000
00BD0000
00EA0000
03F70000
06F40000
09F10000
0DC00000
1F900000
ENDCHAR
STARTCHAR Idieresis
ENCODING 207
SWIDTH 272 0
DWIDTH 5 0
BBX 8 18 0 0
BITMAP
003E309B
004E20AA
00000000
00000000
0004F600
0007F300
000AE000
000DB000
001F8000
005F5000
008F2000
00BD0000
00EA0000
03F70000
06F40000
09F10000
0DC00000
1F900000
ENDCHAR
STARTCHAR Eth
ENCODING 208
SWIDTH 666 0
DWIDTH 13 0
BBX 13 14 0 0
BITMAP
0004FFFFDA3000
0007F877AFF500
000BF00003EE10
000EB000007F60
003F8000003F90
006F4000001FA0
1FFFFFF4002FA0
27ED7771004F80
01F90000009F40
04F6000002ED00
07F300000BF500
0AF00003CF8000
0DE779CFE60000
1FFFFEC7200000
ENDCHAR
STARTCHAR Ntilde
ENCODING 209
SWIDTH 702 0
DWIDTH 14 0
BBX 15 18 0 0
BITMAP
0000002CD502D000
000000AA9F9B8000
000001E105DB1000
0000000000000000
0004FC0000008F10
0007FF300000CC00
000ADF800000F900
000E9AE00003F600
002F64F50007F300
005F30DB000AE000
008F108F100DB000
00CC002F701F8000
00F9000BD04F5000
03F60006F48F1000
06F20001E9AD0000
0AE000009EDA0000
0DB000003FF70000
1F8000000DF30000
ENDCHAR
STARTCHAR Ograve
ENCODING 210
SWIDTH 720 0
DWIDTH 14 0
BBX 13 18 1 0
BITMAP
000003F9000000
0000007F200000
0000000AA00000
00000000000000
00003ADFEB4000
0007FEA89EF600
007FA10002DF20
03FB0000006F80
0AF30000002FB0
1FB00000000FB0
4F700000002FA0
6F500000004F90
8F400000008F50
7F60000000DF10
4F90000008F800
0DF400007FD100
04EFA79DFC1000
0029DFEC600000
ENDCHAR
STARTCHAR Oacute
ENCODING 211
SWIDTH 720 0
DWIDTH 14 0
BBX 13 18 1 0
BITMAP
000000002EC100
00000001CC1000
0000000BA10000
00000000000000
00003ADFEB4000
0007FEA89EF600
007FA10002DF20
03FB0000006F80
0AF30000002FB0
1FB00000000FB0
4F700000002FA0
6F500000004F90
8F400000008F50
7F60000000DF10
4F90000008F800
0DF400007FD100
04EFA79DFC1000
0029DFEC600000
ENDCHAR
STARTCHAR Ocircumflex
ENCODING 212
SWIDTH 720 0
DWIDTH 14 0
BBX 13 18 1 0
BITMAP
00000009F90000
0000009E9F3000
00000BB208C000
00000000000000
00003ADFEB4000
0007FEA89EF600
007FA10002DF20
03FB0000006F80
0AF30000002FB0
1FB00000000FB0
4F700000002FA0
6F500000004F90
8F400000008F50
7F60000000DF10
4F90000008F800
0DF400007FD100
04EFA79DFC1000
0029DFEC600000
ENDCHAR
STARTCHAR Otilde
ENCODING 213
SWIDTH 720 0
DWIDTH 14 0
BBX 13 18 1 0
BITMAP
000005EB207800
00001E7CE7E300
00005A019E7000
00000000000000
00003ADFEB4000
0007FEA89EF600
007FA10002DF20
03FB0000006F80
0AF30000002FB0
1FB00000000FB0
4F700000002FA0
6F500000004F90
8F400000008F50
7F60000000DF10
4F90000008F800
0DF400007FD100
04EFA79DFC1000
0029DFEC600000
ENDCHAR
STARTCHAR Odieresis
ENCODING 214
SWIDTH 720 0
DWIDTH 14 0
BBX 13 18 1 0
BITMAP
000004E20BA000
000005D10C8000
00000000000000
00000000000000
00003ADFEB4000
0007FEA89EF600
007FA10002DF20
03FB0000006F80
0AF30000002FB0
1FB00000000FB0
4F700000002FA0
6F500000004F90
8F400000008F50
7F60000000DF10
4F90000008F800
0DF400007FD100
04EFA79DFC1000
0029DFEC600000
ENDCHAR
STARTCHAR multiply
ENCODING 215
SWIDTH 550 0
DWIDTH 11 0
BBX 9 8 1 3
BITMAP
1B30000960
1BE300AF40
01BE3AE400
001BFE4000
000BFE4000
00BE3AE400
1BE300AE40
1B30000960
ENDCHAR
STARTCHAR Oslash
ENCODING 216
SWIDTH 720 0
DWIDTH 14 0
BBX 14 16 1 -1
BITMAP
00000000000140
00003ADFDA3AE1
0007FEA8AEFF50
007FA10007FF20
03FB00003FDF80
0AF30002EC2FA0
1FB0001CD10FB0
4F7000BE202FA0
6F5009F4004F90
8F407F60008F50
7F55F80000DF10
4FBEA00008F800
0DFC00007FD100
0CFFA89DFC1000
9F58DEEC600000
24000000000000
ENDCHAR
STARTCHAR Ugrave
ENCODING 217
SWIDTH 675 0
DWIDTH 14 0
BBX 13 18 1 0
BITMAP
000005F7000000
000000AD100000
0000001C700000
00000000000000
006F3000001F90
00AF0000004F60
00DC0000007F30
01F9000000BE00
05F5000000EB00
08F2000002F800
0BE0000006F500
0EA0000009F100
3F7000000CD000
5F5000001F9000
5F5000007F5000
3FA00003EC0000
0BFC88AFE30000
018DFFD8100000
ENDCHAR
STARTCHAR Uacute
ENCODING 218
SWIDTH 675 0
DWIDTH 14 0
BBX 13 18 1 0
BITMAP
000000002EC100
00000001CC1000
0000000AA10000
00000000000000
006F3000001F90
00AF0000004F60
00DC0000007F30
01F9000000BE00
05F5000000EB00
08F2000002F800
0BE0000006F500
0EA0000009F100
3F7000000CD000
5F5000001F9000
5F5000007F5000
3FA00003EC0000
0BFC88AFE30000
018DFFD8100000
ENDCHAR
STARTCHAR Ucircumflex
ENCODING 219
SWIDTH 675 0
DWIDTH 14 0
BBX 13 18 1 0
BITMAP
0000000BF70000
000000ADAE2000
00001BA10AA000
00000000000000
006F3000001F90
00AF0000004F60
00DC0000007F30
01F9000000BE00
05F5000000EB00
08F2000002F800
0BE0000006F500
0EA0000009F100
3F7000000CD000
5F5000001F9000
5F5000007F5000
3FA00003EC0000
0BFC88AFE30000
018DFFD8100000
ENDCHAR
STARTCHAR Udieresis
ENCODING 220
SWIDTH 675 0
DWIDTH 14 0
BBX 13 18 1 0
BITMAP
000007D01D7000
000008B01E5000
00000000000000
00000000000000
006F3000001F90
00AF0000004F60
00DC0000007F30
01F9000000BE00
05F5000000EB00
08F2000002F800
0BE0000006F500
0EA0000009F100
3F7000000CD000
5F5000001F9000
5F5000007F5000
3FA00003EC0000
0BFC88AFE30000
018DFFD8100000
ENDCHAR
STARTCHAR Yacute
ENCODING 221
SWIDTH 502 0
DWIDTH 10 0
BBX 11 18 1 0
BITMAP
0000002EC100
000001CC1000
00000BA10000
000000000000
1F9000005F80
0BD00001EC00
07F2000AF300
04F5005F7000
00E901EC0000
00BD0AE20000
007F6F600000
003FFA000000
000EE1000000
000F90000000
003F60000000
007F30000000
00AF00000000
00DC00000000
ENDCHAR
STARTCHAR Thorn
ENCODING 222
SWIDTH 565 0
DWIDTH 11 0
BBX 11 14 0 0
BITMAP
0004F6000000
0007F2000000
000AFFFEA300
000DC779FE20
002F70005F90
005F40000FB0
008F20000EB0
00BE00002F90
00EB0000AF40
03F8014BFA00
06FFFFFE7000
09F765300000
0DD000000000
1FA000000000
ENDCHAR
STARTCHAR germandbls
ENCODING 223
SWIDTH 577 0
DWIDTH 12 0
BBX 14 20 -3 -5
BITMAP
000000019DFD81
0000001DE86AF9
0000008F3000CC
000000DB0002E9
000002F7004DD1
000005F406FB10
000009F12F9000
00000CD04F5000
00000F901DE400
00003F6002CF50
00006F30001DE0
0000AF000008F2
0000DC10000BF1
0001F95C76BF80
0004F52BEEC600
0007F200000000
000BE000000000
001E9000000000
47BF3000000000
6ED50000000000
ENDCHAR
STARTCHAR agrave
ENCODING 224
SWIDTH 564 0
DWIDTH 11 0
BBX 10 15 1 0
BITMAP
0001ED0000
00004F5000
000007D000
0000000000
0018DEA17D
01DF96BBC9
0BF4000DF6
4F90000AF3
9F20000BF0
DD00000EC0
FB00004F90
FA0000CF60
EC0008EF30
8FA6BC8E00
19EE819B00
ENDCHAR
STARTCHAR aacute
ENCODING 225
SWIDTH 564 0
DWIDTH 11 0
BBX 10 15 1 0
BITMAP
0000004FA0
000002EA00
00001C8000
0000000000
0018DEA17D
01DF96BBC9
0BF4000DF6
4F90000AF3
9F20000BF0
DD00000EC0
FB00004F90
FA0000CF60
EC0008EF30
8FA6BC8E00
19EE819B00
ENDCHAR
STARTCHAR acircumflex
ENCODING 226
SWIDTH 564 0
DWIDTH 11 0
BBX 10 15 1 0
BITMAP
00000CF600
0001BDAE10
001C910B90
0000000000
0018DEA17D
01DF96BBC9
0BF4000DF6
4F90000AF3
9F20000BF0
DD00000EC0
FB00004F90
FA0000CF60
EC0008EF30
8FA6BC8E00
19EE819B00
ENDCHAR
STARTCHAR atilde
ENCODING 227
SWIDTH 564 0
DWIDTH 11 0
BBX 10 15 1 0
BITMAP
0006EB1087
002E7DD7E2
006901AE70
0000000000
0018DEA17D
01DF96BBC9
0BF4000DF6
4F90000AF3
9F20000BF0
DD00000EC0
FB00004F90
FA0000CF60
EC0008EF30
8FA6BC8E00
19EE819B00
ENDCHAR
STARTCHAR adieresis
ENCODING 228
SWIDTH 564 0
DWIDTH 11 0
BBX 10 15 1 0
BITMAP
0005E10B90
0006D10C70
0000000000
0000000000
0018DEA17D
01DF96BBC9
0BF4000DF6
4F90000AF3
9F20000BF0
DD00000EC0
FB00004F90
FA0000CF60
EC0008EF30
8FA6BC8E00
19EE819B00
ENDCHAR
STARTCHAR aring
ENCODING 229
SWIDTH 564 0
DWIDTH 11 0
BBX 10 16 1 0
BITMAP
00004DE800
0000D31D30
0000E31D30
00005DE800
0000000000
0018DEA17D
01DF96BBC9
0BF4000DF6
4F90000AF3
9F20000BF0
DD00000EC0
FB00004F90
FA0000CF60
EC0008EF30
8FA6BC8E00
19EE819B00
ENDCHAR
STARTCHAR ae
ENCODING 230
SWIDTH 814 0
DWIDTH 16 0
BBX 15 11 1 0
BITMAP
0019DE70E59EEA10
01DF97D9FDD78F90
0BF4004FFC100CC0
4F90001FF2001EA0
9F20002FA026DE30
DD00005FFFFFA300
FB0000AF75310000
FA0003FF40000000
EC001DFF80000100
9F87D6EDFA68C900
1BEC50F38EFDA300
ENDCHAR
STARTCHAR ccedilla
ENCODING 231
SWIDTH 450 0
DWIDTH 9 0
BBX 9 16 1 -5
BITMAP
0017DFEA10
01CF968A00
0BF4000000
5F70000000
AF10000000
DC00000000
FA00000000
FB00000000
CE10000000
5FD7699000
05CFEC5000
003C000000
00AD300000
001BB00000
012C900000
0DE9100000
ENDCHAR
STARTCHAR egrave
ENCODING 232
SWIDTH 493 0
DWIDTH 10 0
BBX 9 15 1 0
BITMAP
0006F60000
0000BC0000
00001D6000
0000000000
0018DEC400
01DF87DE10
0BF3006F30
4F80009F10
AF214AF800
DFFFFD6000
FC54200000
FA00000000
CE10001000
5FD769E000
05CFEB6000
ENDCHAR
STARTCHAR eacute
ENCODING 233
SWIDTH 493 0
DWIDTH 10 0
BBX 9 15 1 0
BITMAP
0000006F80
000003F800
00002D6000
0000000000
0018DEC400
01DF87DE10
0BF3006F30
4F80009F10
AF214AF800
DFFFFD6000
FC54200000
FA00000000
CE10001000
5FD769E000
05CFEB6000
ENDCHAR
STARTCHAR ecircumflex
ENCODING 234
SWIDTH 493 0
DWIDTH 10 0
BBX 9 15 1 0
BITMAP
00003EE100
0003EAE900
004D503E40
0000000000
0018DEC400
01DF87DE10
0BF3006F30
4F80009F10
AF214AF800
DFFFFD6000
FC54200000
FA00000000
CE10001000
5FD769E000
05CFEB6000
ENDCHAR
STARTCHAR edieresis
ENCODING 235
SWIDTH 493 0
DWIDTH 10 0
BBX 9 15 1 0
BITMAP
000B903E30
000C804E20
0000000000
0000000000
0018DEC400
01DF87DE10
0BF3006F30
4F80009F10
AF214AF800
DFFFFD6000
FC54200000
FA00000000
CE10001000
5FD769E000
05CFEB6000
ENDCHAR
STARTCHAR igrave
ENCODING 236
SWIDTH 253 0
DWIDTH 5 0
BBX 5 15 0 0
BITMAP
03F900
008E10
000A90
000000
004F60
007F30
00AE00
00DC00
01F800
04F500
07F200
0AE000
0EB000
2F8000
5F5000
ENDCHAR
STARTCHAR iacute
ENCODING 237
SWIDTH 253 0
DWIDTH 5 0
BBX 8 15 0 0
BITMAP
00001DD1
0000BD20
0008B100
00000000
004F6000
007F3000
00AE0000
00DC0000
01F80000
04F50000
07F20000
0AE00000
0EB00000
2F800000
5F500000
ENDCHAR
STARTCHAR icircumflex
ENCODING 238
SWIDTH 253 0
DWIDTH 5 0
BBX 7 15 0 0
BITMAP
000AF800
00AEAE20
0BA109B0
00000000
004F6000
007F3000
00AE0000
00DC0000
01F80000
04F50000
07F20000
0AE00000
0EB00000
2F800000
5F500000
ENDCHAR
STARTCHAR idieresis
ENCODING 239
SWIDTH 253 0
DWIDTH 5 0
BBX 7 15 0 0
BITMAP
03E309B0
04E20A90
00000000
00000000
004F6000
007F3000
00AE0000
00DC0000
01F80000
04F50000
07F20000
0AE00000
0EB00000
2F800000
5F500000
ENDCHAR
STARTCHAR eth
ENCODING 240
SWIDTH 568 0
DWIDTH 11 0
BBX 11 15 0 0
BITMAP
000005B217A0
000003DEEB40
000018EEE100
00007A31E900
000000007E00
0004BEE94F30
006FC77DCF50
03FA0001EF50
0AF10000AF40
0EB00000AF20
1F900000CD00
1F900003F800
0DD0001CE100
06FB67DF4000
006DFDA30000
ENDCHAR
STARTCHAR ntilde
ENCODING 241
SWIDTH 577 0
DWIDTH 12 0
BBX 11 15 0 0
BITMAP
00004EC205A0
0000E8BE7D40
0004B008E900
000000000000
004F33BED600
007F5E86CF30
00AFD2004F50
00DF40005F40
01FC00008F20
04F60000BE00
07F20000EB00
0AE00002F800
0EB00005F500
2F800008F100
5F50000CD000
ENDCHAR
STARTCHAR ograve
ENCODING 242
SWIDTH 561 0
DWIDTH 11 0
BBX 10 15 1 0
BITMAP
0003F90000
00008E1000
00000A9000
0000000000
0019DFD600
02DE86BF70
0CE2000CE1
5F600007F3
AF000007F4
EC000008F2
FA00000CE0
FB00002F90
CE1000BE20
4FD77CF500
04CEEA3000
ENDCHAR
STARTCHAR oacute
ENCODING 243
SWIDTH 561 0
DWIDTH 11 0
BBX 10 15 1 0
BITMAP
0000005F90
000003E900
00001D7000
0000000000
0019DFD600
02DE86BF70
0CE2000CE1
5F600007F3
AF000007F4
EC000008F2
FA00000CE0
FB00002F90
CE1000BE20
4FD77CF500
04CEEA3000
ENDCHAR
STARTCHAR ocircumflex
ENCODING 244
SWIDTH 561 0
DWIDTH 11 0
BBX 10 15 1 0
BITMAP
00001CF500
0001CCBD10
002D801B80
0000000000
0019DFD600
02DE86BF70
0CE2000CE1
5F600007F3
AF000007F4
EC000008F2
FA00000CE0
FB00002F90
CE1000BE20
4FD77CF500
04CEEA3000
ENDCHAR
STARTCHAR otilde
ENCODING 245
SWIDTH 561 0
DWIDTH 11 0
BBX 10 15 1 0
BITMAP
0008EA1096
003E7DD7E1
008701BE50
0000000000
0019DFD600
02DE86BF70
0CE2000CE1
5F600007F3
AF000007F4
EC000008F2
FA00000CE0
FB00002F90
CE1000BE20
4FD77CF500
04CEEA3000
ENDCHAR
STARTCHAR odieresis
ENCODING 246
SWIDTH 561 0
DWIDTH 11 0
BBX 10 15 1 0
BITMAP
0008C01D60
0009B01E40
0000000000
0000000000
0019DFD600
02DE86BF70
0CE2000CE1
5F600007F3
AF000007F4
EC000008F2
FA00000CE0
FB00002F90
CE1000BE20
4FD77CF500
04CEEA3000
ENDCHAR
STARTCHAR divide
ENCODING 247
SWIDTH 550 0
DWIDTH 11 0
BBX 10 10 1 2
BITMAP
0003E80000
0004FB0000
0000420000
0000000000
CFFFFFFFF3
4666666661
0000000000
0000420000
0004FB0000
0003E80000
ENDCHAR
STARTCHAR oslash
ENCODING 248
SWIDTH 561 0
DWIDTH 11 0
BBX 11 13 0 -1
BITMAP
000000000850
00019DEC8F50
002DE86BFB00
00CE200BFF10
05F5008E8F30
0AE005F46F20
0DB03E707F10
0E91DA00BC00
0EABC102F800
0BFE200BE100
07FD66CF4000
2EABEEA30000
1A1000000000
ENDCHAR
STARTCHAR ugrave
ENCODING 249
SWIDTH 577 0
DWIDTH 12 0
BBX 10 15 1 0
BITMAP
0003F90000
00008E2000
00000AA000
0000000000
05F40000CC
09F10000F9
0CD00003F6
0FA00006F3
3F70000AF0
7F30000EC0
AF00004F90
CD0000BF60
DC0008EF30
AF86BB9E00
1BED80AB00
ENDCHAR
STARTCHAR uacute
ENCODING 250
SWIDTH 577 0
DWIDTH 12 0
BBX 10 15 1 0
BITMAP
0000001DE2
000000AD20
000008C200
0000000000
05F40000CC
09F10000F9
0CD00003F6
0FA00006F3
3F70000AF0
7F30000EC0
AF00004F90
CD0000BF60
DC0008EF30
AF86BB9E00
1BED80AB00
ENDCHAR
STARTCHAR ucircumflex
ENCODING 251
SWIDTH 577 0
DWIDTH 12 0
BBX 10 15 1 0
BITMAP
000009F900
00009E9F30
000AB208C0
0000000000
05F40000CC
09F10000F9
0CD00003F6
0FA00006F3
3F70000AF0
7F30000EC0
AF00004F90
CD0000BF60
DC0008EF30
AF86BB9E00
1BED80AB00
ENDCHAR
STARTCHAR udieresis
ENCODING 252
SWIDTH 577 0
DWIDTH 12 0
BBX 10 15 1 0
BITMAP
0005E20B90
0005D10C80
0000000000
0000000000
05F40000CC
09F10000F9
0CD00003F6
0FA00006F3
3F70000AF0
7F30000EC0
AF00004F90
CD0000BF60
DC0008EF30
AF86BB9E00
1BED80AB00
ENDCHAR
STARTCHAR yacute
ENCODING 253
SWIDTH 461 0
DWIDTH 9 0
BBX 12 20 -2 -5
BITMAP
000000003FA0
00000002DA00
0000000C8000
000000000000
000FA00000CD
000DC00005F6
000AE0000DD0
0008F1006F50
0006F300DC00
0004F506F400
0002F60DB000
0000E86F3000
0000C9DB0000
0000ADF30000
00008FA00000
00009F200000
0002F9000000
000BE1000000
66BF60000000
CEC500000000
ENDCHAR
STARTCHAR thorn
ENCODING 254
SWIDTH 577 0
DWIDTH 12 0
BBX 12 20 -1 -5
BITMAP
00005F500000
00008F100000
0000BD000000
0000EA000000
0002F63BEC40
0005F7E86DE1
0009FD2005F6
000CF40002F8
000FB00003F7
003F600005F6
006F300009F2
009F20001EC0
00DF5000AF40
01FAE76CF800
04F45DEC5000
07F100000000
0AD000000000
0DA000000000
2F7000000000
5F5000000000
ENDCHAR
STARTCHAR ydieresis
ENCODING 255
SWIDTH 461 0
DWIDTH 9 0
BBX 12 20 -2 -5
BITMAP
000007D01D70
000008B01E50
000000000000
000000000000
000FA00000CD
000DC00005F6
000AE0000DD0
0008F1006F50
0006F300DC00
0004F506F400
0002F60DB000
0000E86F3000
0000C9DB0000
0000ADF30000
00008FA00000
00009F200000
0002F9000000
000BE1000000
66BF60000000
CEC500000000
ENDCHAR
STARTCHAR Amacron
ENCODING 256
SWIDTH 555 0
DWIDTH 11 0
BBX 12 17 -1 0
BITMAP
000000566663
000000EFFFF5
000000000000
00000009F600
0000003FF800
000000BCCA00
000004F5BC00
00000DC0AE00
00006F408F10
0001EB006F30
0008F3004F50
002EFFFFFF70
00AF88888F90
03F900000EB0
0BE100000CD0
5F8000000AE0
DE10000008F1
ENDCHAR
STARTCHAR amacron
ENCODING 257
SWIDTH 564 0
DWIDTH 11 0
BBX 10 14 1 0
BITMAP
0002666650
0009FFFFB0
0000000000
0018DEA17D
01DF96BBC9
0BF4000DF6
4F90000AF3
9F20000BF0
DD00000EC0
FB00004F90
FA0000CF60
EC0008EF30
8FA6BC8E00
19EE819B00
ENDCHAR
STARTCHAR Abreve
ENCODING 258
SWIDTH 555 0
DWIDTH 11 0
BBX 12 18 -1 0
BITMAP
000000D30079
000000AC68E3
0000002BED50
000000000000
00000009F600
0000003FF800
000000BCCA00
000004F5BC00
00000DC0AE00
00006F408F10
0001EB006F30
0008F3004F50
002EFFFFFF70
00AF88888F90
03F900000EB0
0BE100000CD0
5F8000000AE0
DE10000008F1
ENDCHAR
STARTCHAR abreve
ENCODING 259
SWIDTH 564 0
DWIDTH 11 0
BBX 10 15 1 0
BITMAP
0005B001E2
0002F86CA0
00006EEA10
0000000000
0018DEA17D
01DF96BBC9
0BF4000DF6
4F90000AF3
9F20000BF0
DD00000EC0
FB00004F90
FA0000CF60
EC0008EF30
8FA6BC8E00
19EE819B00
ENDCHAR
STARTCHAR Aogonek
ENCODING 260
SWIDTH 555 0
DWIDTH 11 0
BBX 12 18 -1 -4
BITMAP
00000009F600
0000003FF800
000000BCCA00
000004F5BC00
00000DC0AE00
00006F408F10
0001EB006F30
0008F3004F50
002EFFFFFF70
00AF88888F90
03F900000EB0
0BE100000CD0
5F8000000AE0
DE10000008F1
000000004C30
00000002E300
00000006E210
00000002DE40
ENDCHAR
STARTCHAR aogonek
ENCODING 261
SWIDTH 564 0
DWIDTH 11 0
BBX 10 15 1 -4
BITMAP
0018DEA17D
01DF96BBC9
0BF4000DF6
4F90000AF3
9F20000BF0
DD00000EC0
FB00004F90
FA0000CF60
EC0008EF30
8FA6BC8E00
19EE819B00
000007A100
00006D0000
0000BB2000
00005EE000
ENDCHAR
STARTCHAR Cacute
ENCODING 262
SWIDTH 584 0
DWIDTH 12 0
BBX 12 18 1 0
BITMAP
000000000CE2
000000009E30
00000007C200
000000000000
000017CEED93
0004EFC98AE4
004FD3000010
01ED20000000
09F500000000
0ED000000000
4F8000000000
7F6000000000
8F4000000000
7F5000000000
5F9000000000
0EF400000000
04FFA78AD000
003AEFEC8000
ENDCHAR
STARTCHAR cacute
ENCODING 263
SWIDTH 450 0
DWIDTH 9 0
BBX 9 15 1 0
BITMAP
0000003FA0
000002DA00
00000C8000
0000000000
0017DFEA10
01CF968A00
0BF4000000
5F70000000
AF10000000
DC00000000
FA00000000
FB00000000
CE10000000
5FD7699000
05CFEC5000
ENDCHAR
STARTCHAR Ccircumflex
ENCODING 264
SWIDTH 584 0
DWIDTH 12 0
BBX 12 18 1 0
BITMAP
00000009F900
0000009E9F30
00000BB208C0
000000000000
000017CEED93
0004EFC98AE4
004FD3000010
01ED20000000
09F500000000
0ED000000000
4F8000000000
7F6000000000
8F4000000000
7F5000000000
5F9000000000
0EF400000000
04FFA78AD000
003AEFEC8000
ENDCHAR
STARTCHAR ccircumflex
ENCODING 265
SWIDTH 450 0
DWIDTH 9 0
BBX 9 15 1 0
BITMAP
00003FE100
0004EAE900
005D503E40
0000000000
0017DFEA10
01CF968A00
0BF4000000
5F70000000
AF10000000
DC00000000
FA00000000
FB00000000
CE10000000
5FD7699000
05CFEC5000
ENDCHAR
STARTCHAR Cdot
ENCODING 266
SWIDTH 584 0
DWIDTH 12 0
BBX 12 18 1 0
BITMAP
0000000AC000
0000000BB000
000000000000
000000000000
000017CEED93
0004EFC98AE4
004FD3000010
01ED20000000
09F500000000
0ED000000000
4F8000000000
7F6000000000
8F4000000000
7F5000000000
5F9000000000
0EF400000000
04FFA78AD000
003AEFEC8000
ENDCHAR
STARTCHAR cdot
ENCODING 267
SWIDTH 450 0
DWIDTH 9 0
BBX 9 15 1 0
BITMAP
00000CB000
00000D9000
0000000000
0000000000
0017DFEA10
01CF968A00
0BF4000000
5F70000000
AF10000000
DC00000000
FA00000000
FB00000000
CE10000000
5FD7699000
05CFEC5000
ENDCHAR
STARTCHAR Ccaron
ENCODING 268
SWIDTH 584 0
DWIDTH 12 0
BBX 12 18 1 0
BITMAP
000009A019C1
000001EADB10
0000006FC100
000000000000
000017CEED93
0004EFC98AE4
004FD3000010
01ED20000000
09F500000000
0ED000000000
4F8000000000
7F6000000000
8F4000000000
7F5000000000
5F9000000000
0EF400000000
04FFA78AD000
003AEFEC8000
ENDCHAR
STARTCHAR ccaron
ENCODING 269
SWIDTH 450 0
DWIDTH 9 0
BBX 9 15 1 0
BITMAP
000D602B90
0004F9E800
0000AF8000
0000000000
0017DFEA10
01CF968A00
0BF4000000
5F70000000
AF10000000
DC00000000
FA00000000
FB00000000
CE10000000
5FD7699000
05CFEC5000
ENDCHAR
STARTCHAR Dcaron
ENCODING 270
SWIDTH 666 0
DWIDTH 13 0
BBX 13 18 0 0
BITMAP
000005D206D300
000000ADAE3000
0000002FE20000
00000000000000
0004FFFFDA3000
0007F877AFF500
000AF10003EE10
000DC000007F60
002F9000003F90
005F5000001FA0
008F2000002FA0
00BE0000004F80
00EA0000009F40
03F7000002ED00
06F400000BF500
09F10003CF8000
0DE779CFE60000
1FFFFEC7200000
ENDCHAR
STARTCHAR dcaron
ENCODING 271
SWIDTH 577 0
DWIDTH 12 0
BBX 15 15 1 0
BITMAP
000000000DC09E10
000000001F92F500
000000004F6A8000
000000008F200000
0019DEB1BE000000
02DF96ACDB000000
0BF4000CF8000000
4F800009F4000000
9F20000AF1000000
DD00000DD0000000
FB00003FA0000000
FA0000BF70000000
EC0008EF30000000
8FA6BB8F00000000
19EE809C00000000
ENDCHAR
STARTCHAR Dcroat
ENCODING 272
SWIDTH 666 0
DWIDTH 13 0
BBX 13 14 0 0
BITMAP
0004FFFFDA3000
0007F877AFF500
000BF00003EE10
000EB000007F60
003F8000003F90
006F4000001FA0
1FFFFFF4002FA0
27ED7771004F80
01F90000009F40
04F6000002ED00
07F300000BF500
0AF00003CF8000
0DE779CFE60000
1FFFFEC7200000
ENDCHAR
STARTCHAR dcroat
ENCODING 273
SWIDTH 577 0
DWIDTH 12 0
BBX 12 15 1 0
BITMAP
000000000CC0
000000000F90
00000DFFFFFD
000004449F63
0019DEA1AE00
02DF86BCDB00
0BF4000CF800
4F800009F500
9F20000AF100
DD00000DD000
FB00004FA000
FA0000BF7000
EC0008FF3000
9F96BB9F0000
19EE809C0000
ENDCHAR
STARTCHAR Emacron
ENCODING 274
SWIDTH 511 0
DWIDTH 10 0
BBX 11 17 0 0
BITMAP
000005666620
00001FFFFF40
000000000000
0004FFFFFFE0
0007F9888860
000AF0000000
000DC0000000
002F80000000
005F50000000
008FFFFFF400
00BE77777100
00EB00000000
03F700000000
06F400000000
09F100000000
0DE777772000
1FFFFFFF2000
ENDCHAR
STARTCHAR emacron
ENCODING 275
SWIDTH 493 0
DWIDTH 10 0
BBX 9 14 1 0
BITMAP
0004666630
000EFFFF60
0000000000
0018DEC400
01DF87DE10
0BF3006F30
4F80009F10
AF214AF800
DFFFFD6000
FC54200000
FA00000000
CE10001000
5FD769E000
05CFEB6000
ENDCHAR
STARTCHAR Ebreve
ENCODING 276
SWIDTH 511 0
DWIDTH 10 0
BBX 11 18 0 0
BITMAP
00000B4006A0
000008D78E40
000001BED600
000000000000
0004FFFFFFE0
0007F9888860
000AF0000000
000DC0000000
002F80000000
005F50000000
008FFFFFF400
00BE77777100
00EB00000000
03F700000000
06F400000000
09F100000000
0DE777772000
1FFFFFFF2000
ENDCHAR
STARTCHAR ebreve
ENCODING 277
SWIDTH 493 0
DWIDTH 10 0
BBX 9 15 1 0
BITMAP
000C4006A0
0009C78E40
0001BED500
0000000000
0018DEC400
01DF87DE10
0BF3006F30
4F80009F10
AF214AF800
DFFFFD6000
FC54200000
FA00000000
CE10001000
5FD769E000
05CFEB6000
ENDCHAR
STARTCHAR Edotaccent
ENCODING 278
SWIDTH 511 0
DWIDTH 10 0
BBX 11 18 0 0
BITMAP
0000003E6000
0000004E4000
000000000000
000000000000
0004FFFFFFE0
0007F9888860
000AF0000000
000DC0000000
002F80000000
005F50000000
008FFFFFF400
00BE77777100
00EB00000000
03F700000000
06F400000000
09F100000000
0DE777772000
1FFFFFFF2000
ENDCHAR
STARTCHAR edotaccent
ENCODING 279
SWIDTH 493 0
DWIDTH 10 0
BBX 9 15 1 0
BITMAP
00001D8000
00002E6000
0000000000
0000000000
0018DEC400
01DF87DE10
0BF3006F30
4F80009F10
AF214AF800
DFFFFD6000
FC54200000
FA00000000
CE10001000
5FD769E000
05CFEB6000
ENDCHAR
STARTCHAR Eogonek
ENCODING 280
SWIDTH 511 0
DWIDTH 10 0
BBX 11 18 0 -4
BITMAP
0004FFFFFFE0
0007F9888860
000AF0000000
000DC0000000
002F80000000
005F50000000
008FFFFFF400
00BE77777100
00EB00000000
03F700000000
06F400000000
09F100000000
0DE777772000
1FFFFFFF2000
000006B20000
00005E100000
00009C200000
00004EE20000
ENDCHAR
STARTCHAR eogonek
ENCODING 281
SWIDTH 493 0
DWIDTH 10 0
BBX 9 15 1 -4
BITMAP
0018DEC400
01DF87DE10
0BF3006F30
4F80009F10
AF214AF800
DFFFFD6000
FC54200000
FA00000000
CE10001000
5FD769E000
05CFEB6000
0001A70000
000B800000
001F720000
0009FA0000
ENDCHAR
STARTCHAR Ecaron
ENCODING 282
SWIDTH 511 0
DWIDTH 10 0
BBX 11 18 0 0
BITMAP
00000C802BA0
000003F9E900
0000009F9000
000000000000
0004FFFFFFE0
0007F9888860
000AF0000000
000DC0000000
002F80000000
005F50000000
008FFFFFF400
00BE77777100
00EB00000000
03F700000000
06F400000000
09F100000000
0DE777772000
1FFFFFFF2000
ENDCHAR
STARTCHAR ecaron
ENCODING 283
SWIDTH 493 0
DWIDTH 10 0
BBX 9 15 1 0
BITMAP
000C702BA0
0003F9E800
0000AF9000
0000000000
0018DEC400
01DF87DE10
0BF3006F30
4F80009F10
AF214AF800
DFFFFD6000
FC54200000
FA00000000
CE10001000
5FD769E000
05CFEB6000
ENDCHAR
STARTCHAR Gcircumflex
ENCODING 284
SWIDTH 676 0
DWIDTH 14 0
BBX 13 18 1 0
BITMAP
0000000AF70000
000000ADAE2000
00000BA109B000
00000000000000
000017CEEDB610
0004EFC98AEE10
005FD300000200
01ED2000000000
09F50000000000
0ED00000000000
4F800000000000
6F60001FFFF600
7F4000277CF200
7F5000000BE000
5F9000000FA000
1EF500004F6000
04EFB879DF3000
0029DFEDA70000
ENDCHAR
STARTCHAR gcircumflex
ENCODING 285
SWIDTH 500 0
DWIDTH 10 0
BBX 13 20 -2 -5
BITMAP
00000005FD0000
0000005F9E7000
000006D404E200
00000000000000
000007DFFFFF90
00009F847FA210
0003F8000CC000
0007F2000DC000
0007F2002F9000
0003FA34DE2000
00008FFEA20000
0005D200000000
000E8000000000
000DD753000000
001AFFFFD50000
05E71136DF1000
1E8000006F3000
3F700000BF1000
0DE7457CF60000
029DFFDA300000
ENDCHAR
STARTCHAR Gbreve
ENCODING 286
SWIDTH 676 0
DWIDTH 14 0
BBX 13 18 1 0
BITMAP
0000088002E000
000005E77D7000
0000009EE80000
00000000000000
000017CEEDB610
0004EFC98AEE10
005FD300000200
01ED2000000000
09F50000000000
0ED00000000000
4F800000000000
6F60001FFFF600
7F4000277CF200
7F5000000BE000
5F9000000FA000
1EF500004F6000
04EFB879DF3000
0029DFEDA70000
ENDCHAR
STARTCHAR gbreve
ENCODING 287
SWIDTH 500 0
DWIDTH 10 0
BBX 13 20 -2 -5
BITMAP
000000F000A600
000000DB69E100
0000003CEC3000
00000000000000
000007DFFFFF90
00009F847FA210
0003F8000CC000
0007F2000DC000
0007F2002F9000
0003FA34DE2000
00008FFEA20000
0005D200000000
000E8000000000
000DD753000000
001AFFFFD50000
05E71136DF1000
1E8000006F3000
3F700000BF1000
0DE7457CF60000
029DFFDA300000
ENDCHAR
STARTCHAR Gdot
ENCODING 288
SWIDTH 676 0
DWIDTH 14 0
BBX 13 18 1 0
BITMAP
00000008E10000
00000009C00000
00000000000000
00000000000000
000017CEEDB610
0004EFC98AEE10
005FD300000200
01ED2000000000
09F50000000000
0ED00000000000
4F800000000000
6F60001FFFF600
7F4000277CF200
7F5000000BE000
5F9000000FA000
1EF500004F6000
04EFB879DF3000
0029DFEDA70000
ENDCHAR
STARTCHAR gdot
ENCODING 289
SWIDTH 500 0
DWIDTH 10 0
BBX 13 20 -2 -5
BITMAP
00000000BB0000
00000000CA0000
00000000000000
00000000000000
000007DFFFFF90
00009F847FA210
0003F8000CC000
0007F2000DC000
0007F2002F9000
0003FA34DE2000
00008FFEA20000
0005D200000000
000E8000000000
000DD753000000
001AFFFFD50000
05E71136DF1000
1E8000006F3000
3F700000BF1000
0DE7457CF60000
029DFFDA300000
ENDCHAR
STARTCHAR Gcommaaccent
ENCODING 290
SWIDTH 676 0
DWIDTH 14 0
BBX 13 18 1 -4
BITMAP
000017CEEDB610
0004EFC98AEE10
005FD300000200
01ED2000000000
09F50000000000
0ED00000000000
4F800000000000
6F60001FFFF600
7F4000277CF200
7F5000000BE000
5F9000000FA000
1EF500004F6000
04EFB879DF3000
0029DFEDA70000
00000000000000
00005F40000000
0000CA00000000
0005C100000000
ENDCHAR
STARTCHAR gcommaaccent
ENCODING 291
SWIDTH 500 0
DWIDTH 10 0
BBX 13 20 -2 -5
BITMAP
0000000005D000
000000002E5000
00000000BD0000
00000000000000
000007DFFFFF90
00009F847FA210
0003F8000CC000
0007F2000DC000
0007F2002F9000
0003FA34DE2000
00008FFEA20000
0005D200000000
000E8000000000
000DD753000000
001AFFFFD50000
05E71136DF1000
1E8000006F3000
3F700000BF1000
0DE7457CF60000
029DFFDA300000
ENDCHAR
STARTCHAR Hcircumflex
ENCODING 292
SWIDTH 678 0
DWIDTH 14 0
BBX 14 18 0 0
BITMAP
00000001CF5000
0000001CCBD000
000002D801C800
00000000000000
0004F6000002F8
0007F3000005F4
000AE0000008F1
000DC000000CD0
002F8000000FA0
005F5000003F60
008FFFFFFFFF30
00BE777777DF00
00EB000000DC00
03F7000001F900
06F4000004F500
09F1000008F200
0DC000000BE000
1F9000000EB000
ENDCHAR
STARTCHAR hcircumflex
ENCODING 293
SWIDTH 577 0
DWIDTH 12 0
BBX 11 19 0 0
BITMAP
0000003EF200
000003EADA00
00004D602D50
000000000000
0005F5000000
0008F1000000
000BD0000000
000EA0000000
003F63BED600
006F6E86CF20
009FD2005F50
00CF40005F50
01FC00008F20
04F60000BE00
07F30000EB00
0AE00002F800
0DB00005F500
2F800008F100
5F50000CD000
ENDCHAR
STARTCHAR Hbar
ENCODING 294
SWIDTH 678 0
DWIDTH 14 0
BBX 15 14 0 0
BITMAP
0004F6000002F800
0008F2000006F400
09FFFFFFFFFFFFD0
046FC666666ED640
003F8000001F9000
006F5000003F6000
009FFFFFFFFF3000
00CE777777DF0000
01FB000000DC0000
03F7000001F90000
07F4000004F50000
0AF1000008F20000
0DC000000BE00000
1F9000000EB00000
ENDCHAR
STARTCHAR hbar
ENCODING 295
SWIDTH 577 0
DWIDTH 12 0
BBX 11 15 0 0
BITMAP
0004F5000000
0007F2000000
02FFFFFF5000
014EB4441000
002F64BED500
005F7E86DF20
008FD2005F50
00CF40005F40
00FB00008F20
03F60000BE00
06F20000EB00
0AE00002F800
0DB00005F400
1F800008F100
5F50000CD000
ENDCHAR
STARTCHAR Itilde
ENCODING 296
SWIDTH 272 0
DWIDTH 5 0
BBX 9 18 0 0
BITMAP
006EB10870
01E7CD7E20
069019E700
0000000000
0004F60000
0007F30000
000AE00000
000DB00000
001F800000
005F500000
008F200000
00BD000000
00EA000000
03F7000000
06F4000000
09F1000000
0DC0000000
1F90000000
ENDCHAR
STARTCHAR itilde
ENCODING 297
SWIDTH 253 0
DWIDTH 5 0
BBX 8 15 0 0
BITMAP
04EC205A
0E8BE7D4
4B008E90
00000000
004F6000
007F3000
00AE0000
00DC0000
01F80000
04F50000
07F20000
0AE00000
0EB00000
2F800000
5F500000
ENDCHAR
STARTCHAR Imacron
ENCODING 298
SWIDTH 272 0
DWIDTH 5 0
BBX 8 17 0 0
BITMAP
00366664
00BFFFF9
00000000
0004F600
0007F300
000AE000
000DB000
001F8000
005F5000
008F2000
00BD0000
00EA0000
03F70000
06F40000
09F10000
0DC00000
1F900000
ENDCHAR
STARTCHAR imacron
ENCODING 299
SWIDTH 253 0
DWIDTH 5 0
BBX 7 14 0 0
BITMAP
03666650
0AFFFFA0
00000000
004F6000
007F3000
00AE0000
00DC0000
01F80000
04F50000
07F20000
0AE00000
0EB00000
2F800000
5F500000
ENDCHAR
STARTCHAR Ibreve
ENCODING 300
SWIDTH 272 0
DWIDTH 5 0
BBX 8 18 0 0
BITMAP
0079002E
004E87D8
0008EE90
00000000
0004F600
0007F300
000AE000
000DB000
001F8000
005F5000
008F2000
00BD0000
00EA0000
03F70000
06F40000
09F10000
0DC00000
1F900000
ENDCHAR
STARTCHAR ibreve
ENCODING 301
SWIDTH 253 0
DWIDTH 5 0
BBX 7 15 0 0
BITMAP
078002E0
05E77D80
008EE800
00000000
004F6000
007F3000
00AE0000
00DC0000
01F80000
04F50000
07F20000
0AE00000
0EB00000
2F800000
5F500000
ENDCHAR
STARTCHAR Iogonek
ENCODING 302
SWIDTH 272 0
DWIDTH 5 0
BBX 7 18 -1 -4
BITMAP
00004F60
00007F30
0000AE00
0000DB00
0001F800
0005F500
0008F200
000BD000
000EA000
003F7000
006F4000
009F1000
00DC0000
01F90000
06B10000
6D100000
AB200000
5EE10000
ENDCHAR
STARTCHAR iogonek
ENCODING 303
SWIDTH 253 0
DWIDTH 5 0
BBX 7 19 -1 -4
BITMAP
00006E20
00008F20
00000100
00000000
0004F600
0007F300
000AE000
000DC000
001F8000
004F5000
007F2000
00AE0000
00EB0000
02F80000
05F50000
19800000
AA000000
E8200000
8EB00000
ENDCHAR
STARTCHAR Idotaccent
ENCODING 304
SWIDTH 272 0
DWIDTH 5 0
BBX 7 18 0 0
BITMAP
00008E10
00009C00
00000000
00000000
0004F600
0007F300
000AE000
000DB000
001F8000
005F5000
008F2000
00BD0000
00EA0000
03F70000
06F40000
09F10000
0DC00000
1F900000
ENDCHAR
STARTCHAR dotlessi
ENCODING 305
SWIDTH 253 0
DWIDTH 5 0
BBX 5 11 0 0
BITMAP
004F60
007F30
00AE00
00DC00
01F800
04F500
07F200
0AE000
0EB000
2F8000
5F5000
ENDCHAR
STARTCHAR IJ
ENCODING 306
SWIDTH 540 0
DWIDTH 11 0
BBX 11 18 0 -4
BITMAP
0004F6000CD0
0007F3000FA0
000AE0003F70
000DB0007F30
001F8000AF10
005F5000DC00
008F2001F900
00BD0004F600
00EA0007F300
03F7000BE000
06F4000EB000
09F1002F8000
0DC0005F5000
1F90008F2000
000000CD0000
000004F80000
00689FD10000
008FEA200000
ENDCHAR
STARTCHAR ij
ENCODING 307
SWIDTH 507 0
DWIDTH 10 0
BBX 11 20 0 -5
BITMAP
0006E2005E30
0008F2007F30
000010000100
000000000000
004F6002F700
007F3006F400
00AE0009F100
00DC000CD000
01F8000FA000
04F5003F7000
07F2006F3000
0AE0009F1000
0EB000CC0000
2F8001F90000
5F5003F60000
000006F30000
00000AF00000
00001EB00000
0046BF400000
005ED6000000
ENDCHAR
STARTCHAR Jcircumflex
ENCODING 308
SWIDTH 267 0
DWIDTH 5 0
BBX 12 22 -4 -4
BITMAP
00000001CF60
0000001BDBD1
000001C910B9
000000000000
00000004F600
00000007F300
0000000AF000
0000000DC000
0000001F9000
0000005F5000
0000008F2000
000000BE0000
000000EB0000
000002F80000
000006F50000
000009F10000
00000CD00000
00000FA00000
00004F600000
0000BF200000
198CF8000000
1EFC60000000
ENDCHAR
STARTCHAR jcircumflex
ENCODING 309
SWIDTH 253 0
DWIDTH 5 0
BBX 10 20 -3 -5
BITMAP
000000BF70
00001BDAE1
0001C910AA
0000000000
000004F600
000007F300
00000AE000
00000DC000
00001F8000
00004F5000
00007F2000
0000AE0000
0000DB0000
0001F80000
0005F50000
0008F20000
000BE00000
001EA00000
46BF300000
7ED5000000
ENDCHAR
STARTCHAR Kcommaaccent
ENCODING 310
SWIDTH 557 0
DWIDTH 11 0
BBX 13 18 0 -4
BITMAP
0004F600009F60
0007F30009F600
000AE0009F6000
000DB009F50000
002F80AF500000
005F5AF5000000
008FBFD0000000
00BFB8F4000000
00EB01EB000000
03F7009F200000
06F4003F900000
09F1000CE10000
0DC00005F70000
1F900000ED0000
00000000000000
0000DB00000000
0005E200000000
000D5000000000
ENDCHAR
STARTCHAR kcommaaccent
ENCODING 311
SWIDTH 487 0
DWIDTH 10 0
BBX 11 19 0 -4
BITMAP
0005F5000000
0008F2000000
000BD0000000
000EA0000000
003F6003EC10
006F302EC100
009E02DC1000
00CB2DC10000
01F8DE100000
04FEEF200000
07F93F900000
0AE00BE10000
0EB004F70000
2F8000DE0000
5F50006F6000
000000000000
0009E1000000
001F60000000
009900000000
ENDCHAR
STARTCHAR kgreenlandic
ENCODING 312
SWIDTH 487 0
DWIDTH 10 0
BBX 11 11 0 0
BITMAP
004F6003EC10
007F202EC100
00AE02DC1000
00DB2DC10000
01F8DE100000
05FEEF200000
08F93F900000
0BE00BE10000
0EB004F70000
2F8000DE0000
5F50006F6000
ENDCHAR
STARTCHAR Lacute
ENCODING 313
SWIDTH 474 0
DWIDTH 9 0
BBX 9 18 0 0
BITMAP
000000CE20
000009E300
00007C2000
0000000000
0004F60000
0007F30000
000AE00000
000DB00000
002F800000
005F500000
008F200000
00BE000000
00EA000000
03F7000000
06F4000000
09F1000000
0DE8888820
1FFFFFFF20
ENDCHAR
STARTCHAR lacute
ENCODING 314
SWIDTH 253 0
DWIDTH 5 0
BBX 8 19 0 0
BITMAP
000003EB
00001DB1
0000B900
00000000
0005F500
0008F200
000BD000
000EA000
003F7000
006F4000
009F1000
00CC0000
01F90000
04F60000
07F30000
0AE00000
0EB00000
2F800000
5F500000
ENDCHAR
STARTCHAR Lcommaaccent
ENCODING 315
SWIDTH 474 0
DWIDTH 9 0
BBX 9 18 0 -4
BITMAP
0004F60000
0007F30000
000AE00000
000DB00000
002F800000
005F500000
008F200000
00BE000000
00EA000000
03F7000000
06F4000000
09F1000000
0DE8888820
1FFFFFFF20
0000000000
0000BD0000
0003F40000
000B600000
ENDCHAR
STARTCHAR lcommaaccent
ENCODING 316
SWIDTH 253 0
DWIDTH 5 0
BBX 7 19 -1 -4
BITMAP
00005F50
00008F20
0000BD00
0000EA00
0003F700
0006F400
0009F100
000CC000
001F9000
004F6000
007F3000
00AE0000
00EB0000
02F80000
05F50000
00000000
0BD00000
3F400000
B6000000
ENDCHAR
STARTCHAR Lcaron
ENCODING 317
SWIDTH 474 0
DWIDTH 9 0
BBX 11 14 0 0
BITMAP
0004F6006F30
0007F300D800
000AE007B000
000DB0000000
002F80000000
005F50000000
008F20000000
00BE00000000
00EA00000000
03F700000000
06F400000000
09F100000000
0DE888882000
1FFFFFFF2000
ENDCHAR
STARTCHAR lcaron
ENCODING 318
SWIDTH 253 0
DWIDTH 5 0
BBX 9 15 0 0
BITMAP
0005F52F80
0008F29C00
000BD2D200
000EA00000
003F700000
006F400000
009F100000
00CC000000
01F9000000
04F6000000
07F3000000
0AE0000000
0EB0000000
2F80000000
5F50000000
ENDCHAR
STARTCHAR Ldot
ENCODING 319
SWIDTH 474 0
DWIDTH 9 0
BBX 9 14 0 0
BITMAP
0004F60000
0007F30000
000AE00000
000DB00000
002F800000
005F500000
008F202D70
00BE002E60
00EA000000
03F7000000
06F4000000
09F1000000
0DE8888820
1FFFFFFF20
ENDCHAR
STARTCHAR ldot
ENCODING 320
SWIDTH 283 0
DWIDTH 6 0
BBX 7 15 0 0
BITMAP
0005F500
0008F200
000BD000
000EA000
003F7000
006F4000
009F1D90
00CC1D80
01F90000
04F60000
07F30000
0AE00000
0EB00000
2F800000
5F500000
ENDCHAR
STARTCHAR Lslash
ENCODING 321
SWIDTH 474 0
DWIDTH 9 0
BBX 9 14 0 0
BITMAP
0004F60000
0007F30000
000AE00000
000EB00000
002F800000
005F569000
008FDE7000
01CFA20000
5DFB000000
7BF7000000
06F4000000
09F1000000
0DE8888820
1FFFFFFF20
ENDCHAR
STARTCHAR lslash
ENCODING 322
SWIDTH 250 0
DWIDTH 5 0
BBX 6 15 0 0
BITMAP
0005F4
0008F1
000CD0
000FA0
003F70
006F40
00AFA7
00DFB2
4DF900
9AF500
07F200
0BE000
0EB000
2F7000
6F4000
ENDCHAR
STARTCHAR Nacute
ENCODING 323
SWIDTH 702 0
DWIDTH 14 0
BBX 15 18 0 0
BITMAP
0000000001DD1000
000000000BD20000
000000009B100000
0000000000000000
0004FC0000008F10
0007FF300000CC00
000ADF800000F900
000E9AE00003F600
002F64F50007F300
005F30DB000AE000
008F108F100DB000
00CC002F701F8000
00F9000BD04F5000
03F60006F48F1000
06F20001E9AD0000
0AE000009EDA0000
0DB000003FF70000
1F8000000DF30000
ENDCHAR
STARTCHAR nacute
ENCODING 324
SWIDTH 577 0
DWIDTH 12 0
BBX 11 15 0 0
BITMAP
00000000CE30
00000009E300
0000006C2000
000000000000
004F33BED600
007F5E86CF30
00AFD2004F50
00DF40005F40
01FC00008F20
04F60000BE00
07F20000EB00
0AE00002F800
0EB00005F500
2F800008F100
5F50000CD000
ENDCHAR
STARTCHAR Ncommaaccent
ENCODING 325
SWIDTH 702 0
DWIDTH 14 0
BBX 15 18 0 -4
BITMAP
0004FC0000008F10
0007FF300000CC00
000ADF800000F900
000E9AE00003F600
002F64F50007F300
005F30DB000AE000
008F108F100DB000
00CC002F701F8000
00F9000BD04F5000
03F60006F48F1000
06F20001E9AD0000
0AE000009EDA0000
0DB000003FF70000
1F8000000DF30000
0000000000000000
00002F8000000000
00008D1000000000
0002D30000000000
ENDCHAR
STARTCHAR ncommaaccent
ENCODING 326
SWIDTH 577 0
DWIDTH 12 0
BBX 11 15 0 -4
BITMAP
004F33BED600
007F5E86CF30
00AFD2004F50
00DF40005F40
01FC00008F20
04F60000BE00
07F20000EB00
0AE00002F800
0EB00005F500
2F800008F100
5F50000CD000
000000000000
0007F3000000
000D80000000
007B00000000
ENDCHAR
STARTCHAR Ncaron
ENCODING 327
SWIDTH 702 0
DWIDTH 14 0
BBX 15 18 0 0
BITMAP
0000007C107D2000
0000000CBCD20000
00000004FD100000
0000000000000000
0004FC0000008F10
0007FF300000CC00
000ADF800000F900
000E9AE00003F600
002F64F50007F300
005F30DB000AE000
008F108F100DB000
00CC002F701F8000
00F9000BD04F5000
03F60006F48F1000
06F20001E9AD0000
0AE000009EDA0000
0DB000003FF70000
1F8000000DF30000
ENDCHAR
STARTCHAR ncaron
ENCODING 328
SWIDTH 577 0
DWIDTH 12 0
BBX 11 15 0 0
BITMAP
00005D206D40
00000ADAE300
000002FE3000
000000000000
004F33BED600
007F5E86CF30
00AFD2004F50
00DF40005F40
01FC00008F20
04F60000BE00
07F20000EB00
0AE00002F800
0EB00005F500
2F800008F100
5F50000CD000
ENDCHAR
STARTCHAR napostrophe
ENCODING 329
SWIDTH 645 0
DWIDTH 13 0
BBX 11 14 1 0
BITMAP
04FA00000000
0AF300000000
1FA000000000
7E2D819EEA10
D71F7CA69F80
005FE6000EB0
008FA0000EA0
00BF20002F70
00EC00005F40
02F800009F10
05F50000CD00
08F20000FA00
0BD00003F700
0EA00006F400
ENDCHAR
STARTCHAR Eng
ENCODING 330
SWIDTH 702 0
DWIDTH 14 0
BBX 15 18 0 -4
BITMAP
0004FC0000009F10
0007FF300000CC00
000ACF900001F900
000E9AE00004F600
002F64F50007F300
005F30DB000AE000
008F108F200DC000
00CC002F702F8000
00F9000BD05F5000
03F60005F48F2000
06F20001E9AE0000
0AE000009EDB0000
0DB000003FF70000
1F8000000CF40000
000000000AF10000
000000002EB00000
00000489EE200000
000006EEB3000000
ENDCHAR
STARTCHAR eng
ENCODING 331
SWIDTH 577 0
DWIDTH 12 0
BBX 11 16 0 -5
BITMAP
004F33BED600
007F5E86DF20
00AFD2004F60
00DF40005F50
01FC00008F20
04F60000BE00
07F20000EB00
0AE00002F800
0EB00005F500
2F800008F200
5F50000BE000
0000000EA000
0000003F7000
0000007F3000
000077EC0000
0000DEB20000
ENDCHAR
STARTCHAR Omacron
ENCODING 332
SWIDTH 720 0
DWIDTH 14 0
BBX 13 17 1 0
BITMAP
00000366664000
00000AFFFFA000
00000000000000
00003ADFEB4000
0007FEA89EF600
007FA10002DF20
03FB0000006F80
0AF30000002FB0
1FB00000000FB0
4F700000002FA0
6F500000004F90
8F400000008F50
7F60000000DF10
4F90000008F800
0DF400007FD100
04EFA79DFC1000
0029DFEC600000
ENDCHAR
STARTCHAR omacron
ENCODING 333
SWIDTH 561 0
DWIDTH 11 0
BBX 10 14 1 0
BITMAP
0004666630
000EFFFF60
0000000000
0019DFD600
02DE86BF70
0CE2000CE1
5F600007F3
AF000007F4
EC000008F2
FA00000CE0
FB00002F90
CE1000BE20
4FD77CF500
04CEEA3000
ENDCHAR
STARTCHAR Obreve
ENCODING 334
SWIDTH 720 0
DWIDTH 14 0
BBX 13 18 1 0
BITMAP
00000B5005B000
000008D78E5000
000001AED60000
00000000000000
00003ADFEB4000
0007FEA89EF600
007FA10002DF20
03FB0000006F80
0AF30000002FB0
1FB00000000FB0
4F700000002FA0
6F500000004F90
8F400000008F50
7F60000000DF10
4F90000008F800
0DF400007FD100
04EFA79DFC1000
0029DFEC600000
ENDCHAR
STARTCHAR obreve
ENCODING 335
SWIDTH 561 0
DWIDTH 11 0
BBX 10 15 1 0
BITMAP
000C4006A0
0009C78E40
0001BED500
0000000000
0019DFD600
02DE86BF70
0CE2000CE1
5F600007F3
AF000007F4
EC000008F2
FA00000CE0
FB00002F90
CE1000BE20
4FD77CF500
04CEEA3000
ENDCHAR
STARTCHAR Ohungarumlaut
ENCODING 336
SWIDTH 720 0
DWIDTH 14 0
BBX 13 18 1 0
BITMAP
00000006F62EB0
0000003E60CB00
000001C50A9000
00000000000000
00003ADFEB4000
0007FEA89EF600
007FA10002DF20
03FB0000006F80
0AF30000002FB0
1FB00000000FB0
4F700000002FA0
6F500000004F90
8F400000008F50
7F60000000DF10
4F90000008F800
0DF400007FD100
04EFA79DFC1000
0029DFEC600000
ENDCHAR
STARTCHAR ohungarumlaut
ENCODING 337
SWIDTH 561 0
DWIDTH 11 0
BBX 11 15 1 0
BITMAP
00002EB0AE20
0000CB07E300
000A905C2000
000000000000
0019DFD60000
02DE86BF7000
0CE2000CE100
5F600007F300
AF000007F400
EC000008F200
FA00000CE000
FB00002F9000
CE1000BE2000
4FD77CF50000
04CEEA300000
ENDCHAR
STARTCHAR OE
ENCODING 338
SWIDTH 854 0
DWIDTH 17 0
BBX 17 14 1 0
BITMAP
00003ADFFFFFFFFFC0
0007FEA88DF8888850
007FA1000CD0000000
03FB00000FA0000000
0AF300003F60000000
1FB000007F30000000
4F700000AFFFFFF200
6F500000ED77777000
8F400002F900000000
7F600005F500000000
4F900009F200000000
0DF4000CE000000000
04EFA79FD777771000
0029DFFFFFFFFF0000
ENDCHAR
STARTCHAR oe
ENCODING 339
SWIDTH 863 0
DWIDTH 17 0
BBX 16 11 1 0
BITMAP
0018DFD7005CFE90
02DE86AF77FB69F7
0CE2000BFF8000FA
5F600006FD0003F8
AE000006F7137ED1
EB000007FFFFE920
FA00000BF6530000
FB00001FF2000000
CE1000AFF6000000
4FD77CE4DF868C60
04CFEA202AEFD920
ENDCHAR
STARTCHAR Racute
ENCODING 340
SWIDTH 568 0
DWIDTH 11 0
BBX 12 18 0 0
BITMAP
000000007F60
00000004F700
0000003D5000
000000000000
0004FFFFD810
0007F878CFB0
000AF0000BF3
000DC00006F5
002F900007F3
005F60000CE1
008F2015CF50
00BFFFFFB400
00EC66CE0000
03F8006F5000
06F4001EB000
09F1000AF200
0DD00004F700
1F900000ED00
ENDCHAR
STARTCHAR racute
ENCODING 341
SWIDTH 395 0
DWIDTH 8 0
BBX 9 15 0 0
BITMAP
0000003FB0
000001DB00
00000C9000
0000000000
004F34CE60
007F6E9820
00AFD20000
00DF400000
01FB000000
04F6000000
07F3000000
0AE0000000
0EB0000000
2F80000000
5F50000000
ENDCHAR
STARTCHAR Rcommaaccent
ENCODING 342
SWIDTH 568 0
DWIDTH 11 0
BBX 12 18 0 -4
BITMAP
0004FFFFD810
0007F878CFB0
000AF0000BF3
000DC00006F5
002F900007F3
005F60000CE1
008F2015CF50
00BFFFFFB400
00EC66CE0000
03F8006F5000
06F4001EB000
09F1000AF200
0DD00004F700
1F900000ED00
000000000000
0000BD000000
0003F4000000
000B70000000
ENDCHAR
STARTCHAR rcommaaccent
ENCODING 343
SWIDTH 395 0
DWIDTH 8 0
BBX 10 15 -1 -4
BITMAP
0004F34CE6
0007F6E982
000AFD2000
000DF40000
001FB00000
004F600000
007F300000
00AE000000
00EB000000
02F8000000
05F5000000
0000000000
0CC0000000
4F30000000
C600000000
ENDCHAR
STARTCHAR Rcaron
ENCODING 344
SWIDTH 568 0
DWIDTH 11 0
BBX 12 18 0 0
BITMAP
00000B801AB0
000002E9EA00
0000008FA000
000000000000
0004FFFFD810
0007F878CFB0
000AF0000BF3
000DC00006F5
002F900007F3
005F60000CE1
008F2015CF50
00BFFFFFB400
00EC66CE0000
03F8006F5000
06F4001EB000
09F1000AF200
0DD00004F700
1F900000ED00
ENDCHAR
STARTCHAR rcaron
ENCODING 345
SWIDTH 395 0
DWIDTH 8 0
BBX 10 15 0 0
BITMAP
0009B018C1
0001DBDC10
00005FC100
0000000000
004F34CE60
007F6E9820
00AFD20000
00DF400000
01FB000000
04F6000000
07F3000000
0AE0000000
0EB0000000
2F80000000
5F50000000
ENDCHAR
STARTCHAR Sacute
ENCODING 346
SWIDTH 501 0
DWIDTH 10 0
BBX 11 18 0 0
BITMAP
00000000CE20
00000009E300
0000007C2000
000000000000
00018DFEC710
002DFB89CF10
009F60000200
00DE00000000
00CF10000000
007FB1000000
0009FE600000
00004CFB1000
0000009F9000
0000000ED000
0000000ED000
1000007F9000
9D978CFD1000
5BEFEC710000
ENDCHAR
STARTCHAR sacute
ENCODING 347
SWIDTH 428 0
DWIDTH 9 0
BBX 9 15 0 0
BITMAP
0000005F80
000003E800
00001D7000
0000000000
004BEEC810
03FD779C00
08F2000000
08F3000000
03EE500000
003CFB1000
00008FB000
000009F200
10000AF100
D976AFA000
7CEEC70000
ENDCHAR
STARTCHAR Scircumflex
ENCODING 348
SWIDTH 501 0
DWIDTH 10 0
BBX 11 18 0 0
BITMAP
000000AF7000
00000ADAE200
0000BA109B00
000000000000
00018DFEC710
002DFB89CF10
009F60000200
00DE00000000
00CF10000000
007FB1000000
0009FE600000
00004CFB1000
0000009F9000
0000000ED000
0000000ED000
1000007F9000
9D978CFD1000
5BEFEC710000
ENDCHAR
STARTCHAR scircumflex
ENCODING 349
SWIDTH 428 0
DWIDTH 9 0
BBX 9 15 0 0
BITMAP
00004FD000
0005E9E700
006D404E20
0000000000
004BEEC810
03FD779C00
08F2000000
08F3000000
03EE500000
003CFB1000
00008FB000
000009F200
10000AF100
D976AFA000
7CEEC70000
ENDCHAR
STARTCHAR Scedilla
ENCODING 350
SWIDTH 501 0
DWIDTH 10 0
BBX 11 19 0 -5
BITMAP
00018DFEC710
002DFB89CF10
009F60000200
00DE00000000
00CF10000000
007FB1000000
0009FE600000
00004CFB1000
0000009F9000
0000000ED000
0000000ED000
1000007F9000
9D978CFD1000
5BEFEC710000
000B50000000
003F80000000
0005F3000000
0017F1000000
07FC40000000
ENDCHAR
STARTCHAR scedilla
ENCODING 351
SWIDTH 428 0
DWIDTH 9 0
BBX 9 16 0 -5
BITMAP
004BEEC810
03FD779C00
08F2000000
08F3000000
03EE500000
003CFB1000
00008FB000
000009F200
10000AF100
D976AFA000
7CEEC70000
0069000000
00DB100000
001E800000
013E600000
2FD8000000
ENDCHAR
STARTCHAR Scaron
ENCODING 352
SWIDTH 501 0
DWIDTH 10 0
BBX 11 18 0 0
BITMAP
0000A901AB00
00002EADA000
000007FB0000
000000000000
00018DFEC710
002DFB89CF10
009F60000200
00DE00000000
00CF10000000
007FB1000000
0009FE600000
00004CFB1000
0000009F9000
0000000ED000
0000000ED000
1000007F9000
9D978CFD1000
5BEFEC710000
ENDCHAR
STARTCHAR scaron
ENCODING 353
SWIDTH 428 0
DWIDTH 9 0
BBX 9 15 0 0
BITMAP
001E503C70
0006F9F600
0000CF6000
0000000000
004BEEC810
03FD779C00
08F2000000
08F3000000
03EE500000
003CFB1000
00008FB000
000009F200
10000AF100
D976AFA000
7CEEC70000
ENDCHAR
STARTCHAR Tcedilla
ENCODING 354
SWIDTH 498 0
DWIDTH 10 0
BBX 11 19 1 -5
BITMAP
0EFFFFFFFFA0
17779FA77740
00007F400000
0000AF100000
0000DC000000
0001F9000000
0005F6000000
0008F3000000
000BE0000000
000EB0000000
003F80000000
006F40000000
009F10000000
00CD00000000
00C400000000
05F700000000
006F20000000
018E00000000
8EC400000000
ENDCHAR
STARTCHAR tcedilla
ENCODING 355
SWIDTH 324 0
DWIDTH 6 0
BBX 8 18 0 -5
BITMAP
0004D000
002E9000
0AFFFFF1
049F5430
00BE0000
00EB0000
02F80000
05F50000
08F20000
0BE00000
0CC00000
0BF76200
02CFD300
00C40000
04F70000
006F2000
018E1000
7EC40000
ENDCHAR
STARTCHAR Tcaron
ENCODING 356
SWIDTH 498 0
DWIDTH 10 0
BBX 11 18 1 0
BITMAP
0003D305D400
00009DAE4000
00001EF30000
000000000000
0EFFFFFFFFA0
17779FA77740
00007F400000
0000AF100000
0000DC000000
0001F9000000
0005F6000000
0008F3000000
000BE0000000
000EB0000000
003F80000000
006F40000000
009F10000000
00CD00000000
ENDCHAR
STARTCHAR tcaron
ENCODING 357
SWIDTH 324 0
DWIDTH 6 0
BBX 9 15 1 0
BITMAP
0000006F30
000000D800
004D07B000
02E9000000
AFFFFF1000
49F5430000
0BE0000000
0EB0000000
2F80000000
5F50000000
8F20000000
BE00000000
CC00000000
BF76200000
2CFD300000
ENDCHAR
STARTCHAR Tbar
ENCODING 358
SWIDTH 498 0
DWIDTH 10 0
BBX 11 14 1 0
BITMAP
0EFFFFFFFFA0
17779FA77740
00007F400000
0000AF100000
0000EC000000
0002F8000000
2FFFFFFF3000
255BF6550000
000BE0000000
000EB0000000
003F70000000
006F40000000
009F10000000
00CD00000000
ENDCHAR
STARTCHAR tbar
ENCODING 359
SWIDTH 324 0
DWIDTH 6 0
BBX 8 13 0 0
BITMAP
0004D000
002E9000
0AFFFFF1
049F5430
00AE0000
00DC0000
6FFFFE00
27F84300
08F20000
0BE00000
0DC00000
0BF76200
03CFD300
ENDCHAR
STARTCHAR Utilde
ENCODING 360
SWIDTH 675 0
DWIDTH 14 0
BBX 13 18 1 0
BITMAP
000006EB108700
00002E7DD7E200
00006901AE6000
00000000000000
006F3000001F90
00AF0000004F60
00DC0000007F30
01F9000000BE00
05F5000000EB00
08F2000002F800
0BE0000006F500
0EA0000009F100
3F7000000CD000
5F5000001F9000
5F5000007F5000
3FA00003EC0000
0BFC88AFE30000
018DFFD8100000
ENDCHAR
STARTCHAR utilde
ENCODING 361
SWIDTH 577 0
DWIDTH 12 0
BBX 10 15 1 0
BITMAP
0003DD403C
000C9AF8C7
002D006EA0
0000000000
05F40000CC
09F10000F9
0CD00003F6
0FA00006F3
3F70000AF0
7F30000EC0
AF00004F90
CD0000BF60
DC0008EF30
AF86BB9E00
1BED80AB00
ENDCHAR
STARTCHAR Umacron
ENCODING 362
SWIDTH 675 0
DWIDTH 14 0
BBX 13 17 1 0
BITMAP
00000366664000
00000CFFFF8000
00000000000000
006F3000001F90
00AF0000004F60
00DC0000007F30
01F9000000BE00
05F5000000EB00
08F2000002F800
0BE0000006F500
0EA0000009F100
3F7000000CD000
5F5000001F9000
5F5000007F5000
3FA00003EC0000
0BFC88AFE30000
018DFFD8100000
ENDCHAR
STARTCHAR umacron
ENCODING 363
SWIDTH 577 0
DWIDTH 12 0
BBX 10 14 1 0
BITMAP
0002666650
0007FFFFC0
0000000000
05F40000CC
09F10000F9
0CD00003F6
0FA00006F3
3F70000AF0
7F30000EC0
AF00004F90
CD0000BF60
DC0008EF30
AF86BB9E00
1BED80AB00
ENDCHAR
STARTCHAR Ubreve
ENCODING 364
SWIDTH 675 0
DWIDTH 14 0
BBX 13 18 1 0
BITMAP
00000A5005B000
000007D77E5000
000001AED70000
00000000000000
006F3000001F90
00AF0000004F60
00DC0000007F30
01F9000000BE00
05F5000000EB00
08F2000002F800
0BE0000006F500
0EA0000009F100
3F7000000CD000
5F5000001F9000
5F5000007F5000
3FA00003EC0000
0BFC88AFE30000
018DFFD8100000
ENDCHAR
STARTCHAR ubreve
ENCODING 365
SWIDTH 577 0
DWIDTH 12 0
BBX 10 15 1 0
BITMAP
00079002E1
0004E87D90
00008EE910
0000000000
05F40000CC
09F10000F9
0CD00003F6
0FA00006F3
3F70000AF0
7F30000EC0
AF00004F90
CD0000BF60
DC0008EF30
AF86BB9E00
1BED80AB00
ENDCHAR
STARTCHAR Uring
ENCODING 366
SWIDTH 675 0
DWIDTH 14 0
BBX 13 19 1 0
BITMAP
0000007ED50000
000002E12E0000
000002E13E0000
0000008ED50000
00000000000000
006F3000001F90
00AF0000004F60
00DC0000007F30
01F9000000BE00
05F5000000EB00
08F2000002F800
0BE0000006F500
0EA0000009F100
3F7000000CD000
5F5000001F9000
5F5000007F5000
3FA00003EC0000
0BFC88AFE30000
018DFFD8100000
ENDCHAR
STARTCHAR uring
ENCODING 367
SWIDTH 577 0
DWIDTH 12 0
BBX 10 16 1 0
BITMAP
00004DE800
0000D31D30
0000E31D30
00005DE800
0000000000
05F40000CC
09F10000F9
0CD00003F6
0FA00006F3
3F70000AF0
7F30000EC0
AF00004F90
CD0000BF60
DC0008EF30
AF86BB9E00
1BED80AB00
ENDCHAR
STARTCHAR Uhungarumlaut
ENCODING 368
SWIDTH 675 0
DWIDTH 14 0
BBX 13 18 1 0
BITMAP
0000000AE25F60
0000006E32E700
000004C21C5000
00000000000000
006F3000001F90
00AF0000004F60
00DC0000007F30
01F9000000BE00
05F5000000EB00
08F2000002F800
0BE0000006F500
0EA0000009F100
3F7000000CD000
5F5000001F9000
5F5000007F5000
3FA00003EC0000
0BFC88AFE30000
018DFFD8100000
ENDCHAR
STARTCHAR uhungarumlaut
ENCODING 369
SWIDTH 577 0
DWIDTH 12 0
BBX 11 15 1 0
BITMAP
00000AE25F60
00006E32E700
0004C21C5000
000000000000
05F40000CC00
09F10000F900
0CD00003F600
0FA00006F300
3F70000AF000
7F30000EC000
AF00004F9000
CD0000BF6000
DC0008EF3000
AF86BB9E0000
1BED80AB0000
ENDCHAR
STARTCHAR Uogonek
ENCODING 370
SWIDTH 675 0
DWIDTH 14 0
BBX 13 18 1 -4
BITMAP
006F3000001F90
00AF0000004F60
00DC0000007F30
01F9000000BE00
05F5000000EB00
08F2000002F800
0BE0000006F500
0EA0000009F100
3F7000000CD000
5F5000001F9000
5F5000007F5000
3FA00003EC0000
0BFC88AFE30000
018DFFD8100000
00002B50000000
0001D600000000
0003F410000000
0001BF70000000
ENDCHAR
STARTCHAR uogonek
ENCODING 371
SWIDTH 577 0
DWIDTH 12 0
BBX 10 15 1 -4
BITMAP
05F40000CC
09F10000F9
0CD00003F6
0FA00006F3
3F70000AF0
7F30000EC0
AF00004F90
CD0000BF60
DC0008EF30
AF86BB9E00
1BED80AB00
000007A100
00006D0000
0000BB2000
00005EE000
ENDCHAR
STARTCHAR Wcircumflex
ENCODING 372
SWIDTH 852 0
DWIDTH 17 0
BBX 17 18 2 0
BITMAP
00000003EE10000000
0000003EAE90000000
000004D503E4000000
000000000000000000
CD00000AF600004F80
BD00002FF60000AF10
BE00009CE70002F900
AE0002F6E80009F200
AF0008E1D9001EA000
9F001E70C9007F3000
8F108E10CA00DB0000
8F11E800BB05F40000
7F27F200AC0CC00000
6F3D90009C3F500000
6F7F20009C8D000000
5FCA00008DE7000000
4FF300007FE1000000
4FB000006F80000000
ENDCHAR
STARTCHAR wcircumflex
ENCODING 373
SWIDTH 716 0
DWIDTH 14 0
BBX 14 15 1 0
BITMAP
0000007FB00000
000007E9F40000
00009C306D1000
00000000000000
DB0002FE0000DD
CC0008EF0005F6
CC001E9F100BE0
BD007D4F203F70
AD00E73F309E10
AE06E13F41F900
9E0D902F47F200
9E4F201F5DA000
8DAA000F9F4000
7EF3000FEC0000
7FB0000EF50000
ENDCHAR
STARTCHAR Ycircumflex
ENCODING 374
SWIDTH 502 0
DWIDTH 10 0
BBX 11 18 1 0
BITMAP
00001DF40000
0002DCCC0000
002D701C7000
000000000000
1F9000005F80
0BD00001EC00
07F2000AF300
04F5005F7000
00E901EC0000
00BD0AE20000
007F6F600000
003FFA000000
000EE1000000
000F90000000
003F60000000
007F30000000
00AF00000000
00DC00000000
ENDCHAR
STARTCHAR ycircumflex
ENCODING 375
SWIDTH 461 0
DWIDTH 9 0
BBX 12 20 -2 -5
BITMAP
0000003EF200
000003EADA00
00004D602D50
000000000000
000FA00000CD
000DC00005F6
000AE0000DD0
0008F1006F50
0006F300DC00
0004F506F400
0002F60DB000
0000E86F3000
0000C9DB0000
0000ADF30000
00008FA00000
00009F200000
0002F9000000
000BE1000000
66BF60000000
CEC500000000
ENDCHAR
STARTCHAR Ydieresis
ENCODING 376
SWIDTH 502 0
DWIDTH 10 0
BBX 11 18 1 0
BITMAP
0005E10C9000
0006D10C7000
000000000000
000000000000
1F9000005F80
0BD00001EC00
07F2000AF300
04F5005F7000
00E901EC0000
00BD0AE20000
007F6F600000
003FFA000000
000EE1000000
000F90000000
003F60000000
007F30000000
00AF00000000
00DC00000000
ENDCHAR
STARTCHAR Zacute
ENCODING 377
SWIDTH 530 0
DWIDTH 11 0
BBX 13 18 -1 0
BITMAP
0000000007F700
000000004F7000
00000002D50000
00000000000000
0001FFFFFFFF50
0002888888FE10
000000000AF400
000000007F7000
00000004FA0000
0000002EC00000
000001DE200000
00000AF3000000
00008F60000000
0005F900000000
003EB000000000
01DD1000000000
0BFA8888870000
1FFFFFFFFB0000
ENDCHAR
STARTCHAR zacute
ENCODING 378
SWIDTH 443 0
DWIDTH 9 0
BBX 11 15 -1 0
BITMAP
00000001ED10
0000000BC100
0000009B1000
000000000000
000CFFFFF900
0003333AF400
0000004F8000
000002EB0000
00001CD10000
0000AF300000
0006F6000000
003F90000000
01EC00000000
0BF533330000
3FFFFFFD0000
ENDCHAR
STARTCHAR Zdotaccent
ENCODING 379
SWIDTH 530 0
DWIDTH 11 0
BBX 13 18 -1 0
BITMAP
00000004E50000
00000005E30000
00000000000000
00000000000000
0001FFFFFFFF50
0002888888FE10
000000000AF400
000000007F7000
00000004FA0000
0000002EC00000
000001DE200000
00000AF3000000
00008F60000000
0005F900000000
003EB000000000
01DD1000000000
0BFA8888870000
1FFFFFFFFB0000
ENDCHAR
STARTCHAR zdotaccent
ENCODING 380
SWIDTH 443 0
DWIDTH 9 0
BBX 10 15 -1 0
BITMAP
000000CA00
000000D800
0000000000
0000000000
000CFFFFF9
0003333AF4
0000004F80
000002EB00
00001CD100
0000AF3000
0006F60000
003F900000
01EC000000
0BF5333300
3FFFFFFD00
ENDCHAR
STARTCHAR Zcaron
ENCODING 381
SWIDTH 530 0
DWIDTH 11 0
BBX 13 18 -1 0
BITMAP
000000D602B900
0000004F9E8000
0000000AF80000
00000000000000
0001FFFFFFFF50
0002888888FE10
000000000AF400
000000007F7000
00000004FA0000
0000002EC00000
000001DE200000
00000AF3000000
00008F60000000
0005F900000000
003EB000000000
01DD1000000000
0BFA8888870000
1FFFFFFFFB0000
ENDCHAR
STARTCHAR zcaron
ENCODING 382
SWIDTH 443 0
DWIDTH 9 0
BBX 11 15 -1 0
BITMAP
00009B018C10
00001DBDC100
000005FC1000
000000000000
000CFFFFF900
0003333AF400
0000004F8000
000002EB0000
00001CD10000
0000AF300000
0006F6000000
003F90000000
01EC00000000
0BF533330000
3FFFFFFD0000
ENDCHAR
STARTCHAR longs
ENCODING 383
SWIDTH 274 0
DWIDTH 6 0
BBX 12 20 -3 -5
BITMAP
00000005CED4
0000004FC672
000000AE1000
000000EA0000
000003F70000
000006F40000
000009F10000
00000CD00000
00001F900000
00004F600000
00007F300000
0000AF000000
0000DC000000
0001F8000000
0004F5000000
0008F2000000
000BE0000000
002FA0000000
46CF30000000
7ED500000000
ENDCHAR
STARTCHAR florin
ENCODING 402
SWIDTH 550 0
DWIDTH 11 0
BBX 11 19 0 -5
BITMAP
0000002AEE90
000000DE7650
000005F60000
000009F10000
00000CD00000
0008DFFFE000
00036F833000
00006F300000
00009F000000
0000DC000000
0001F9000000
0004F5000000
0007F2000000
000BE0000000
000EB0000000
002F70000000
007F30000000
77FB00000000
DEA200000000
ENDCHAR
STARTCHAR Ohorn
ENCODING 416
SWIDTH 713 0
DWIDTH 14 0
BBX 16 15 1 0
BITMAP
00000000000006F8
00003ADFEB400AF2
0007FEA89EF66F70
007FA10002DFD500
03FB0000006F7000
0AF30000002FB000
1FB00000000FB000
4F700000002FA000
6F500000004F9000
8F400000008F5000
7F60000000DF1000
4F90000008F80000
0DF400007FD10000
04EFA79DFC100000
0029DFEC60000000
ENDCHAR
STARTCHAR ohorn
ENCODING 417
SWIDTH 561 0
DWIDTH 11 0
BBX 13 13 1 0
BITMAP
0000000000CF10
0000000001FC00
0019DFD608F300
02DE86BFCD4000
0CE2000CF10000
5F600007F30000
AF000007F40000
EC000008F20000
FA00000CE00000
FB00002F900000
CE1000BE200000
4FD77CF5000000
04CEEA30000000
ENDCHAR
STARTCHAR Uhorn
ENCODING 431
SWIDTH 722 0
DWIDTH 14 0
BBX 17 15 1 0
BITMAP
00000000000000BF20
006F3000001F92FB00
00AF0000004F9CD100
00DC0000007FD81000
01F9000000BE000000
05F5000000EB000000
08F2000002F8000000
0BE0000006F5000000
0EA0000009F1000000
3F7000000CD0000000
5F5000001FA0000000
5F5000007F50000000
3FB00003ED00000000
0AFC88AFE300000000
007CFFD92000000000
ENDCHAR
STARTCHAR uhorn
ENCODING 432
SWIDTH 617 0
DWIDTH 12 0
BBX 14 13 1 0
BITMAP
000000000006F7
00000000000AF2
05F40000CC4F80
09F10000FEE700
0CD00003F81000
0FA00006F30000
3F70000AF00000
6F30000EC00000
AF00004F900000
CD0000BF600000
DC0008EF300000
AF86BB9E000000
1BED80AB000000
ENDCHAR
STARTCHAR uni01F0
ENCODING 496
SWIDTH 253 0
DWIDTH 5 0
BBX 11 20 -3 -5
BITMAP
00005D206D40
00000ADAE300
000002FE3000
000000000000
000004F60000
000007F30000
00000AE00000
00000DC00000
00001F800000
00004F500000
00007F200000
0000AE000000
0000DB000000
0001F8000000
0005F5000000
0008F2000000
000BE0000000
001EA0000000
46BF30000000
7ED500000000
ENDCHAR
STARTCHAR Aringacute
ENCODING 506
SWIDTH 555 0
DWIDTH 11 0
BBX 12 19 -1 0
BITMAP
0000000007FA
000000004F90
00000002E700
0000002CEB10
000000A60A60
000000A71B60
0000007FFC00
000001EACB00
000008F3BD00
00001EB09F00
00009F307F20
0002FB006F40
000AF3004F50
003FFFFFFF70
00BF88888F90
04F900000EB0
0CE100000CD0
5F8000000AF0
DE10000008F1
ENDCHAR
STARTCHAR aringacute
ENCODING 507
SWIDTH 564 0
DWIDTH 11 0
BBX 10 19 1 0
BITMAP
0000000BF7
0000007F60
000005E400
00005DE700
0000E21E20
0000E32E10
00005DD600
0000000000
0018DEA17D
01DF96BBC9
0BF4000DF6
4F90000AF3
9F20000BF0
DD00000EC0
FB00004F90
FA0000CF60
EC0008EF30
8FA6BC8E00
19EE819B00
ENDCHAR
STARTCHAR AEacute
ENCODING 508
SWIDTH 816 0
DWIDTH 16 0
BBX 19 18 -1 0
BITMAP
00000000000002EC1000
0000000000001CC10000
000000000000BA100000
00000000000000000000
000000005FFFFFFFFF10
00000001ECBF98888700
0000000AF39F10000000
0000004F80CD00000000
000001DD01FA00000000
000009F304F700000000
00004F8007FFFFFF6000
0001DD100AF777772000
0008FFFFFFC000000000
003FB8889F9000000000
00DE10005F6000000000
08F500008F2000000000
3FB00000BF7777730000
CE200000EFFFFFF40000
ENDCHAR
STARTCHAR aeacute
ENCODING 509
SWIDTH 814 0
DWIDTH 16 0
BBX 15 15 1 0
BITMAP
0000000002EC0000
000000001DB10000
00000000B9000000
0000000000000000
0019DE70E59EEA10
01DF97D9FDD78F90
0BF4004FFC100CC0
4F90001FF2001EA0
9F20002FA026DE30
DD00005FFFFFA300
FB0000AF75310000
FA0003FF40000000
EC001DFF80000100
9F87D6EDFA68C900
1BEC50F38EFDA300
ENDCHAR
STARTCHAR Oslashacute
ENCODING 510
SWIDTH 720 0
DWIDTH 14 0
BBX 14 19 1 -1
BITMAP
000000003FB000
00000001DB0000
0000000C900000
00000000000140
00003ADFDA3AE1
0007FEA8AEFF50
007FA10007FF20
03FB00003FDF80
0AF30002EC2FA0
1FB0001CD10FB0
4F7000BE202FA0
6F5009F4004F90
8F407F60008F50
7F55F80000DF10
4FBEA00008F800
0DFC00007FD100
0CFFA89DFC1000
9F58DEEC600000
24000000000000
ENDCHAR
STARTCHAR oslashacute
ENCODING 511
SWIDTH 561 0
DWIDTH 11 0
BBX 11 16 0 -1
BITMAP
00000005F900
0000003E9000
000001D70000
000000000850
00019DEC8F50
002DE86BFB00
00CE200BFF10
05F5008E8F30
0AE005F46F20
0DB03E707F10
0E91DA00BC00
0EABC102F800
0BFE200BE100
07FD66CF4000
2EABEEA30000
1A1000000000
ENDCHAR
STARTCHAR Scommaaccent
ENCODING 536
SWIDTH 501 0
DWIDTH 10 0
BBX 11 18 0 -4
BITMAP
00018DFEC710
002DFB89CF10
009F60000200
00DE00000000
00CF10000000
007FB1000000
0009FE600000
00004CFB1000
0000009F9000
0000000ED000
0000000ED000
1000007F9000
9D978CFD1000
5BEFEC710000
000000000000
001E90000000
007D10000000
01D300000000
ENDCHAR
STARTCHAR scommaaccent
ENCODING 537
SWIDTH 428 0
DWIDTH 9 0
BBX 9 15 0 -4
BITMAP
004BEEC810
03FD779C00
08F2000000
08F3000000
03EE500000
003CFB1000
00008FB000
000009F200
10000AF100
D976AFA000
7CEEC70000
0000000000
00DB000000
05E2000000
0D50000000
ENDCHAR
STARTCHAR Tcommaaccent
ENCODING 538
SWIDTH 498 0
DWIDTH 10 0
BBX 11 18 1 -4
BITMAP
0EFFFFFFFFA0
17779FA77740
00007F400000
0000AF100000
0000DC000000
0001F9000000
0005F6000000
0008F3000000
000BE0000000
000EB0000000
003F80000000
006F40000000
009F10000000
00CD00000000
000000000000
06F400000000
0D9000000000
6B0000000000
ENDCHAR
STARTCHAR tcommaaccent
ENCODING 539
SWIDTH 324 0
DWIDTH 6 0
BBX 8 17 0 -4
BITMAP
0004D000
002E9000
0AFFFFF1
049F5430
00BE0000
00EB0000
02F80000
05F50000
08F20000
0BE00000
0CC00000
0BF76200
02CFD300
00000000
03F60000
0BB00000
4D100000
ENDCHAR
STARTCHAR dotlessj
ENCODING 567
SWIDTH 253 0
DWIDTH 5 0
BBX 8 16 -3 -5
BITMAP
000004F6
000007F3
00000AE0
00000DC0
00001F80
00004F50
00007F20
0000AE00
0000DB00
0001F800
0005F500
0008F200
000BE000
001EA000
46BF3000
7ED50000
ENDCHAR
STARTCHAR uni02BC
ENCODING 700
SWIDTH 169 0
DWIDTH 3 0
BBX 5 5 1 9
BITMAP
01EE10
05F800
0BE100
2F6000
9C0000
ENDCHAR
STARTCHAR circumflex
ENCODING 710
SWIDTH 554 0
DWIDTH 11 0
BBX 6 3 4 12
BITMAP
00AF70
0ADAE2
BA109B
ENDCHAR
STARTCHAR caron
ENCODING 711
SWIDTH 554 0
DWIDTH 11 0
BBX 7 3 4 12
BITMAP
4D205D40
09DAE400
01EF3000
ENDCHAR
STARTCHAR macron
ENCODING 713
SWIDTH 535 0
DWIDTH 11 0
BBX 6 2 4 12
BITMAP
466663
EFFFF6
ENDCHAR
STARTCHAR breve
ENCODING 728
SWIDTH 554 0
DWIDTH 11 0
BBX 7 3 4 12
BITMAP
5A001E20
2F86CA00
07EEA100
ENDCHAR
STARTCHAR dotaccent
ENCODING 729
SWIDTH 243 0
DWIDTH 5 0
BBX 3 2 3 13
BITMAP
8E10
9C00
ENDCHAR
STARTCHAR ring
ENCODING 730
SWIDTH 577 0
DWIDTH 12 0
BBX 5 4 5 12
BITMAP
1BEC20
890880
890880
1BEB10
ENDCHAR
STARTCHAR ogonek
ENCODING 731
SWIDTH 182 0
DWIDTH 4 0
BBX 4 4 -2 -4
BITMAP
03C4
2E30
6F31
2CE5
ENDCHAR
STARTCHAR tilde
ENCODING 732
SWIDTH 554 0
DWIDTH 11 0
BBX 8 3 3 12
BITMAP
08E910A5
4D7EC7E1
9602BE50
ENDCHAR
STARTCHAR hungarumlaut
ENCODING 733
SWIDTH 554 0
DWIDTH 11 0
BBX 9 3 3 12
BITMAP
004F71DC10
02E80AC100
1C608A1000
ENDCHAR
STARTCHAR uni02F3
ENCODING 755
SWIDTH 333 0
DWIDTH 7 0
BBX 5 4 -1 -5
BITMAP
2CEB10
980990
980990
2CEB20
ENDCHAR
STARTCHAR uni0300
ENCODING 768
SWIDTH 0 0
DWIDTH 0 0
BBX 4 3 -7 12
BITMAP
DE00
3F60
05E1
ENDCHAR
STARTCHAR uni0301
ENCODING 769
SWIDTH 0 0
DWIDTH 0 0
BBX 5 3 -6 12
BITMAP
005F80
03E800
1D7000
ENDCHAR
STARTCHAR uni0303
ENCODING 771
SWIDTH 0 0
DWIDTH 0 0
BBX 8 3 -9 12
BITMAP
03DD403C
0C9AF8C7
2D006EA0
ENDCHAR
STARTCHAR hook
ENCODING 777
SWIDTH 0 0
DWIDTH 0 0
BBX 4 5 -6 12
BITMAP
9FC3
11BA
04D8
7E80
8800
ENDCHAR
STARTCHAR uni030F
ENCODING 783
SWIDTH 0 0
DWIDTH 0 0
BBX 7 3 -10 12
BITMAP
BF15F700
2E80AD10
04E21C80
ENDCHAR
STARTCHAR dotbelow
ENCODING 803
SWIDTH 0 0
DWIDTH 0 0
BBX 3 2 -9 -3
BITMAP
2E70
3E60
ENDCHAR
STARTCHAR tonos
ENCODING 900
SWIDTH 562 0
DWIDTH 11 0
BBX 4 4 6 12
BITMAP
06F7
0CD1
4F40
C700
ENDCHAR
STARTCHAR dieresistonos
ENCODING 901
SWIDTH 562 0
DWIDTH 11 0
BBX 6 4 4 13
BITMAP
0003FA
000BB1
6E6B7D
7D007C
ENDCHAR
STARTCHAR Alphatonos
ENCODING 902
SWIDTH 555 0
DWIDTH 11 0
BBX 12 15 -1 0
BITMAP
0002FB000000
0008F309F600
001E803FF800
008B00BCCA00
000004F5BC00
00000DC0AE00
00006F408F10
0001EB006F30
0008F3004F50
002EFFFFFF70
00AF88888F90
03F900000EB0
0BE100000CD0
5F8000000AE0
DE10000008F1
ENDCHAR
STARTCHAR anoteleia
ENCODING 903
SWIDTH 252 0
DWIDTH 5 0
BBX 4 3 1 6
BITMAP
0770
4FF1
3E90
ENDCHAR
STARTCHAR Epsilontonos
ENCODING 904
SWIDTH 567 0
DWIDTH 11 0
BBX 13 15 0 0
BITMAP
00CF1000000000
03F81FFFFFFF10
0AC05FA8888700
3E208F20000000
0000BE00000000
0000EB00000000
0003F700000000
0006FFFFFF7000
0009F877772000
000CD000000000
001FA000000000
004F6000000000
007F3000000000
00AF8777730000
00DFFFFFF40000
ENDCHAR
STARTCHAR Etatonos
ENCODING 905
SWIDTH 753 0
DWIDTH 15 0
BBX 16 15 0 0
BITMAP
00CF100000000000
03F80BE0000009F1
0AC00EA000000DC0
3E203F7000001F90
00006F4000004F50
00009F1000007F20
0000CD000000BE00
0001FFFFFFFFFB00
0004FA777779F800
0007F3000005F400
000AE0000009F100
000EB000000CD000
002F8000000FA000
005F5000003F6000
008F2000006F3000
ENDCHAR
STARTCHAR Iotatonos
ENCODING 906
SWIDTH 363 0
DWIDTH 7 0
BBX 7 15 1 0
BITMAP
08F50000
1EC07F30
7E20AF00
E500DC00
0001F800
0005F500
0008F200
000BE000
000EA000
003F7000
006F4000
009F1000
00CC0000
01F90000
04F60000
ENDCHAR
STARTCHAR Omicrontonos
ENCODING 908
SWIDTH 756 0
DWIDTH 15 0
BBX 15 15 0 0
BITMAP
008F400000000000
01EB005BEFD92000
07E20AFD98AFE300
1E50BF800004FD00
0006F80000009F40
000ED10000006F70
004F800000004F80
008F400000005F60
00AF100000007F50
00BF00000000CF10
00BF20000003FC00
008F6000000BF400
003FD20001AFA000
0007FE979EFA0000
00004AEFEB500000
ENDCHAR
STARTCHAR Upsilontonos
ENCODING 910
SWIDTH 640 0
DWIDTH 13 0
BBX 15 15 0 0
BITMAP
00CF100000000000
03F84F6000009F50
0AC01F900004F900
3E200BD0001DD100
000007F2009F3000
000003F504F80000
000000E91DC00000
000000AD8F300000
0000006FF7000000
0000003FB0000000
0000004F60000000
0000007F30000000
000000BE00000000
000000EB00000000
000002F800000000
ENDCHAR
STARTCHAR Omegatonos
ENCODING 911
SWIDTH 782 0
DWIDTH 16 0
BBX 15 15 0 0
BITMAP
006F700000000000
00CD104ADFEA4000
05F41AFE98AEF700
0C70BF800002DF30
0006F90000004F90
000CE10000000FC0
002FA00000000ED0
004F700000000FC0
006F600000003F80
005F600000009F30
002F90000003FA00
000CD000001DD100
0004F70002DC2000
0777DF406EE87710
1FFFFF50DFFFFF00
ENDCHAR
STARTCHAR iotadieresistonos
ENCODING 912
SWIDTH 305 0
DWIDTH 6 0
BBX 6 17 1 0
BITMAP
0004F9
000CB0
6D6A8D
7C008B
000000
000000
06F400
09F100
0CD000
0F9000
3F6000
6F3000
9F0000
CC0000
EA0000
DE6710
4DFD10
ENDCHAR
STARTCHAR Alpha
ENCODING 913
SWIDTH 555 0
DWIDTH 11 0
BBX 12 14 -1 0
BITMAP
00000009F600
0000003FF800
000000BCCA00
000004F5BC00
00000DC0AE00
00006F408F10
0001EB006F30
0008F3004F50
002EFFFFFF70
00AF88888F90
03F900000EB0
0BE100000CD0
5F8000000AE0
DE10000008F1
ENDCHAR
STARTCHAR Beta
ENCODING 914
SWIDTH 598 0
DWIDTH 12 0
BBX 12 14 0 0
BITMAP
0004FFFFEB40
0007F8779EF4
000AF00004FA
000DC00001FA
002F800005F7
005F50026EC0
008FFFFFD600
00BE6679FB10
00EA00004F80
03F700000FC0
06F400001FB0
09F10000AF60
0DE6678DFA00
1FFFFFEB5000
ENDCHAR
STARTCHAR Gamma
ENCODING 915
SWIDTH 476 0
DWIDTH 10 0
BBX 11 14 0 0
BITMAP
0004FFFFFFE0
0007F9888860
000AF0000000
000DC0000000
002F90000000
005F50000000
008F20000000
00BE00000000
00EB00000000
03F700000000
06F400000000
09F100000000
0DD000000000
1F9000000000
ENDCHAR
STARTCHAR uni0394
ENCODING 916
SWIDTH 558 0
DWIDTH 11 0
BBX 11 14 -1 0
BITMAP
00000009F600
0000002FF800
000000AECA00
000003F7BC00
00000BE1AD00
00004F809F00
0000CE107F20
0005F6006F30
000DD0004F50
007F50002F70
01EB00001F80
08F300000EA0
2ED777777EC0
7FFFFFFFFFB0
ENDCHAR
STARTCHAR Epsilon
ENCODING 917
SWIDTH 511 0
DWIDTH 10 0
BBX 11 14 0 0
BITMAP
0004FFFFFFE0
0007F9888860
000AF0000000
000DC0000000
002F80000000
005F50000000
008FFFFFF400
00BE77777100
00EB00000000
03F700000000
06F400000000
09F100000000
0DE777772000
1FFFFFFF2000
ENDCHAR
STARTCHAR Zeta
ENCODING 918
SWIDTH 530 0
DWIDTH 11 0
BBX 13 14 -1 0
BITMAP
0001FFFFFFFF50
0002888888FE10
000000000AF400
000000007F7000
00000004FA0000
0000002EC00000
000001DE200000
00000AF3000000
00008F60000000
0005F900000000
003EB000000000
01DD1000000000
0BFA8888870000
1FFFFFFFFB0000
ENDCHAR
STARTCHAR Eta
ENCODING 919
SWIDTH 678 0
DWIDTH 14 0
BBX 14 14 0 0
BITMAP
0004F6000002F8
0007F3000005F4
000AE0000008F1
000DC000000CD0
002F8000000FA0
005F5000003F60
008FFFFFFFFF30
00BE777777DF00
00EB000000DC00
03F7000001F900
06F4000004F500
09F1000008F200
0DC000000BE000
1F9000000EB000
ENDCHAR
STARTCHAR Theta
ENCODING 920
SWIDTH 720 0
DWIDTH 14 0
BBX 13 14 1 0
BITMAP
00003ADFEB4000
0007FEA89EF600
007FA10002DF20
03FB0000006F80
0AF30000002FB0
1FB00000000FB0
4F70EFFFF32FA0
6F517777704F90
8F400000008F50
7F60000000DF10
4F90000008F800
0DF400007FD100
04EFA79DFC1000
0029DFEC600000
ENDCHAR
STARTCHAR Iota
ENCODING 921
SWIDTH 272 0
DWIDTH 5 0
BBX 6 14 0 0
BITMAP
0004F6
0007F3
000AE0
000DB0
001F80
005F50
008F20
00BD00
00EA00
03F700
06F400
09F100
0DC000
1F9000
ENDCHAR
STARTCHAR Kappa
ENCODING 922
SWIDTH 557 0
DWIDTH 11 0
BBX 13 14 0 0
BITMAP
0004F600009F60
0007F30009F600
000AE0009F6000
000DB009F50000
002F80AF500000
005F5AF5000000
008FBFD0000000
00BFB8F4000000
00EB01EB000000
03F7009F200000
06F4003F900000
09F1000CE10000
0DC00005F70000
1F900000ED0000
ENDCHAR
STARTCHAR Lambda
ENCODING 923
SWIDTH 558 0
DWIDTH 11 0
BBX 12 14 -1 0
BITMAP
00000009F700
0000002FF900
000000BDBB00
000004F6AD00
00000CD08F00
00006F507F20
0001EC005F40
0008F4003F60
002EB0001F80
009F30000EA0
03F900000CC0
0BE200000BE0
5F80000009F1
DE10000007F3
ENDCHAR
STARTCHAR Mu
ENCODING 924
SWIDTH 836 0
DWIDTH 17 0
BBX 17 14 0 0
BITMAP
0004FF40000002EFA0
0007EF6000000AEF70
000ACE8000003FAF40
000E9CA00000BC9F10
002F7AC00005F4CD00
005F48E0000DA1FA00
008F16F1006F24F600
00CC04F201E807F300
00F902F408E10AF000
03F600F62F600DC000
06F200D8AD001F9000
0AE000BDF4005F6000
0DB0009FB0008F2000
1F80007F3000BE0000
ENDCHAR
STARTCHAR Nu
ENCODING 925
SWIDTH 702 0
DWIDTH 14 0
BBX 15 14 0 0
BITMAP
0004FC0000008F10
0007FF300000CC00
000ADF800000F900
000E9AE00003F600
002F64F50007F300
005F30DB000AE000
008F108F100DB000
00CC002F701F8000
00F9000BD04F5000
03F60006F48F1000
06F20001E9AD0000
0AE000009EDA0000
0DB000003FF70000
1F8000000DF30000
ENDCHAR
STARTCHAR Xi
ENCODING 926
SWIDTH 517 0
DWIDTH 10 0
BBX 12 14 -1 0
BITMAP
0000EFFFFFFE
000188888886
000000000000
000000000000
000000000000
000000000000
0006FFFFFD00
000477777500
000000000000
000000000000
000000000000
000000000000
077777777500
2FFFFFFFF800
ENDCHAR
STARTCHAR Omicron
ENCODING 927
SWIDTH 720 0
DWIDTH 14 0
BBX 13 14 1 0
BITMAP
00003ADFEB4000
0007FEA89EF600
007FA10002DF20
03FB0000006F80
0AF30000002FB0
1FB00000000FB0
4F700000002FA0
6F500000004F90
8F400000008F50
7F60000000DF10
4F90000008F800
0DF400007FD100
04EFA79DFC1000
0029DFEC600000
ENDCHAR
STARTCHAR Pi
ENCODING 928
SWIDTH 679 0
DWIDTH 14 0
BBX 14 14 0 0
BITMAP
0004FFFFFFFFF9
0007F877777AF5
000AE0000009F2
000DB000000CE0
002F8000000FB0
005F5000003F80
008F2000006F40
00BE000000AF10
00EA000000DD00
03F7000001FA00
06F4000004F600
09F1000007F300
0DC000000BF000
1F9000000EC000
ENDCHAR
STARTCHAR Rho
ENCODING 929
SWIDTH 565 0
DWIDTH 11 0
BBX 12 14 0 0
BITMAP
0004FFFFD810
0007F878CFB0
000AF0000BF3
000DC00007F4
002F800008F3
005F50001DE0
008F2015DF50
00BFFFFFD400
00EC66520000
03F700000000
06F400000000
09F100000000
0DC000000000
1F9000000000
ENDCHAR
STARTCHAR Sigma
ENCODING 931
SWIDTH 520 0
DWIDTH 10 0
BBX 13 14 -1 0
BITMAP
0004FFFFFFFF20
0005FB88888700
0000DC00000000
00006F40000000
00000DB0000000
000007F4000000
000001EB000000
000007F6000000
00005F70000000
0004F900000000
003EB000000000
02DC1000000000
0CF97777770000
3FFFFFFFFD0000
ENDCHAR
STARTCHAR Tau
ENCODING 932
SWIDTH 498 0
DWIDTH 10 0
BBX 11 14 1 0
BITMAP
0EFFFFFFFFA0
17779FA77740
00007F400000
0000AF100000
0000DC000000
0001F9000000
0005F6000000
0008F3000000
000BE0000000
000EB0000000
003F80000000
006F40000000
009F10000000
00CD00000000
ENDCHAR
STARTCHAR Upsilon
ENCODING 933
SWIDTH 502 0
DWIDTH 10 0
BBX 11 14 1 0
BITMAP
1F9000005F80
0BD00001EC00
07F2000AF300
04F5005F7000
00E901EC0000
00BD0AE20000
007F6F600000
003FFA000000
000EE1000000
000F90000000
003F60000000
007F30000000
00AF00000000
00DC00000000
ENDCHAR
STARTCHAR Phi
ENCODING 934
SWIDTH 744 0
DWIDTH 15 0
BBX 14 14 1 0
BITMAP
00000009F20000
0000000BF00000
00039CEFFDA300
008FEA9FBAFF50
07FA106F502EE0
1EC0009F2009F3
5F6000DD0007F3
7F3001FA0009F2
8F4004F7000DD0
5F8008F4008F60
0DF72BF24BF900
02BFFFFFFD5000
00027FB5200000
00007F40000000
ENDCHAR
STARTCHAR Chi
ENCODING 935
SWIDTH 519 0
DWIDTH 10 0
BBX 13 14 -1 0
BITMAP
0009F200003FA0
0003F70001DC00
0000CD000BE200
00006F309F3000
00001E96F60000
000009EF800000
000005FC000000
00001DFE000000
0000BE6F500000
0007F40EA00000
004F7009F10000
02EB0004F60000
0CD10000EC0000
9F3000009F2000
ENDCHAR
STARTCHAR Psi
ENCODING 936
SWIDTH 734 0
DWIDTH 15 0
BBX 14 14 2 0
BITMAP
2F9000AF1003F8
5F6000DD0007F5
8F3002F9000AF2
CE0005F6000DD0
EB0008F2002FA0
FA000CE0006F60
FC000FB001EE10
AF924F826DF500
1AFFFFFFFD4000
0025CF65300000
0000DD00000000
0001FA00000000
0004F700000000
0007F400000000
ENDCHAR
STARTCHAR uni03A9
ENCODING 937
SWIDTH 732 0
DWIDTH 15 0
BBX 15 14 -1 0
BITMAP
0000004ADFEA4000
00001AFE98AEF700
0000AF800002CF30
0005F90000004F90
000CE10000000FC0
002FA00000000ED0
004F700000000FC0
006F600000003F90
005F700000009F30
002F90000002FA00
000CD000001DD100
0004F70002DC2000
0777DF406EE87710
1FFFFF50DFFFFF00
ENDCHAR
STARTCHAR Iotadieresis
ENCODING 938
SWIDTH 272 0
DWIDTH 5 0
BBX 8 18 0 0
BITMAP
004E20AA
005D10B8
00000000
00000000
0004F600
0007F300
000AE000
000DB000
001F8000
005F5000
008F2000
00BD0000
00EA0000
03F70000
06F40000
09F10000
0DC00000
1F900000
ENDCHAR
STARTCHAR Upsilondieresis
ENCODING 939
SWIDTH 502 0
DWIDTH 10 0
BBX 11 18 1 0
BITMAP
0005E10C9000
0006D10C7000
000000000000
000000000000
1F9000005F80
0BD00001EC00
07F2000AF300
04F5005F7000
00E901EC0000
00BD0AE20000
007F6F600000
003FFA000000
000EE1000000
000F90000000
003F60000000
007F30000000
00AF00000000
00DC00000000
ENDCHAR
STARTCHAR alphatonos
ENCODING 940
SWIDTH 568 0
DWIDTH 11 0
BBX 11 16 1 0
BITMAP
0000004F9000
000000AE1000
000003F60000
00000A900000
000000000000
0019DEA14F20
01DF96CBCB00
0BF4001EF700
4F80000BF300
9F20000CE000
DD00001EA000
FB00005F7000
FA0000CF3000
EC0009FF1000
8FA6BC9F7200
19EE803DE300
ENDCHAR
STARTCHAR epsilontonos
ENCODING 941
SWIDTH 444 0
DWIDTH 9 0
BBX 9 16 0 0
BITMAP
0000001FC0
0000007F40
000001E900
000007C000
0000000000
0005CEEC70
006FB77A90
00DC000000
00E9000000
00AE300000
002DFF9000
07FB763000
3F70000000
5F50000100
2FD768C900
04BEED9300
ENDCHAR
STARTCHAR etatonos
ENCODING 942
SWIDTH 577 0
DWIDTH 12 0
BBX 11 21 0 -5
BITMAP
00000004F800
0000000BE100
0000003F5000
000000A90000
000000000000
004F33BED600
007F5E86CF20
00AFD2004F50
00DF40005F40
01FC00008F20
04F60000BE00
07F20000EB00
0AE00002F800
0EB00005F500
2F800008F100
5F50000CD000
0000000EA000
0000003F7000
0000006F4000
0000009F1000
000000CC0000
ENDCHAR
STARTCHAR iotatonos
ENCODING 943
SWIDTH 305 0
DWIDTH 6 0
BBX 6 16 1 0
BITMAP
0004F9
000AE1
003F60
00A900
000000
06F400
09F100
0CD000
0F9000
3F6000
6F3000
9F0000
CC0000
EA0000
DE6710
4DFD10
ENDCHAR
STARTCHAR upsilondieresistonos
ENCODING 944
SWIDTH 576 0
DWIDTH 12 0
BBX 10 17 1 0
BITMAP
0000007F60
000001E800
0009B88AA0
000AA00B90
0000000000
0000000000
06F40000EB
09F10000EA
0CC00000F9
1F900002F8
4F600003F6
7F300006F3
9F00000AE0
AF00002F90
8F2000AE20
2FD76CF600
04BEEB4000
ENDCHAR
STARTCHAR alpha
ENCODING 945
SWIDTH 568 0
DWIDTH 11 0
BBX 11 11 1 0
BITMAP
0019DEA14F20
01DF96CBCB00
0BF4001EF700
4F80000BF300
9F20000CE000
DD00001EA000
FB00005F7000
FA0000CF3000
EC0009FF1000
8FA6BC9F7200
19EE803DE300
ENDCHAR
STARTCHAR beta
ENCODING 946
SWIDTH 577 0
DWIDTH 12 0
BBX 13 20 -1 -5
BITMAP
0000007DFD9100
00000BF969FC00
00006F50009F20
0000CC00007F20
0002F80000BE00
0005F4013AE400
0008F1AFF82000
000BD057CE4000
000E90000BE000
003F600006F300
006F300005F400
009E000008F200
00DB00002EC000
01FFC768EE3000
04F68DFE920000
07F20000000000
0AE00000000000
0EB00000000000
2F800000000000
5F500000000000
ENDCHAR
STARTCHAR gamma
ENCODING 947
SWIDTH 458 0
DWIDTH 9 0
BBX 10 16 0 -5
BITMAP
0EA00000DD
0CC00006F5
0AE0000DC0
08F1006F40
05F301EB00
03F507F300
01F70EB000
00E86F3000
00B9CA0000
009DF20000
007F900000
009F200000
01FA000000
07F4000000
0CE0000000
1FA0000000
ENDCHAR
STARTCHAR delta
ENCODING 948
SWIDTH 553 0
DWIDTH 11 0
BBX 11 15 0 0
BITMAP
000006CFEA30
00006F968DC0
0000CB000020
0000DB000000
00009F600000
00001CF80000
00016CFF9000
004ED62AF400
04F90001FA00
0DC00000DC00
3F700000DC00
4F700002F800
2FB0000AF200
0AFB67CF6000
007CEEA30000
ENDCHAR
STARTCHAR epsilon
ENCODING 949
SWIDTH 444 0
DWIDTH 9 0
BBX 9 11 0 0
BITMAP
0005CEEC70
006FB77A90
00DC000000
00E9000000
00AE300000
002DFF9000
07FB763000
3F70000000
5F50000100
2FD768C900
04BEED9300
ENDCHAR
STARTCHAR zeta
ENCODING 950
SWIDTH 453 0
DWIDTH 9 0
BBX 10 19 1 -4
BITMAP
001FFFFFF6
0016667ED1
000003DC10
00004EA000
0004F90000
004E900000
02EB000000
0BD1000000
5F50000000
BE00000000
EA00000000
FA00000000
DE20000000
6FE6000000
05DFD40000
0005EE0000
00007F1000
0000CC0000
000AD20000
ENDCHAR
STARTCHAR eta
ENCODING 951
SWIDTH 577 0
DWIDTH 12 0
BBX 11 16 0 -5
BITMAP
004F33BED600
007F5E86CF20
00AFD2004F50
00DF40005F40
01FC00008F20
04F60000BE00
07F20000EB00
0AE00002F800
0EB00005F500
2F800008F100
5F50000CD000
0000000EA000
0000003F7000
0000006F4000
0000009F1000
000000CC0000
ENDCHAR
STARTCHAR theta
ENCODING 952
SWIDTH 542 0
DWIDTH 11 0
BBX 10 15 1 0
BITMAP
00029EFC30
002EE87EE1
00CE2007F5
05F60003F7
0CE00003F7
2F900004F5
6F500005F4
9FFFFFFFF1
CD66666DC0
EA00001E90
F900005F30
F90000CC00
DC0007F400
8FA6AF7000
08DFC50000
ENDCHAR
STARTCHAR iota
ENCODING 953
SWIDTH 305 0
DWIDTH 6 0
BBX 5 11 1 0
BITMAP
06F400
09F100
0CD000
0F9000
3F6000
6F3000
9F0000
CC0000
EA0000
DE6710
4DFD10
ENDCHAR
STARTCHAR kappa
ENCODING 954
SWIDTH 487 0
DWIDTH 10 0
BBX 11 11 0 0
BITMAP
004F6003EC10
007F202EC100
00AE02DC1000
00DB2DC10000
01F8DE100000
05FEEF200000
08F93F900000
0BE00BE10000
0EB004F70000
2F8000DE0000
5F50006F6000
ENDCHAR
STARTCHAR lambda
ENCODING 955
SWIDTH 482 0
DWIDTH 10 0
BBX 10 15 -1 0
BITMAP
000BFD4000
00056EE000
000007F300
000003F500
000002F700
000008F900
00002FDA00
0000BBAC00
0004F49E00
000DB08F10
007F206F20
02E9005F40
0AE1003F60
4F70001FC4
CD000008EA
ENDCHAR
STARTCHAR uni03BC
ENCODING 956
SWIDTH 583 0
DWIDTH 12 0
BBX 12 16 -1 -5
BITMAP
0004F60000AE
0007F30000DB
000AE00002F8
000DC00005F5
001F800008F2
004F50000CD0
007F20002FA0
00AE0000AF70
00DE0006EF40
01FF96AC7F10
04F7EE918D00
08F000000000
0BD000000000
0EA000000000
2F7000000000
5F4000000000
ENDCHAR
STARTCHAR nu
ENCODING 957
SWIDTH 488 0
DWIDTH 10 0
BBX 9 11 1 0
BITMAP
FA00000BD0
DC00000F90
BD00004F50
9F00009F10
8F2001EA00
6F3007F300
4F501EA000
2F60AE2000
0F77F50000
0EDF700000
0CF8000000
ENDCHAR
STARTCHAR xi
ENCODING 958
SWIDTH 444 0
DWIDTH 9 0
BBX 10 19 0 -4
BITMAP
0004FFFFFA
00028DD963
0004E80000
000EB00000
001F800000
000AE51000
00008FFF30
003CE86400
04FB100000
0DE1000000
2F90000000
2F80000000
0EC0000000
06FC500000
004BFC2000
00004EC000
00000AF000
00001EA000
0001CC1000
ENDCHAR
STARTCHAR omicron
ENCODING 959
SWIDTH 561 0
DWIDTH 11 0
BBX 10 11 1 0
BITMAP
0019DFD600
02DE86BF70
0CE2000CE1
5F600007F3
AF000007F4
EC000008F2
FA00000CE0
FB00002F90
CE1000BE20
4FD77CF500
04CEEA3000
ENDCHAR
STARTCHAR pi
ENCODING 960
SWIDTH 600 0
DWIDTH 12 0
BBX 13 11 0 0
BITMAP
17DFFFFFFFFF40
168FB666CF6610
005F5000CD0000
008F2000FA0000
00BE0003F60000
00EB0006F30000
02F80009F00000
05F4000CC00000
09F1000FA00000
0CD0001FC60000
0FA00008ED1000
ENDCHAR
STARTCHAR rho
ENCODING 961
SWIDTH 570 0
DWIDTH 11 0
BBX 12 16 -1 -5
BITMAP
000007DFE910
0000AF969FB0
0005F60009F3
000BD00005F5
001F900004F6
004F500005F5
007F200009F2
00AE00001EC0
00DC00009F40
01FFC76BF800
04F49EEC6000
07F100000000
0AD000000000
0EA000000000
2F7000000000
5F4000000000
ENDCHAR
STARTCHAR sigma1
ENCODING 962
SWIDTH 453 0
DWIDTH 9 0
BBX 9 15 1 -4
BITMAP
0018DFEA10
02DF968A00
0CE3000000
5F60000000
BE10000000
EB00000000
FA00000000
EB00000000
BF40000000
3EE8200000
02AFF60000
0002CF1000
00007F2000
0000DC0000
000AD20000
ENDCHAR
STARTCHAR sigma
ENCODING 963
SWIDTH 581 0
DWIDTH 12 0
BBX 11 11 1 0
BITMAP
0018DEFFFFC0
04EEA78F8640
1ED2000E8000
8F40000BC000
CD00000AE000
FB00000BE000
FA00000DC000
FB00002F7000
BF2000BE1000
4FD76CF50000
05CFEB300000
ENDCHAR
STARTCHAR tau
ENCODING 964
SWIDTH 417 0
DWIDTH 8 0
BBX 9 11 0 0
BITMAP
17DFFFFFD0
1669FA6650
0007F30000
000AF00000
000DC00000
001F900000
004F500000
007F300000
009F100000
007F964000
001AEE6000
ENDCHAR
STARTCHAR upsilon
ENCODING 965
SWIDTH 576 0
DWIDTH 12 0
BBX 10 11 1 0
BITMAP
06F40000EB
09F10000EA
0CC00000F9
1F900002F8
4F600003F6
7F300006F3
9F00000AE0
AF00002F90
8F2000AE20
2FD76CF600
04BEEB4000
ENDCHAR
STARTCHAR phi
ENCODING 966
SWIDTH 669 0
DWIDTH 13 0
BBX 12 16 1 -5
BITMAP
0039003CEC40
02EC12EC6DE1
0CE108F205F5
5F500CD003F6
AE001F9004F5
EA004F6006F3
F9007F300BE0
EA00AE003F90
BE10DB02DE10
3FD7FB9ED200
03BEFFC71000
0008F2000000
000BE0000000
000EB0000000
002F80000000
004F50000000
ENDCHAR
STARTCHAR chi
ENCODING 967
SWIDTH 502 0
DWIDTH 10 0
BBX 14 16 -3 -5
BITMAP
0000BEA00004F6
000048F6001DB0
000000E9009E20
000000CB04F600
000000AD1DB000
0000008E9E2000
0000007FF60000
0000006FB00000
000001DF700000
00000AEE900000
00005F5CB00000
0002EA0AC00000
000BE109E00000
007F5006F20000
03FA0003FA6000
1DD100008ED100
ENDCHAR
STARTCHAR psi
ENCODING 968
SWIDTH 713 0
DWIDTH 14 0
BBX 13 20 1 -5
BITMAP
0000000BE00000
0000000EA00000
0000002F700000
0000005F400000
06F4009F103F70
09F100CC003F70
0CC000F9004F60
1F9003F6006F50
4F6007F3008F20
6F300AE000BE00
8F100DB001FA00
8F201F8009F400
6F705F506FA000
0CF9AF9CFA1000
018DFFEB500000
0000EA00000000
0002F700000000
0005F400000000
0008F100000000
000BD000000000
ENDCHAR
STARTCHAR omega
ENCODING 969
SWIDTH 729 0
DWIDTH 15 0
BBX 13 11 1 0
BITMAP
00CE1000003F60
06F60000001F90
0DD00000001F90
4F700000001F90
9F2004F5001F80
DD0008F2004F60
FB000BD0007F30
FA000EB000CD00
EC006FB005F600
9F97EAF88FB000
1AED609ED81000
ENDCHAR
STARTCHAR iotadieresis
ENCODING 970
SWIDTH 305 0
DWIDTH 6 0
BBX 6 15 1 0
BITMAP
6E10C8
7C00D6
000000
000000
06F400
09F100
0CD000
0F9000
3F6000
6F3000
9F0000
CC0000
EA0000
DE6710
4DFD10
ENDCHAR
STARTCHAR upsilondieresis
ENCODING 971
SWIDTH 576 0
DWIDTH 12 0
BBX 10 15 1 0
BITMAP
0005E10C80
0006D00D70
0000000000
0000000000
06F40000EB
09F10000EA
0CC00000F9
1F900002F8
4F600003F6
7F300006F3
9F00000AE0
AF00002F90
8F2000AE20
2FD76CF600
04BEEB4000
ENDCHAR
STARTCHAR omicrontonos
ENCODING 972
SWIDTH 561 0
DWIDTH 11 0
BBX 10 16 1 0
BITMAP
0000005F70
000000CD10
000004F400
00000C8000
0000000000
0019DFD600
02DE86BF70
0CE2000CE1
5F600007F3
AF000007F4
EC000008F2
FA00000CE0
FB00002F90
CE1000BE20
4FD77CF500
04CEEA3000
ENDCHAR
STARTCHAR upsilontonos
ENCODING 973
SWIDTH 576 0
DWIDTH 12 0
BBX 10 16 1 0
BITMAP
0000008F50
000000EC00
000006E200
00000D6000
0000000000
06F40000EB
09F10000EA
0CC00000F9
1F900002F8
4F600003F6
7F300006F3
9F00000AE0
AF00002F90
8F2000AE20
2FD76CF600
04BEEB4000
ENDCHAR
STARTCHAR omegatonos
ENCODING 974
SWIDTH 729 0
DWIDTH 15 0
BBX 13 16 1 0
BITMAP
00000000AF3000
00000002F90000
00000009D10000
0000002E300000
00000000000000
00CE1000003F60
06F60000001F90
0DD00000001F90
4F700000001F90
9F2004F5001F80
DD0008F2004F60
FB000BD0007F30
FA000EB000CD00
EC006FB005F600
9F97EAF88FB000
1AED609ED81000
ENDCHAR
STARTCHAR uni03D1
ENCODING 977
SWIDTH 569 0
DWIDTH 11 0
BBX 12 15 0 0
BITMAP
00001AEE9100
0000CE78FA00
0004F5008F20
0007F3004F60
0005F6003F70
0001DE513F70
00002AEFFFFB
5EE400028F62
47F800009F00
04F50000EB00
09E10004F600
0EA0000CE100
1F80008F5000
0EE76BF70000
03BEEB400000
ENDCHAR
STARTCHAR uni03D2
ENCODING 978
SWIDTH 509 0
DWIDTH 10 0
BBX 12 14 1 0
BITMAP
1F9000005DE1
0BD00004FC60
07F2001EC100
04F5009F3000
00E903F70000
00BD0CD00000
007F7F400000
003FFA000000
000EE2000000
000FA0000000
003F70000000
007F30000000
00AF00000000
00DC00000000
ENDCHAR
STARTCHAR uni03D6
ENCODING 982
SWIDTH 791 0
DWIDTH 16 0
BBX 16 11 1 0
BITMAP
5BFFFFFFFFFFFFF3
66BF8666666ED660
01EB0000000CE000
08F30000000AF000
0EC00000000BF000
3F7001F8000CE000
6F4003F6001FA000
7F3007F4005F6000
6F501DF401DE1000
2FD7CCCC6CF50000
05DEB12CEC400000
ENDCHAR
STARTCHAR uni0400
ENCODING 1024
SWIDTH 511 0
DWIDTH 10 0
BBX 11 18 0 0
BITMAP
000004F80000
0000008E1000
0000000B9000
000000000000
0004FFFFFFE0
0007F9888860
000AF0000000
000DC0000000
002F80000000
005F50000000
008FFFFFF400
00BE77777100
00EB00000000
03F700000000
06F400000000
09F100000000
0DE777772000
1FFFFFFF2000
ENDCHAR
STARTCHAR afii10023
ENCODING 1025
SWIDTH 511 0
DWIDTH 10 0
BBX 11 18 0 0
BITMAP
00000AB02E40
00000B903E30
000000000000
000000000000
0004FFFFFFE0
0007F9888860
000AF0000000
000DC0000000
002F80000000
005F50000000
008FFFFFF400
00BE77777100
00EB00000000
03F700000000
06F400000000
09F100000000
0DE777772000
1FFFFFFF2000
ENDCHAR
STARTCHAR afii10051
ENCODING 1026
SWIDTH 666 0
DWIDTH 13 0
BBX 11 14 1 0
BITMAP
0EFFFFFFFD00
1778FC777500
0004F6000000
0007F2000000
000AD0000000
000EFFFFD700
002FA778CF80
005F30000DC0
009F10000CD0
00CC00000EB0
00F900002F80
03F600007F40
07F30489FC00
0AF106EE9100
ENDCHAR
STARTCHAR afii10052
ENCODING 1027
SWIDTH 476 0
DWIDTH 10 0
BBX 11 18 0 0
BITMAP
00000000AF40
00000007E400
0000005D3000
000000000000
0004FFFFFFE0
0007F9888860
000AF0000000
000DC0000000
002F90000000
005F50000000
008F20000000
00BE00000000
00EB00000000
03F700000000
06F400000000
09F100000000
0DD000000000
1F9000000000
ENDCHAR
STARTCHAR afii10053
ENCODING 1028
SWIDTH 584 0
DWIDTH 12 0
BBX 12 14 1 0
BITMAP
000017CEED93
0004EFB88AE4
004FD3000010
01EE20000000
09F500000000
0ED000000000
4FFFFFFFA000
7FA777774000
8F4000000000
7F5000000000
5F9000000000
1EF400000000
05FFB88AD000
003AEFEC8000
ENDCHAR
STARTCHAR afii10054
ENCODING 1029
SWIDTH 501 0
DWIDTH 10 0
BBX 11 14 0 0
BITMAP
00018DFEC710
002DFB89CF10
009F60000200
00DE00000000
00CF10000000
007FB1000000
0009FE600000
00004CFB1000
0000009F9000
0000000ED000
0000000ED000
1000007F9000
9D978CFD1000
5BEFEC710000
ENDCHAR
STARTCHAR afii10055
ENCODING 1030
SWIDTH 272 0
DWIDTH 5 0
BBX 6 14 0 0
BITMAP
0004F6
0007F3
000AE0
000DB0
001F80
005F50
008F20
00BD00
00EA00
03F700
06F400
09F100
0DC000
1F9000
ENDCHAR
STARTCHAR afii10056
ENCODING 1031
SWIDTH 272 0
DWIDTH 5 0
BBX 8 18 0 0
BITMAP
004E20AA
005D10B8
00000000
00000000
0004F600
0007F300
000AE000
000DB000
001F8000
005F5000
008F2000
00BD0000
00EA0000
03F70000
06F40000
09F10000
0DC00000
1F900000
ENDCHAR
STARTCHAR afii10057
ENCODING 1032
SWIDTH 267 0
DWIDTH 5 0
BBX 10 18 -4 -4
BITMAP
00000004F6
00000007F3
0000000AF0
0000000DC0
0000001F90
0000005F50
0000008F20
000000BE00
000000EB00
000002F800
000006F500
000009F100
00000CD000
00000FA000
00004F6000
0000BF2000
198CF80000
1EFC600000
ENDCHAR
STARTCHAR afii10058
ENCODING 1033
SWIDTH 889 0
DWIDTH 18 0
BBX 18 14 -1 0
BITMAP
0000002FFFFFF60000
0000006F988BF30000
000000AE000AE00000
000000EA000EC00000
000004F6002F800000
000009F2005F500000
00000DC0008FFFEA30
00003F8000BE77AFE2
00008F3000EB0006F7
0000DD0003F70002F9
0004F80006F40004F7
000CF20009F1000CF2
68CF70000DE679EF70
8FD700001FFFFDA300
ENDCHAR
STARTCHAR afii10059
ENCODING 1034
SWIDTH 901 0
DWIDTH 18 0
BBX 17 14 0 0
BITMAP
0004F600000EA00000
0007F300003F700000
000AE000006F400000
000DC00000AF100000
002F800000DC000000
005F500001F9000000
008FFFFFFFFFFEB500
00BE77777CF879EF50
00EB00000BE0002FB0
03F700000EB0000ED0
06F400002F80001FB0
09F100006F50008F60
0DC000009F778CFA00
1F900000CFFFEB5000
ENDCHAR
STARTCHAR afii10060
ENCODING 1035
SWIDTH 666 0
DWIDTH 13 0
BBX 11 14 1 0
BITMAP
0EFFFFFFFD00
1778FC777500
0004F6000000
0007F2000000
000AD0000000
000EFFFFD800
002FA778CF80
005F30000DC0
009F10000CD0
00CC00000EB0
00F900002F80
03F600005F50
07F300008F20
0AF10000BE00
ENDCHAR
STARTCHAR afii10061
ENCODING 1036
SWIDTH 559 0
DWIDTH 11 0
BBX 13 18 0 0
BITMAP
000000001ED100
00000000BC1000
00000009B10000
00000000000000
0004F600009F70
0007F30009F700
000AE0009F6000
000DB009F60000
002F809F500000
005F59F5000000
008FBF50000000
00BDBE20000000
00EA2EB0000000
03F707F6000000
06F400CE200000
09F1002FB00000
0DC00007F60000
1F900000CE2000
ENDCHAR
STARTCHAR uni040D
ENCODING 1037
SWIDTH 696 0
DWIDTH 14 0
BBX 14 18 0 0
BITMAP
0000003F900000
00000008E20000
00000000AA0000
00000000000000
0004F5000005FE
0007F200002EFB
000AE00001DCF8
000DA0000AD5F4
002F70007F38F1
005F4004F60BD0
008F102EA00EA0
00BD00CC102F60
00E909E2006F30
03F66F40009F00
06F5F80000CC00
09FDB00001F800
0DFD100004F500
1FF3000007F200
ENDCHAR
STARTCHAR afii10062
ENCODING 1038
SWIDTH 571 0
DWIDTH 11 0
BBX 15 18 -1 0
BITMAP
000007F0002F7000
000004F845CD1000
0000007DFDA20000
0000000000000000
000BE0000001DE10
0007F3000008F500
0002F700003FA000
0000CC0000BE2000
00008F1006F60000
00003F501EB00000
00000D909F200000
000009D2F7000000
000004FBC0000000
000000EF30000000
000006F900000000
00004EC100000000
1B8BFD2000000000
0DFD810000000000
ENDCHAR
STARTCHAR afii10145
ENCODING 1039
SWIDTH 679 0
DWIDTH 14 0
BBX 14 18 0 -4
BITMAP
0004F6000002F9
0007F3000005F5
000AF0000008F2
000DC000000BE0
002F8000000EB0
005F5000003F80
008F2000006F40
00BE0000009F10
00EB000000DD00
03F7000001FA00
06F4000004F600
09F1000007F300
0DE777777CF000
1FFFFFFFFFC000
00002F70000000
00005F40000000
00008F10000000
0000BD00000000
ENDCHAR
STARTCHAR afii10017
ENCODING 1040
SWIDTH 555 0
DWIDTH 11 0
BBX 12 14 -1 0
BITMAP
00000009F600
0000003FF800
000000BCCA00
000004F5BC00
00000DC0AE00
00006F408F10
0001EB006F30
0008F3004F50
002EFFFFFF70
00AF88888F90
03F900000EB0
0BE100000CD0
5F8000000AE0
DE10000008F1
ENDCHAR
STARTCHAR afii10018
ENCODING 1041
SWIDTH 563 0
DWIDTH 11 0
BBX 11 14 0 0
BITMAP
0003FFFFFFE0
0007F9888860
000AF1000000
000DC0000000
001F90000000
004F60000000
008FFFEC6000
00BE778DF800
00EB0001DE00
02F80000BF10
06F50000CE00
09F10005F900
0CE668BFC100
1FFFFEC70000
ENDCHAR
STARTCHAR afii10019
ENCODING 1042
SWIDTH 598 0
DWIDTH 12 0
BBX 12 14 0 0
BITMAP
0004FFFFEB40
0007F8779EF4
000AF00004FA
000DC00001FA
002F800005F7
005F50026EC0
008FFFFFD600
00BE6679FB10
00EA00004F80
03F700000FC0
06F400001FB0
09F10000AF60
0DE6678DFA00
1FFFFFEB5000
ENDCHAR
STARTCHAR afii10020
ENCODING 1043
SWIDTH 476 0
DWIDTH 10 0
BBX 11 14 0 0
BITMAP
0004FFFFFFE0
0007F9888860
000AF0000000
000DC0000000
002F90000000
005F50000000
008F20000000
00BE00000000
00EB00000000
03F700000000
06F400000000
09F100000000
0DD000000000
1F9000000000
ENDCHAR
STARTCHAR afii10021
ENCODING 1044
SWIDTH 621 0
DWIDTH 12 0
BBX 15 18 -2 -4
BITMAP
000000007FFFFF30
00000000CD88DF00
00000003F800DC00
00000008F202F900
0000001EB005F500
0000007F4008F200
000001EC000CE000
000007F4000EB000
00001EC0003F7000
00009F30006F4000
0003FA0000AF1000
001DE10000DD0000
05AFB88888FD8300
0BFFFFFFFFFFF400
0E9000000009F100
2F600000000CC000
5F300000000E9000
8E000000003F6000
ENDCHAR
STARTCHAR afii10022
ENCODING 1045
SWIDTH 511 0
DWIDTH 10 0
BBX 11 14 0 0
BITMAP
0004FFFFFFE0
0007F9888860
000AF0000000
000DC0000000
002F80000000
005F50000000
008FFFFFF400
00BE77777100
00EB00000000
03F700000000
06F400000000
09F100000000
0DE777772000
1FFFFFFF2000
ENDCHAR
STARTCHAR afii10024
ENCODING 1046
SWIDTH 775 0
DWIDTH 16 0
BBX 19 14 -1 0
BITMAP
0009F30003F60003EC10
0001EB0006F3002ED100
00008F4009F002DD2000
00001EC00DC01DE20000
000007F51F91CE300000
000000DD4F6BE4000000
0000007FCFCF40000000
000002EDCEBE10000000
00002DE2EB3F80000000
0001CE32F70BE1000000
001CF405F403F9000000
00AF5008F100BF200000
09F6000CD0003FA00000
8F80000F90000AF30000
ENDCHAR
STARTCHAR afii10025
ENCODING 1047
SWIDTH 532 0
DWIDTH 11 0
BBX 12 14 -1 0
BITMAP
00005ADFEA20
0007FC869FD1
0001400008F4
0000000006F4
000000000BE1
00000014BE40
0005FFFE7100
0003667BF700
00000000AF30
000000005F70
000000006F60
02000002DE10
1FB8679FF400
06BDFEC82000
ENDCHAR
STARTCHAR afii10026
ENCODING 1048
SWIDTH 696 0
DWIDTH 14 0
BBX 14 14 0 0
BITMAP
0004F5000005FE
0007F200002EFB
000AE00001DCF8
000DA0000AD5F4
002F70007F38F1
005F4004F60BD0
008F102EA00EA0
00BD00CC102F60
00E909E2006F30
03F66F40009F00
06F5F80000CC00
09FDB00001F800
0DFD100004F500
1FF3000007F200
ENDCHAR
STARTCHAR afii10027
ENCODING 1049
SWIDTH 696 0
DWIDTH 14 0
BBX 14 18 0 0
BITMAP
000003F4000DB0
000001FB44AF40
0000005CEEB400
00000000000000
0004F5000005FE
0007F200002EFB
000AE00001DCF8
000DA0000AD5F4
002F70007F38F1
005F4004F60BD0
008F102EA00EA0
00BD00CC102F60
00E909E2006F30
03F66F40009F00
06F5F80000CC00
09FDB00001F800
0DFD100004F500
1FF3000007F200
ENDCHAR
STARTCHAR afii10028
ENCODING 1050
SWIDTH 559 0
DWIDTH 11 0
BBX 13 14 0 0
BITMAP
0004F600009F70
0007F30009F700
000AE0009F6000
000DB009F60000
002F809F500000
005F59F5000000
008FBF50000000
00BDBE20000000
00EA2EB0000000
03F707F6000000
06F400CE200000
09F1002FB00000
0DC00007F60000
1F900000CE2000
ENDCHAR
STARTCHAR afii10029
ENCODING 1051
SWIDTH 644 0
DWIDTH 13 0
BBX 14 14 -1 0
BITMAP
0000002FFFFFFD
0000006F9888FA
000000AE0004F7
000000EA0007F3
000004F6000AF0
000009F2000DC0
00000DC0002F90
00003F80005F50
00008F30008F20
0000DD0000BE00
0004F80000EA00
000CF20003F700
68CF700006F400
8FD7000009F100
ENDCHAR
STARTCHAR afii10030
ENCODING 1052
SWIDTH 836 0
DWIDTH 17 0
BBX 17 14 0 0
BITMAP
0004FF40000002EFA0
0007EF6000000AEF70
000ACE8000003FAF40
000E9CA00000BC9F10
002F7AC00005F4CD00
005F48E0000DA1FA00
008F16F1006F24F600
00CC04F201E807F300
00F902F408E10AF000
03F600F62F600DC000
06F200D8AD001F9000
0AE000BDF4005F6000
0DB0009FB0008F2000
1F80007F3000BE0000
ENDCHAR
STARTCHAR afii10031
ENCODING 1053
SWIDTH 678 0
DWIDTH 14 0
BBX 14 14 0 0
BITMAP
0004F6000002F8
0007F3000005F4
000AE0000008F1
000DC000000CD0
002F8000000FA0
005F5000003F60
008FFFFFFFFF30
00BE777777DF00
00EB000000DC00
03F7000001F900
06F4000004F500
09F1000008F200
0DC000000BE000
1F9000000EB000
ENDCHAR
STARTCHAR afii10032
ENCODING 1054
SWIDTH 720 0
DWIDTH 14 0
BBX 13 14 1 0
BITMAP
00003ADFEB4000
0007FEA89EF600
007FA10002DF20
03FB0000006F80
0AF30000002FB0
1FB00000000FB0
4F700000002FA0
6F500000004F90
8F400000008F50
7F60000000DF10
4F90000008F800
0DF400007FD100
04EFA79DFC1000
0029DFEC600000
ENDCHAR
STARTCHAR afii10033
ENCODING 1055
SWIDTH 679 0
DWIDTH 14 0
BBX 14 14 0 0
BITMAP
0004FFFFFFFFF9
0007F877777AF5
000AE0000009F2
000DB000000CE0
002F8000000FB0
005F5000003F80
008F2000006F40
00BE000000AF10
00EA000000DD00
03F7000001FA00
06F4000004F600
09F1000007F300
0DC000000BF000
1F9000000EC000
ENDCHAR
STARTCHAR afii10034
ENCODING 1056
SWIDTH 565 0
DWIDTH 11 0
BBX 12 14 0 0
BITMAP
0004FFFFD810
0007F878CFB0
000AF0000BF3
000DC00007F4
002F800008F3
005F50001DE0
008F2015DF50
00BFFFFFD400
00EC66520000
03F700000000
06F400000000
09F100000000
0DC000000000
1F9000000000
ENDCHAR
STARTCHAR afii10035
ENCODING 1057
SWIDTH 584 0
DWIDTH 12 0
BBX 12 14 1 0
BITMAP
000017CEED93
0004EFC98AE4
004FD3000010
01ED20000000
09F500000000
0ED000000000
4F8000000000
7F6000000000
8F4000000000
7F5000000000
5F9000000000
0EF400000000
04FFA78AD000
003AEFEC8000
ENDCHAR
STARTCHAR afii10036
ENCODING 1058
SWIDTH 498 0
DWIDTH 10 0
BBX 11 14 1 0
BITMAP
0EFFFFFFFFA0
17779FA77740
00007F400000
0000AF100000
0000DC000000
0001F9000000
0005F6000000
0008F3000000
000BE0000000
000EB0000000
003F80000000
006F40000000
009F10000000
00CD00000000
ENDCHAR
STARTCHAR afii10037
ENCODING 1059
SWIDTH 571 0
DWIDTH 11 0
BBX 15 14 -1 0
BITMAP
000BE0000001DE10
0007F3000008F500
0002F700003FA000
0000CC0000BE2000
00008F1006F60000
00003F501EB00000
00000D909F200000
000009D2F7000000
000004FBC0000000
000000EF30000000
000006F900000000
00004EC100000000
1B8BFD2000000000
0DFD810000000000
ENDCHAR
STARTCHAR afii10038
ENCODING 1060
SWIDTH 744 0
DWIDTH 15 0
BBX 14 14 1 0
BITMAP
00000009F20000
0000000BF00000
00039CEFFDA300
008FEA9FBAFF50
07FA106F502EE0
1EC0009F2009F3
5F6000DD0007F3
7F3001FA0009F2
8F4004F7000DD0
5F8008F4008F60
0DF72BF24BF900
02BFFFFFFD5000
00027FB5200000
00007F40000000
ENDCHAR
STARTCHAR afii10039
ENCODING 1061
SWIDTH 519 0
DWIDTH 10 0
BBX 13 14 -1 0
BITMAP
0009F200003FA0
0003F70001DC00
0000CD000BE200
00006F309F3000
00001E96F60000
000009EF800000
000005FC000000
00001DFE000000
0000BE6F500000
0007F40EA00000
004F7009F10000
02EB0004F60000
0CD10000EC0000
9F3000009F2000
ENDCHAR
STARTCHAR afii10040
ENCODING 1062
SWIDTH 665 0
DWIDTH 13 0
BBX 14 18 0 -4
BITMAP
0004F6000006F4
0007F300000AF1
000AE000000DC0
000EB000001F90
002F8000004F60
005F5000008F30
008F200000BE00
00CE000000EB00
00FA000002F800
03F7000006F500
06F4000009F100
0AF100000CD000
0DE888888FD820
1FFFFFFFFFFF10
0000000000BD00
0000000000EA00
0000000002F700
0000000005F400
ENDCHAR
STARTCHAR afii10041
ENCODING 1063
SWIDTH 639 0
DWIDTH 13 0
BBX 11 14 2 0
BITMAP
06F400000EC0
09F100002F80
0CD000005F50
1FA000008F20
3F700000BE00
6F400000EA00
8F300002F700
7F81136BF400
1DFFFFEDF100
0157630CC000
0000001F9000
0000004F6000
0000007F3000
000000BE0000
ENDCHAR
STARTCHAR afii10042
ENCODING 1064
SWIDTH 955 0
DWIDTH 19 0
BBX 20 14 0 0
BITMAP
0004F600006F400008F1
0007F300009F10000CD0
000AE00000DC00000FA0
000EB00001F900003F70
002F800004F600006F30
005F500007F30000AF10
008F10000BE00000DC00
00CD00000EB00001F900
00FA00002F800004F600
03F700005F500008F200
06F300009F10000BE000
0AF00000CD00000EB000
0DE88888FD88888F8000
1FFFFFFFFFFFFFFF4000
ENDCHAR
STARTCHAR afii10043
ENCODING 1065
SWIDTH 957 0
DWIDTH 19 0
BBX 20 18 0 -4
BITMAP
0004F600006F400008F1
0007F300009F10000CD0
000AE00000DC00000FA0
000EB00001F900003F70
002F800004F600006F30
005F500007F30000AF00
008F10000BE00000DC00
00CD00000EB00001F900
00FA00002F800004F500
03F700005F500008F200
06F300009F10000BE000
0AF00000CD00000EB000
0DE88888FD88888FC800
1FFFFFFFFFFFFFFFFE00
0000000000000000DB00
0000000000000001F800
0000000000000004F400
0000000000000007F100
ENDCHAR
STARTCHAR afii10044
ENCODING 1066
SWIDTH 625 0
DWIDTH 13 0
BBX 11 14 1 0
BITMAP
0EFFFD000000
1778FA000000
0004F6000000
0007F3000000
000AF0000000
000EC0000000
002FFFFD8100
005F978BFC00
008F2000AF30
00CE00007F40
00FA00009F30
03F70002ED00
06F967AFE300
0AFFFEC82000
ENDCHAR
STARTCHAR afii10045
ENCODING 1067
SWIDTH 786 0
DWIDTH 16 0
BBX 16 14 0 0
BITMAP
0004F600000000EB
0007F300000003F8
000AF000000006F4
000DC000000009F1
002F800000000CD0
005F500000001FA0
008FFFEB50004F60
00BE778EF6007F30
00EB0002FC00AF00
03F70000DD00DC00
06F40000EC02F800
09F10008F705F500
0DE668CFB008F200
1FFFFEB6000BE000
ENDCHAR
STARTCHAR afii10046
ENCODING 1068
SWIDTH 554 0
DWIDTH 11 0
BBX 10 14 0 0
BITMAP
0004F60000
0007F30000
000AF00000
000DC00000
002F800000
005F500000
008FFFEB50
00BE778EF6
00EB0002FC
03F70000DD
06F40000EC
09F10008F7
0DE668CFB0
1FFFFEB600
ENDCHAR
STARTCHAR afii10047
ENCODING 1069
SWIDTH 584 0
DWIDTH 12 0
BBX 12 14 0 0
BITMAP
0049DEEC7100
006DA89DFC10
00000000AF80
000000001ED0
000000000CF0
000000000BF1
000CFFFFFFE0
000777777FD0
000000002F90
000000008F40
00000002EC00
3000003DE300
CD978BFE3000
5BEFEC710000
ENDCHAR
STARTCHAR afii10048
ENCODING 1070
SWIDTH 979 0
DWIDTH 20 0
BBX 19 14 0 0
BITMAP
0004F6000017CEFC7000
0007F30002DFB88DFA00
000AE0002DE40000BF50
000DC000AF4000003FB0
002F8003FB0000000EE0
005F5008F50000000DE0
008FFFFFF10000000ED0
00BE777EE00000001FC0
00EB000ED00000005F80
03F7000EE0000000AF40
06F4000BF2000004FC00
09F10006FB00003EE300
0DC00000AFD88BFE4000
1F90000006CEFD820000
ENDCHAR
STARTCHAR afii10049
ENCODING 1071
SWIDTH 568 0
DWIDTH 11 0
BBX 13 14 -1 0
BITMAP
000004ADFFFF60
00007FE977BF20
0002FC1000AE00
0007F40000DB00
0009F20001F800
0007F50005F500
0002EE5108F100
00004EFFFFD000
00004FB66FA000
0002ED103F7000
001DE2006F3000
00BF5000AF1000
08F70000DC0000
5FA00001F90000
ENDCHAR
STARTCHAR afii10065
ENCODING 1072
SWIDTH 564 0
DWIDTH 11 0
BBX 10 11 1 0
BITMAP
0018DEA17D
01DF96BBC9
0BF4000DF6
4F90000AF3
9F20000BF0
DD00000EC0
FB00004F90
FA0000CF60
EC0008EF30
8FA6BC8E00
19EE819B00
ENDCHAR
STARTCHAR afii10066
ENCODING 1073
SWIDTH 541 0
DWIDTH 11 0
BBX 11 15 1 0
BITMAP
00000258BD60
0003BFFC9720
004EC5000000
01EB10000000
09E200000000
1E95BED70000
5FBE86CF5000
9FC1001FA000
CE10000EC000
EB00000EB000
FA00002F9000
EB00007F5000
BE1001ED0000
5FD77DE40000
05CFEA300000
ENDCHAR
STARTCHAR afii10067
ENCODING 1074
SWIDTH 538 0
DWIDTH 11 0
BBX 10 11 1 0
BITMAP
0028DFDA20
03EF978FD0
1DE20009F2
7F500009F1
CE10128F70
EFFFFFD400
FC5567DD10
FB00003F60
BE20005F50
4FD769ED10
04BEFD8100
ENDCHAR
STARTCHAR afii10068
ENCODING 1075
SWIDTH 457 0
DWIDTH 9 0
BBX 9 11 0 0
BITMAP
006BDFD700
00BB76BF50
0000002F80
0000008F40
00016CF700
007EE93000
0BF7100000
5F60000000
6F40000000
2FD769E400
04CEEC8100
ENDCHAR
STARTCHAR afii10069
ENCODING 1076
SWIDTH 562 0
DWIDTH 11 0
BBX 10 15 1 0
BITMAP
002ADFD600
001A66CF70
0000000DE1
00000007F4
00000004F7
003AEEA4F7
04FD65CDF7
1ED1001DF6
7F400008F4
CD00000CE0
EB00001FA0
FA00009F40
DD0004FA00
7FB69FC100
07DFD81000
ENDCHAR
STARTCHAR afii10070
ENCODING 1077
SWIDTH 493 0
DWIDTH 10 0
BBX 9 11 1 0
BITMAP
0018DEC400
01DF87DE10
0BF3006F30
4F80009F10
AF214AF800
DFFFFD6000
FC54200000
FA00000000
CE10001000
5FD769E000
05CFEB6000
ENDCHAR
STARTCHAR afii10072
ENCODING 1078
SWIDTH 833 0
DWIDTH 17 0
BBX 19 11 -1 0
BITMAP
007FE90005F3004BEE20
0046AF8007F006FC7700
00000CE00AC02FB00000
000008F20D90AF200000
000007F31F60EB000000
000009FFFFFFF7000000
00000DE4AE48F5000000
00004F90BB05F6000000
0001DE20E802F9000000
167DF502F500BF963000
3EEA3005F2001AEF5000
ENDCHAR
STARTCHAR afii10073
ENCODING 1079
SWIDTH 436 0
DWIDTH 9 0
BBX 10 11 -1 0
BITMAP
0018CEEB30
002E978ED0
00000008F2
00000009F1
0000016F80
0006FFE500
000367DD20
0000002F70
0100005F60
1E9769ED10
08DEEC7100
ENDCHAR
STARTCHAR afii10074
ENCODING 1080
SWIDTH 577 0
DWIDTH 12 0
BBX 10 11 1 0
BITMAP
05F40000CC
09F10000F9
0CD00003F6
0FA00006F3
3F70000AF0
7F30000EC0
AF00004F90
CD0000BF60
DC0008EF30
AF86BB9E00
1BED80AB00
ENDCHAR
STARTCHAR afii10075
ENCODING 1081
SWIDTH 577 0
DWIDTH 12 0
BBX 10 15 1 0
BITMAP
000F6000BD
000DC448F6
0003BEEC50
0000000000
05F40000CC
09F10000F9
0CD00003F6
0FA00006F3
3F70000AF0
7F30000EC0
AF00004F90
CD0000BF60
DC0008EF30
AF86BB9E00
1BED80AB00
ENDCHAR
STARTCHAR afii10076
ENCODING 1082
SWIDTH 477 0
DWIDTH 10 0
BBX 11 11 0 0
BITMAP
004F5002ED20
007F202DD200
00AE01DD2000
00DB1DE20000
01F9CE200000
04FDF5000000
07F4EC000000
0BE06F700000
0EB00BF30000
2F8002FC0000
5F50008F7000
ENDCHAR
STARTCHAR afii10077
ENCODING 1083
SWIDTH 537 0
DWIDTH 11 0
BBX 11 11 -1 0
BITMAP
0000007DFEC0
000009F96EC0
00003F700F90
0000AE103F60
0001E9007F30
0005F400AF00
000BD000DC00
002F8001F900
00AF1004F500
7AF70007F200
DE80000BE000
ENDCHAR
STARTCHAR afii10078
ENCODING 1084
SWIDTH 689 0
DWIDTH 14 0
BBX 14 11 0 0
BITMAP
004FB000001EF1
007FE000009FD0
00ADF10003FEA0
00D9F3000B9E70
01F5D5005E4F40
04F2B800D76F10
07E09A07D09D00
0AB06C1E50C900
0D804E8B01F600
1F501FE303F300
5F200E9006F000
ENDCHAR
STARTCHAR afii10079
ENCODING 1085
SWIDTH 599 0
DWIDTH 12 0
BBX 12 11 0 0
BITMAP
004F600006F4
007F300009F1
00AF00000BD0
00DC00000EA0
01F900002F70
04FFFFFFFF30
07F86666BF10
0AF00000CC00
0EC00000F900
2F800004F600
5F500007F300
ENDCHAR
STARTCHAR afii10080
ENCODING 1086
SWIDTH 561 0
DWIDTH 11 0
BBX 10 11 1 0
BITMAP
0019DFD600
02DE86BF70
0CE2000CE1
5F600007F3
AF000007F4
EC000008F2
FA00000CE0
FB00002F90
CE1000BE20
4FD77CF500
04CEEA3000
ENDCHAR
STARTCHAR afii10081
ENCODING 1087
SWIDTH 577 0
DWIDTH 12 0
BBX 11 11 0 0
BITMAP
004F33BED600
007F5E86CF30
00AFD2004F50
00DF40005F40
01FC00008F20
04F60000BE00
07F20000EB00
0AE00002F800
0EB00005F500
2F800008F100
5F50000CD000
ENDCHAR
STARTCHAR afii10082
ENCODING 1088
SWIDTH 577 0
DWIDTH 12 0
BBX 12 16 -1 -5
BITMAP
0004F23BEC40
0007F5E86DE1
000AFD2005F6
000DF40002F8
001FB00003F7
004F600005F6
007F300009F2
00AF20001EC0
00DF5000AF40
01FAE76CF800
04F45DEC5000
08F100000000
0BD000000000
0EA000000000
2F7000000000
5F5000000000
ENDCHAR
STARTCHAR afii10083
ENCODING 1089
SWIDTH 450 0
DWIDTH 9 0
BBX 9 11 1 0
BITMAP
0017DFEA10
01CF968A00
0BF4000000
5F70000000
AF10000000
DC00000000
FA00000000
FB00000000
CE10000000
5FD7699000
05CFEC5000
ENDCHAR
STARTCHAR afii10084
ENCODING 1090
SWIDTH 872 0
DWIDTH 17 0
BBX 17 11 0 0
BITMAP
004F34CEC203BED600
007F6D77EA4E86DF20
00AFC100AED3006F40
00DF4000AF60006F40
01FB0000CE00009F10
04F60001FA0000CD00
07F20004F60000FA00
0AE00007F30003F700
0EB0000AE00007F300
2F80000DB0000AF100
5F50001F80000DC000
ENDCHAR
STARTCHAR afii10085
ENCODING 1091
SWIDTH 461 0
DWIDTH 9 0
BBX 12 16 -2 -5
BITMAP
000FA00000CD
000DC00005F6
000AE0000DD0
0008F1006F50
0006F300DC00
0004F506F400
0002F60DB000
0000E86F3000
0000C9DB0000
0000ADF30000
00008FA00000
00009F200000
0002F9000000
000BE1000000
66BF60000000
CEC500000000
ENDCHAR
STARTCHAR afii10086
ENCODING 1092
SWIDTH 663 0
DWIDTH 13 0
BBX 12 20 1 -5
BITMAP
0000002F5000
0000006F2000
0000009D0000
000000DA0000
0006BEFFB400
01CFA9F9CF60
0CE307F11DE1
6F600AD007F3
BE000E9005F5
EB002F6006F3
FA005F300AF1
EC008E002FA0
AF30BC01CE20
2EE8EC8EE400
02AEFEC81000
0006F2000000
0009E0000000
000CB0000000
000F80000000
003F50000000
ENDCHAR
STARTCHAR afii10087
ENCODING 1093
SWIDTH 478 0
DWIDTH 10 0
BBX 11 11 -1 0
BITMAP
003F70004FA0
000BD001EC00
0005F40BD200
0000DA8F3000
00007FF50000
00004FB00000
0002EEF20000
001CD2F80000
00AE20AE1000
07F5003F6000
5F90000CD000
ENDCHAR
STARTCHAR afii10088
ENCODING 1094
SWIDTH 595 0
DWIDTH 12 0
BBX 10 15 1 -4
BITMAP
05F40000CC
09F10000F9
0CD00003F6
0FA00006F3
3F70000AE0
7F30000EB0
AF00004F80
CD0000BF50
DC0008FF30
AF86BC7F94
1BEE812DF7
00000006F4
00000009F1
0000000CD0
0000000FA0
ENDCHAR
STARTCHAR afii10089
ENCODING 1095
SWIDTH 555 0
DWIDTH 11 0
BBX 10 11 1 0
BITMAP
0CD00004F6
0FA00007F3
3F70000BE0
5F40002FC0
6F3000AF80
5F812ACF50
0CFFF97F20
004520BE00
000000EB00
000002F800
000005F500
ENDCHAR
STARTCHAR afii10090
ENCODING 1096
SWIDTH 872 0
DWIDTH 17 0
BBX 16 11 1 0
BITMAP
06F40002F80000EB
09F10005F40002F8
0CD00008F10005F5
1FA0000BD00008F2
4F70000EA0000BE0
7F30003F70001FB0
AF00008F40005F70
CD0001EF1000CF40
DC000BDF1008FF10
AF87C94FA6BBAD00
2BED6008EE80BA00
ENDCHAR
STARTCHAR afii10091
ENCODING 1097
SWIDTH 890 0
DWIDTH 18 0
BBX 16 15 1 -4
BITMAP
06F40002F80000EB
09F10005F50002F8
0CD00008F20005F5
1FA0000BE00008F2
4F70000EA0000BE0
7F30003F70001FA0
AF00008F40005F70
CD0001EF1000CF40
DC000BDF1008FF20
AF87CA4FA6BB8F83
2BED7008EE802DF6
00000000000008F3
0000000000000BF0
0000000000000EC0
0000000000001F90
ENDCHAR
STARTCHAR afii10092
ENCODING 1098
SWIDTH 591 0
DWIDTH 12 0
BBX 11 11 0 0
BITMAP
0EFFFF100000
1666ED000000
0001F9000000
0003F6000000
0007F9DEC500
000AE867DF30
000CB0003F70
000EA0001F80
000DC0006F50
0009FA69FC00
00018DFD9100
ENDCHAR
STARTCHAR afii10093
ENCODING 1099
SWIDTH 721 0
DWIDTH 14 0
BBX 13 11 1 0
BITMAP
05F40000000EA0
09F10000002F70
0CD00000005F40
0FA00000008F10
3F91000000CD00
6FFFFD8100EA00
9F876AF803F700
AE0000DC06F400
AE0001EA09F100
5FB67DF30CD000
06CEDA300FA000
ENDCHAR
STARTCHAR afii10094
ENCODING 1100
SWIDTH 519 0
DWIDTH 10 0
BBX 9 11 1 0
BITMAP
05F4000000
09F1000000
0CD0000000
0FA0000000
3FABEEA100
6F9769FB00
9E0000AF10
AE00008F10
AF1000DD00
5FC77CF400
06CEEB4000
ENDCHAR
STARTCHAR afii10095
ENCODING 1101
SWIDTH 456 0
DWIDTH 9 0
BBX 9 11 0 0
BITMAP
06CEFC6000
07967DF600
000001ED00
000000AF10
0000008F20
03FFFFFF00
027777DD00
000001F900
00000BF200
A868DF6000
8DFEA30000
ENDCHAR
STARTCHAR afii10096
ENCODING 1102
SWIDTH 780 0
DWIDTH 16 0
BBX 15 11 0 0
BITMAP
004F60003BEEA200
007F3005FC78FD10
00AF001EB0006F60
00DC008F20002F90
01F900DB00002F90
04FFFFF800003F80
07F868F700006F40
0AF004F70000BE00
0EC001FB0005F700
2F80009FA69FB000
5F500008DFD70000
ENDCHAR
STARTCHAR afii10097
ENCODING 1103
SWIDTH 526 0
DWIDTH 11 0
BBX 11 11 -1 0
BITMAP
00007CEFFFC0
000BFA777F90
003F80004F60
004F50007F30
001EB200AE00
0004DFFFFC00
0006FB78F800
002EB004F500
009F3007F200
28FA000AE000
6EA1000DB000
ENDCHAR
STARTCHAR uni0450
ENCODING 1104
SWIDTH 493 0
DWIDTH 10 0
BBX 9 15 1 0
BITMAP
000DE00000
0003F60000
00005E1000
0000000000
0018DEC400
01DF87DE10
0BF3006F30
4F80009F10
AF214AF800
DFFFFD6000
FC54200000
FA00000000
CE10001000
5FD769E000
05CFEB6000
ENDCHAR
STARTCHAR afii10071
ENCODING 1105
SWIDTH 493 0
DWIDTH 10 0
BBX 9 15 1 0
BITMAP
000B903E30
000C804E20
0000000000
0000000000
0018DEC400
01DF87DE10
0BF3006F30
4F80009F10
AF214AF800
DFFFFD6000
FC54200000
FA00000000
CE10001000
5FD769E000
05CFEB6000
ENDCHAR
STARTCHAR afii10099
ENCODING 1106
SWIDTH 577 0
DWIDTH 12 0
BBX 11 20 0 -5
BITMAP
0004F5000000
0007F2000000
02FFFFFF5000
014EC4441000
002F80000000
005F55CED500
008F8E86DF20
00CFC1006F40
00FF20006F30
03F900009F10
06F40000DC00
0AF00001F900
0DC00004F600
1F800007F200
5F50000BE000
0000000EB000
0000002F8000
0000007F3000
000077EC0000
0000DEB20000
ENDCHAR
STARTCHAR afii10100
ENCODING 1107
SWIDTH 457 0
DWIDTH 9 0
BBX 10 15 0 0
BITMAP
0000000CE2
0000009E30
000007C200
0000000000
006BDFD700
00BB76BF50
0000002F80
0000008F40
00016CF700
007EE93000
0BF7100000
5F60000000
6F40000000
2FD769E400
04CEEC8100
ENDCHAR
STARTCHAR afii10101
ENCODING 1108
SWIDTH 450 0
DWIDTH 9 0
BBX 9 11 1 0
BITMAP
0018DFEA10
02DFA68A00
0BF5000000
5F90000000
AF30000000
DFFFFF7000
FC77772000
FA00000000
CE10000000
5FC7699000
05CFEC5000
ENDCHAR
STARTCHAR afii10102
ENCODING 1109
SWIDTH 428 0
DWIDTH 9 0
BBX 9 11 0 0
BITMAP
004BEEC810
03FD779C00
08F2000000
08F3000000
03EE500000
003CFB1000
00008FB000
000009F200
10000AF100
D976AFA000
7CEEC70000
ENDCHAR
STARTCHAR afii10103
ENCODING 1110
SWIDTH 253 0
DWIDTH 5 0
BBX 6 15 0 0
BITMAP
0006E2
0008F2
000010
000000
004F60
007F30
00AE00
00DC00
01F800
04F500
07F200
0AE000
0EB000
2F8000
5F5000
ENDCHAR
STARTCHAR afii10104
ENCODING 1111
SWIDTH 253 0
DWIDTH 5 0
BBX 7 15 0 0
BITMAP
03E309B0
04E20A90
00000000
00000000
004F6000
007F3000
00AE0000
00DC0000
01F80000
04F50000
07F20000
0AE00000
0EB00000
2F800000
5F500000
ENDCHAR
STARTCHAR afii10105
ENCODING 1112
SWIDTH 253 0
DWIDTH 5 0
BBX 9 20 -3 -5
BITMAP
0000006E20
0000008E20
0000000100
0000000000
000004F600
000007F300
00000AE000
00000DC000
00001F8000
00004F5000
00007F2000
0000AE0000
0000DB0000
0001F80000
0005F50000
0008F20000
000BE00000
001EA00000
46BF300000
7ED5000000
ENDCHAR
STARTCHAR afii10106
ENCODING 1113
SWIDTH 762 0
DWIDTH 15 0
BBX 15 11 -1 0
BITMAP
0000019EFD500000
00000AE7AF300000
00004F70AF100000
0000AE10DC000000
0001E901FA100000
0005F404FFFFEA10
000BD006FA769FB0
002F8008F1000BE0
00AF2007F2000DD0
7AF80003FC66BF60
DE8000005DFFC500
ENDCHAR
STARTCHAR afii10107
ENCODING 1114
SWIDTH 812 0
DWIDTH 16 0
BBX 15 11 0 0
BITMAP
004F60003F700000
007F30006F300000
00AF00008E000000
00DC0000BB000000
01F90000EEDFD910
04FFFFFFFA76AF90
08F86669F2000CD0
0BF00007F1000AE0
0EC00008F4001EB0
2F800004FD77DF40
5F5000005CEEB300
ENDCHAR
STARTCHAR afii10108
ENCODING 1115
SWIDTH 577 0
DWIDTH 12 0
BBX 11 15 0 0
BITMAP
0004F5000000
0007F2000000
02FFFFFF5000
014EB4441000
002F64BED500
005F7E86DF20
008FD2005F50
00CF40005F40
00FB00008F20
03F60000BE00
06F20000EB00
0AE00002F800
0DB00005F400
1F800008F100
5F50000CD000
ENDCHAR
STARTCHAR afii10109
ENCODING 1116
SWIDTH 477 0
DWIDTH 10 0
BBX 11 15 0 0
BITMAP
00000005F900
0000002E9000
000001D70000
000000000000
004F5002ED20
007F202DD200
00AE01DD2000
00DB1DE20000
01F9CE200000
04FDF5000000
07F4EC000000
0BE06F700000
0EB00BF30000
2F8002FC0000
5F50008F7000
ENDCHAR
STARTCHAR uni045D
ENCODING 1117
SWIDTH 577 0
DWIDTH 12 0
BBX 10 15 1 0
BITMAP
0004F70000
00009E1000
00000B8000
0000000000
05F40000CC
09F10000F9
0CD00003F6
0FA00006F3
3F70000AF0
7F30000EC0
AF00004F90
CD0000BF60
DC0008EF30
AF86BB9E00
1BED80AB00
ENDCHAR
STARTCHAR afii10110
ENCODING 1118
SWIDTH 461 0
DWIDTH 9 0
BBX 12 20 -2 -5
BITMAP
00003F4000DA
00001FB44AF3
000005CEEB40
000000000000
000FA00000CD
000DC00005F6
000AE0000DD0
0008F1006F50
0006F300DC00
0004F506F400
0002F60DB000
0000E86F3000
0000C9DB0000
0000ADF30000
00008FA00000
00009F200000
0002F9000000
000BE1000000
66BF60000000
CEC500000000
ENDCHAR
STARTCHAR afii10193
ENCODING 1119
SWIDTH 577 0
DWIDTH 12 0
BBX 10 16 1 -5
BITMAP
05F40000CC
09F10000F9
0CD00003F6
0FA00006F3
3F70000AF0
7F30000EC0
AF00004F90
CD0000BF60
DC0008EF30
AF86BB9E00
1BED80AB00
0000000000
002C700000
006F400000
009F100000
00DC000000
ENDCHAR
STARTCHAR uni0460
ENCODING 1120
SWIDTH 953 0
DWIDTH 19 0
BBX 18 14 1 0
BITMAP
00007DFD9106CEEA10
000BFC8BD10AC8BFB0
009F80001001000BF3
02FC000000000006F5
09F4000000000005F6
0DD0000000000006F5
3F90000000000008F3
5F6000000000000CE0
7F500003F700002FA0
8F400007F400009F40
7F60000BF10003FC00
3FC0004FF1001DF300
0BFC89ECFC89EF5000
019EFD815CFEA30000
ENDCHAR
STARTCHAR uni0461
ENCODING 1121
SWIDTH 717 0
DWIDTH 14 0
BBX 14 11 1 0
BITMAP
EB000CD00001F8
CC000AE00005F5
AE0008F10009F1
9F1006F3000DC0
7F2005F4003F60
5F400CF600AE10
3F507EF702F800
2F72E7E90BD100
0F8AC0CA7F4000
0DDF30AEF70000
0BF9008F900000
ENDCHAR
STARTCHAR uni0462
ENCODING 1122
SWIDTH 619 0
DWIDTH 12 0
BBX 11 15 1 0
BITMAP
0000AE000000
0000DC000000
0001F9000000
5FFFFFFFF000
488CF9887000
000BE0000000
000EA0000000
003FFFEC7000
006F978DFA00
009F1000CF10
00DC00008F30
01F90000BF10
04F50006FB00
08F879CFC100
0BFFFEB60000
ENDCHAR
STARTCHAR uni0463
ENCODING 1123
SWIDTH 551 0
DWIDTH 11 0
BBX 9 13 1 0
BITMAP
004F600000
007F300000
EFFFFFB000
66FC664000
02F7000000
05F4000000
08FCEFD700
0BD876BF60
0E90000EA0
0F80000DB0
0EB0003F80
0AFA68ED10
019DFD9100
ENDCHAR
STARTCHAR uni0464
ENCODING 1124
SWIDTH 860 0
DWIDTH 17 0
BBX 18 14 0 0
BITMAP
0004F6000004ADFEC7
0007F30001AFEA89CC
000AE0000BF8100001
000DC0007F80000000
002F8001ED00000000
005F5006F600000000
008FFFFFFFFFFFF200
00BE777FE777777000
00EB000FC000000000
03F7000ED000000000
06F4000CF200000000
09F10007FB10000000
0DC00000BFD979C700
1F90000007CEFEB400
ENDCHAR
STARTCHAR uni0465
ENCODING 1125
SWIDTH 687 0
DWIDTH 14 0
BBX 14 11 0 0
BITMAP
004F60002AEFD8
007F3003EE8697
00AF001DE20000
00DC007F500000
01F900DD000000
04FFFFFFFFFF30
07F868FA777700
0AF004F6000000
0EC002FA000000
2F8000AFB67A50
5F500017DEEA20
ENDCHAR
STARTCHAR uni0466
ENCODING 1126
SWIDTH 601 0
DWIDTH 12 0
BBX 12 14 -1 0
BITMAP
00000002EB00
0000000AFE00
0000004FBF10
000000DC4F40
000007F42F60
00002EA00E90
0000AFFFFFC0
0004FAAF9CE0
000DD08E07F2
007F40BC05F5
01EA00E802F7
0AE203F500FA
4F7006F200CD
CD0009E000AF
ENDCHAR
STARTCHAR uni0467
ENCODING 1127
SWIDTH 528 0
DWIDTH 11 0
BBX 11 11 -1 0
BITMAP
000001DF8000
000007FDA000
00002E9AD000
0000AF28F000
0003F906F300
000CFFFFF500
005F9BE6F800
00DD0CB0EA00
07F40F70CD00
1EA04F409F10
9E207F107F30
ENDCHAR
STARTCHAR uni0468
ENCODING 1128
SWIDTH 840 0
DWIDTH 17 0
BBX 16 14 0 0
BITMAP
0004F6000004F800
0007F300000DFA00
000AF000007FBD00
000DC00002EA7F10
002F80000AE25F30
005F50004F703F60
008FFFFFFFFFFF90
00BE777CF8CE7EB0
00EB001EA0BB0AE0
03F7009E20E808F1
06F404F703F505F4
09F10CD006F203F7
0DD07F4009E001F9
1F92EB000DA000DC
ENDCHAR
STARTCHAR uni0469
ENCODING 1129
SWIDTH 721 0
DWIDTH 14 0
BBX 13 11 0 0
BITMAP
004F60001EF500
007F40009DE800
00AF1002F6CA00
00DD000AE1AD00
01FA003F708F00
04FFFFFFFFFF30
07F86AF8DD8F50
0AF11DB0E92F80
0EC08F23F50EA0
2F93F806F20CD0
5F5CD10AE009F0
ENDCHAR
STARTCHAR uni046A
ENCODING 1130
SWIDTH 660 0
DWIDTH 13 0
BBX 15 14 -1 0
BITMAP
0000AFFFFFFFFF90
0000AF877777EF40
00003F80000AF400
00000AE1009F4000
000002F909F40000
0000009FAF400000
00005CFFFFE70000
0007FA5EC4CF4000
002FA02F803F8000
00AF205F500FA000
02F9008F200EB000
09F200BE000DC000
2FA000EA000DD000
8F3003F7000CD000
ENDCHAR
STARTCHAR uni046B
ENCODING 1131
SWIDTH 603 0
DWIDTH 12 0
BBX 13 11 -1 0
BITMAP
0008FFFFFFFF70
0006FA7778FD10
0000DB000BE200
00004F40AE3000
00000BC8F40000
0004BEFFFC2000
006F83F83DD000
02FA03F507F200
0AE106F104F500
4F800AD002F700
CE100DA000F900
ENDCHAR
STARTCHAR uni046C
ENCODING 1132
SWIDTH 915 0
DWIDTH 18 0
BBX 19 14 0 0
BITMAP
0004F600AFFFFFFFFF90
0007F300AF877777EF40
000AE0003F800009F400
000DC0000AE1009F5000
002F800003F808F50000
005F500000AE9F500000
008FFFFFFFFFFFC60000
00BE777BFB5ED5CF4000
00EB002EB02F903F8000
03F7009F205F500FA000
06F402F9008F200EB000
09F109F200BE000DC000
0DC02FA000EA000CD000
1F908F3003F7000BD000
ENDCHAR
STARTCHAR uni046D
ENCODING 1133
SWIDTH 800 0
DWIDTH 16 0
BBX 16 11 0 0
BITMAP
004F607FFFFFFFF9
007F405FA7778FD2
00AF100BC000BD20
00DD0003F509C100
01FA0000AD8F5000
04FFFFFFFFFFF800
07F86AF92E92CF10
0AF11EB02F606F40
0EC09F206F303F60
2F93F9009E001F90
5F5BE100CB000EB0
ENDCHAR
STARTCHAR uni046E
ENCODING 1134
SWIDTH 532 0
DWIDTH 11 0
BBX 12 22 -1 -5
BITMAP
000007D108E4
000001D87E41
0000006FF600
00005AEFFB20
0007FB768FE1
0001300008F5
0000000006F4
000000000BE1
00000014BE40
0005FFFE7100
0003667CE600
00000000BF20
000000006F60
000000005F70
000000009F50
00000006FD00
00257ADFD200
1BFFFDA61000
8F6200000000
9FA888873000
1AEFFFFF9000
000000013000
ENDCHAR
STARTCHAR uni046F
ENCODING 1135
SWIDTH 446 0
DWIDTH 9 0
BBX 10 17 -1 -4
BITMAP
0000C907EB
00002EDE62
0007CFFE50
000C966DF2
00000005F6
00000006F4
0000014DB0
0002FFF800
000267BF40
0000000EA0
0000003F80
000369FD20
19EFEB6100
BE51000000
DB10000000
7FFFFFE700
0256667800
ENDCHAR
STARTCHAR uni0470
ENCODING 1136
SWIDTH 734 0
DWIDTH 15 0
BBX 14 14 2 0
BITMAP
2F9000AF1003F8
5F6000DD0007F5
8F3002F9000AF2
CE0005F6000DD0
EB0008F2002FA0
FA000CE0006F60
FC000FB001EE10
AF924F826DF500
1AFFFFFFFD4000
0025CF65300000
0000DD00000000
0001FA00000000
0004F700000000
0007F400000000
ENDCHAR
STARTCHAR uni0471
ENCODING 1137
SWIDTH 713 0
DWIDTH 14 0
BBX 13 20 1 -5
BITMAP
0000000BE00000
0000000EA00000
0000002F700000
0000005F400000
06F4009F103F70
09F100CC003F70
0CC000F9004F60
1F9003F6006F50
4F6007F3008F20
6F300AE000BE00
8F100DB001FA00
8F201F8009F400
6F705F506FA000
0CF9AF9CFA1000
018DFFEB500000
0000EA00000000
0002F700000000
0005F400000000
0008F100000000
000BD000000000
ENDCHAR
STARTCHAR uni0472
ENCODING 1138
SWIDTH 720 0
DWIDTH 14 0
BBX 13 14 1 0
BITMAP
00003ADFEB4000
0007FE98AEF600
007F910002DF20
03FB0000005F80
0AF20000002FB0
1FB00000000FB0
4FFFFFFFFFFFA0
6F977777779F90
8F400000008F50
7F60000000DF10
4FA0000008F800
0DF400007FD100
04EFA78DFC1000
0029DFEC600000
ENDCHAR
STARTCHAR uni0473
ENCODING 1139
SWIDTH 561 0
DWIDTH 11 0
BBX 10 11 1 0
BITMAP
0019DFD700
02DF96BF80
0CF3000CF1
5F800008F3
AF200006F3
EFFFFFFFF2
FC66666DD0
FA00001F80
CE1000AE10
4FC77CF400
04CEEA3000
ENDCHAR
STARTCHAR uni0474
ENCODING 1140
SWIDTH 559 0
DWIDTH 11 0
BBX 13 14 1 0
BITMAP
2F80000005DF60
0FA000004FC630
0DB00000CE1000
0BD00005F70000
0AF0000CE10000
08F1005F700000
06F300CE100000
05F404F7000000
03F60CE1000000
01F74F70000000
00F9BE10000000
00DBF700000000
00BFE100000000
00AF7000000000
ENDCHAR
STARTCHAR uni0475
ENCODING 1141
SWIDTH 439 0
DWIDTH 9 0
BBX 10 11 1 0
BITMAP
FA00002BE5
DB0000CD41
CD0004F500
AE000BD000
8F103F6000
7F20AE0000
5F42F70000
3F58E10000
2F6E900000
0FCF200000
0DFA000000
ENDCHAR
STARTCHAR uni0476
ENCODING 1142
SWIDTH 559 0
DWIDTH 11 0
BBX 13 18 1 0
BITMAP
00DE17F6000000
003F70BD000000
0005E11D700000
00000000000000
2F80000005DF60
0FA000004FC630
0DB00000CE1000
0BD00005F70000
0AF0000CE10000
08F1005F700000
06F300CE100000
05F404F7000000
03F60CE1000000
01F74F70000000
00F9BE10000000
00DBF700000000
00BFE100000000
00AF7000000000
ENDCHAR
STARTCHAR uni0477
ENCODING 1143
SWIDTH 439 0
DWIDTH 9 0
BBX 10 15 1 0
BITMAP
8F52FB0000
0CC07F3000
02D509B000
0000000000
FA00002BE5
DB0000CD41
CD0004F500
AE000BD000
8F103F6000
7F20AE0000
5F42F70000
3F58E10000
2F6E900000
0FCF200000
0DFA000000
ENDCHAR
STARTCHAR uni0478
ENCODING 1144
SWIDTH 1184 0
DWIDTH 24 0
BBX 24 19 1 -5
BITMAP
00003ADFEB40000000000000
0007FEA89EF6000000000000
007FA10002DF200000000000
03FB0000006F808F100006F5
0AF30000002FB06F30000DC0
1FB00000000FB04F50006F40
4F700000002FA02F7001DC00
6F500000004F900EA007F400
8F400000008F500CB01EB000
7F60000000DF100AD07F3000
4F90000008F80008E1EA0000
0DF400007FD10006F6F20000
04EFA79DFC100004FD900000
0029DFEC60000001FF200000
0000000000000002F8000000
000000000000000AE1000000
000000000000004F70000000
00000000000368EC00000000
000000000006EE9100000000
ENDCHAR
STARTCHAR uni0479
ENCODING 1145
SWIDTH 1003 0
DWIDTH 20 0
BBX 20 16 1 -5
BITMAP
0019DFD6002F800001EB
02DE86BF700FA00007F3
0CE2000CE10DC0001EB0
5F600007F30BE0008F30
AF000007F408F101EA00
EC000008F206F308F200
FA00000CE004F42F9000
FB00002F9002F58E2000
CE1000BE2000F7E80000
4FD77CF50000DDE10000
04CEEA300000AF700000
000000000000BE100000
000000000004F7000000
00000000001DD0000000
0000000176CF40000000
00000001DEC400000000
ENDCHAR
STARTCHAR uni047A
ENCODING 1146
SWIDTH 738 0
DWIDTH 15 0
BBX 14 16 1 -1
BITMAP
0000001BE40000
00004BFFFE8100
0009FDAFFBFC10
008F9007308F70
03FB0000000ED0
0BF20000000BF1
1FB000000009F2
5F700000000AF1
6F500000000CF0
8F400000001FB0
6F500000007F70
4F90000001EE10
0DE306401CF500
04FEBFE7EF7000
003BFFFFB30000
00009E81000000
ENDCHAR
STARTCHAR uni047B
ENCODING 1147
SWIDTH 578 0
DWIDTH 12 0
BBX 10 13 1 -1
BITMAP
00006E8000
002BFFFA20
03EDAF9ED0
0DD10006F5
6F500002F8
BE000003F8
EB000004F7
FA000007F4
EB00000CE0
CE10006F70
5FBAF9FB00
05DFFE8000
000DD20000
ENDCHAR
STARTCHAR uni047C
ENCODING 1148
SWIDTH 953 0
DWIDTH 19 0
BBX 18 20 1 0
BITMAP
000000006DFEB97000
00000001A635798000
0000000001EB000000
00000000007D000000
000000000492000000
000000000000000000
00007DFD9106CEEA10
000BFC8BD10AC8BFB0
009F80001001000BF3
02FC000000000006F5
09F4000000000005F6
0DD0000000000006F5
3F90000000000008F3
5F6000000000000CE0
7F5000000000002FA0
8F4000000000009F40
6F600000000003FB00
3FC0000620002DE300
0AFC89DFE979EF5000
019EFD949DFDA30000
ENDCHAR
STARTCHAR uni047D
ENCODING 1149
SWIDTH 758 0
DWIDTH 15 0
BBX 14 17 1 0
BITMAP
000002BFEA6310
00000CA359DF20
00000009E20000
00000001E30000
0000000A500000
00000000000000
004BED607DEB20
05FD8A40798FC0
1ED100000009F1
7F5000000007F3
BE0000000008F2
EC000000000AF1
FA000000000DD0
FA000000004F80
CE10010001DF20
6FC89ED88DF600
07DFD8BEEB4000
ENDCHAR
STARTCHAR uni047E
ENCODING 1150
SWIDTH 953 0
DWIDTH 19 0
BBX 18 17 1 0
BITMAP
0000005FDDFDDF8000
0000002900B00B0000
000000000000000000
00007DFD9106CEEA10
000BFC8BD10AC8BFB0
009F80001001000BF3
02FC000000000006F5
09F4000000000005F6
0DD0000000000006F5
3F90000000000008F3
5F6000000000000CE0
7F500003F700002FA0
8F400007F400009F40
7F60000BF10003FC00
3FC0004FF1001DF300
0BFC89EBFC89EF5000
019EFD704CFEA30000
ENDCHAR
STARTCHAR uni047F
ENCODING 1151
SWIDTH 717 0
DWIDTH 14 0
BBX 14 14 1 0
BITMAP
000DEDEEDEE100
00092083065000
00000000000000
EB000CD00001F8
CC000AE00005F5
AE0008F10009F1
9F1006F3000DC0
7F2005F4003F60
5F400CF600AE10
3F507EF702F800
2F72E7E90BD100
0F8AC0CA7F4000
0DDF30AEF70000
0BF9008F900000
ENDCHAR
STARTCHAR uni0480
ENCODING 1152
SWIDTH 584 0
DWIDTH 12 0
BBX 12 19 1 -5
BITMAP
000017CEED93
0004EFC98AE4
004FD3000010
01ED20000000
09F500000000
0ED000000000
4F8000000000
7F6000000000
8F4000000000
7F5000000000
5F9000000000
1EF500000000
04FFB8810000
003AEFE00000
00000EB00000
00002F800000
00005F500000
00008F200000
0000BE000000
ENDCHAR
STARTCHAR uni0481
ENCODING 1153
SWIDTH 450 0
DWIDTH 9 0
BBX 9 16 1 -5
BITMAP
0018DFEA10
02DF968A00
0BF4000000
4F80000000
AF10000000
DC00000000
FA00000000
FA00000000
DE10000000
6FD8890000
05CFFA0000
0003F70000
0006F40000
0009F10000
000CD00000
000EA00000
ENDCHAR
STARTCHAR uni0482
ENCODING 1154
SWIDTH 608 0
DWIDTH 12 0
BBX 11 13 1 0
BITMAP
00000004B100
0004000CD000
001ED56F4000
0003BFFB0000
00000AFF8100
00002EA8FD10
56009E102800
8FC6F7000000
04DFF2000000
005FFE600000
00DC2AF60000
07F400410000
06A000000000
ENDCHAR
STARTCHAR uni0483
ENCODING 1155
SWIDTH 560 0
DWIDTH 11 0
BBX 8 3 3 11
BITMAP
000000C9
6FFFFFF7
7D100000
ENDCHAR
STARTCHAR uni0484
ENCODING 1156
SWIDTH 580 0
DWIDTH 12 0
BBX 8 2 3 12
BITMAP
0358CEE7
4EC9637E
ENDCHAR
STARTCHAR uni0485
ENCODING 1157
SWIDTH 580 0
DWIDTH 12 0
BBX 3 3 6 12
BITMAP
8E20
A900
1960
ENDCHAR
STARTCHAR uni0486
ENCODING 1158
SWIDTH 580 0
DWIDTH 12 0
BBX 3 3 6 12
BITMAP
4E70
0A90
6910
ENDCHAR
STARTCHAR uni0488
ENCODING 1160
SWIDTH 988 0
DWIDTH 20 0
BBX 20 17 0 -3
BITMAP
000000008ED300000000
00000002A14B00000000
00000000000100000000
004DE700000001CEA000
00B31B20000007618600
00000000000000000000
00000000000000000000
1CEA100000000002CE90
761860000000000941A4
00000000000000000000
00000000000000000000
00000000000000000000
004DE700000001CEA000
00B31B20000007618600
00000000000000000000
000000009FD300000000
00000002A13B00000000
ENDCHAR
STARTCHAR uni0489
ENCODING 1161
SWIDTH 956 0
DWIDTH 19 0
BBX 19 19 0 -4
BITMAP
00000000078000000000
000000000D5000000000
000820002F3000000000
0008B0006F10003B7000
0002F600000009FB1000
00009500000008800000
00000000000000000000
00000000000000000000
8A520000000000098100
4EFC00000000000BFE60
017B00000000000159A0
00000000000000000000
00000000000000000000
00000000000003A00000
00029B10000005F30000
004C72000D8000A90000
000000001F4000190000
000000003E0000000000
00000000690000000000
ENDCHAR
STARTCHAR uni048A
ENCODING 1162
SWIDTH 703 0
DWIDTH 14 0
BBX 14 22 0 -4
BITMAP
000003F4000DB0
000001FB44AF40
0000004CEEB400
00000000000000
0004F5000005FE
0007F200002EFB
000AE00001DCF8
000DA0000AD5F4
002F70007F38F1
005F4004F60BD0
008F102EA00EA0
00BD00CC102F60
00E909E2006F30
03F66F40009F00
06F5F80000CC00
09FDB00001F800
0DFD100004FA70
1FF3000007FF90
00000000005F20
0000000001DA00
0000000008F400
000000002EC000
ENDCHAR
STARTCHAR uni048B
ENCODING 1163
SWIDTH 579 0
DWIDTH 12 0
BBX 10 19 1 -4
BITMAP
000F7000AD
000DC548F6
0003BEEC60
0000000000
05F40000CC
09F10000F9
0CD00003F6
0FA00006F3
3F70000AF0
7F30000EC0
AF00004F90
CD0000BF60
DC0008EF30
AF86BB9F73
1BED80AFF3
00000009C0
0000002F50
0000009E00
000001E800
ENDCHAR
STARTCHAR uni048C
ENCODING 1164
SWIDTH 553 0
DWIDTH 11 0
BBX 10 14 0 0
BITMAP
0003F60000
0006F40000
02FFFFFF00
027ED77600
001F900000
004F500000
007FFFEB50
00BE789EF5
00EB0002FB
02F70000DD
06F40001EB
09F1001AF5
0CE779EF90
1FFFED9400
ENDCHAR
STARTCHAR uni048D
ENCODING 1165
SWIDTH 519 0
DWIDTH 10 0
BBX 9 15 1 0
BITMAP
007F300000
00BE000000
6FFFFF4000
26F9441000
05F5000000
09F2000000
0CE0000000
0FB0000000
3F80000000
6FDDFEA200
9F8768FD00
BE00009F10
AE0000BE00
5FB67BF700
06CEEB5000
ENDCHAR
STARTCHAR uni048E
ENCODING 1166
SWIDTH 565 0
DWIDTH 11 0
BBX 12 14 0 0
BITMAP
0004FFFFD810
0007F878CFB0
000AE0000BF2
000DC00007F4
002F800008F3
005F506A0DE1
008F205FCF60
00BFFFFFF600
00EC6669F200
03F70001C400
06F400000000
09F100000000
0DC000000000
1F9000000000
ENDCHAR
STARTCHAR uni048F
ENCODING 1167
SWIDTH 577 0
DWIDTH 12 0
BBX 12 16 -1 -5
BITMAP
0004F23BEC40
0007F5E87EE1
000AFD2005F6
000DF40002F8
001FB00003F8
004F600004F6
007F300008F3
00AF20000CE0
00DF50884F80
01FAE8AEED10
04F45DFFE200
08F1001AE100
0BD00002C200
0EA000000000
2F7000000000
5F5000000000
ENDCHAR
STARTCHAR afii10050
ENCODING 1168
SWIDTH 476 0
DWIDTH 10 0
BBX 12 17 0 0
BITMAP
0000000002F8
0000000005F4
0000000008F1
0004FFFFFFD0
0007F9888850
000AF0000000
000DC0000000
001F90000000
005F50000000
008F20000000
00BE00000000
00EB00000000
03F700000000
06F400000000
09F100000000
0DD000000000
1F9000000000
ENDCHAR
STARTCHAR afii10098
ENCODING 1169
SWIDTH 382 0
DWIDTH 8 0
BBX 9 14 0 0
BITMAP
0000000BE0
0000000EB0
0000003F80
004FFFFF40
007F533310
00AE000000
00DB000000
01F8000000
04F5000000
07F2000000
0AE0000000
0EB0000000
2F80000000
5F50000000
ENDCHAR
STARTCHAR uni0492
ENCODING 1170
SWIDTH 471 0
DWIDTH 9 0
BBX 11 14 0 0
BITMAP
0004FFFFFFD0
0007F9888850
000BE0000000
000EB0000000
003F80000000
006F40000000
1FFFFFF30000
17ED77700000
01FA00000000
04F600000000
07F300000000
0AF100000000
0DC000000000
1F9000000000
ENDCHAR
STARTCHAR uni0493
ENCODING 1171
SWIDTH 382 0
DWIDTH 8 0
BBX 9 11 0 0
BITMAP
004FFFFF50
007F766610
00AF000000
00DC000000
01F9000000
BFFFFF1000
39F5330000
0AE0000000
0DB0000000
1F80000000
5F50000000
ENDCHAR
STARTCHAR uni0494
ENCODING 1172
SWIDTH 603 0
DWIDTH 12 0
BBX 11 19 0 -5
BITMAP
0004FFFFFFE0
0007F9888860
000AE0000000
000DB0000000
002F80000000
005F40000000
008FEFD92000
00BD77AFE300
00EA0005FC00
03F70000BF20
06F300007F50
09F100006F60
0DC000007F40
1F900000AF30
00000001ED00
00000008F700
0000007FD000
08A89DFD2000
06DEEC710000
ENDCHAR
STARTCHAR uni0495
ENCODING 1173
SWIDTH 491 0
DWIDTH 10 0
BBX 9 16 0 -5
BITMAP
004FFFFF60
007F766620
00AF000000
00DC000000
01FA000000
04FEFE8000
07FA7BFA00
0AF000BF20
0EC0005F60
2F80004F60
5F50005F50
0000008F30
000000EE00
000009F600
0987CFA000
07EEC60000
ENDCHAR
STARTCHAR uni0496
ENCODING 1174
SWIDTH 821 0
DWIDTH 16 0
BBX 19 18 -1 -4
BITMAP
0009F30003F60003EC10
0001EB0006F3002ED100
00008F4009F002DD2000
00001EC00DC01DE20000
000007F51F91CE300000
000000DD4F6BE4000000
0000007FCFCF40000000
000002EDCEBE10000000
00002DE2EB3F80000000
0001CE32F70BE1000000
001CF405F403F9000000
00AF5008F100BF200000
09F6000CD0003FC83000
8F80000F90000AFF3000
000000000000009F0000
00000000000000CC0000
00000000000000F90000
00000000000003F60000
ENDCHAR
STARTCHAR uni0497
ENCODING 1175
SWIDTH 837 0
DWIDTH 17 0
BBX 19 15 -1 -4
BITMAP
007FE90005F3004BEE20
0046AF8007F006FC7700
00000CE00AC02FB00000
000008F20D90AF200000
000007F31F60EB000000
000009FFFFFFF7000000
00000DE4AE48F5000000
00004F90BB05F6000000
0001DE20E802F9000000
167DF502F500BF965000
3EEA3005F2001AEF7000
000000000000006F4000
000000000000009F1000
00000000000000BD0000
00000000000000EA0000
ENDCHAR
STARTCHAR uni0498
ENCODING 1176
SWIDTH 532 0
DWIDTH 11 0
BBX 12 18 -1 -4
BITMAP
00005ADFEA20
0007FC869FD1
0001400008F4
0000000006F4
000000000BE1
00000014BE40
0005FFFE7100
0003667BF700
00000000AF30
000000005F70
000000006F60
02000002DE10
1FB8679FF400
06BDFEC82000
00003E100000
00000F400000
00025F300000
002EE8000000
ENDCHAR
STARTCHAR uni0499
ENCODING 1177
SWIDTH 436 0
DWIDTH 9 0
BBX 10 15 -1 -4
BITMAP
0018CEEB30
002E978ED0
00000008F2
00000009F1
0000016F80
0006FFE500
000367DD20
0000002F70
0100005F60
1E9769ED10
08DEEC7100
0001E20000
0000D70000
0024F60000
00DEA00000
ENDCHAR
STARTCHAR uni049A
ENCODING 1178
SWIDTH 600 0
DWIDTH 12 0
BBX 13 18 0 -4
BITMAP
0004F600009F70
0007F30009F600
000AE0009F6000
000EB009F60000
002F809F500000
005F59F5000000
008FBF50000000
00CDBE20000000
00FA2EB0000000
03F707F6000000
06F400CE200000
0AF1002FB00000
0DC00007FA7000
1F900000CFB000
000000001F8000
000000004F5000
000000007F2000
00000000AE0000
ENDCHAR
STARTCHAR uni049B
ENCODING 1179
SWIDTH 520 0
DWIDTH 10 0
BBX 11 15 0 -4
BITMAP
004F5002EC10
007F202DC100
00AE02DC1000
00DB1DC10000
01F9DC100000
04FDF3000000
07F4EA000000
0BE06F500000
0EB00BE10000
2F8002FB6200
5F50008FF400
00000008F100
0000000BD000
0000000EA000
0000002F7000
ENDCHAR
STARTCHAR uni049C
ENCODING 1180
SWIDTH 559 0
DWIDTH 11 0
BBX 13 14 0 0
BITMAP
0004F60000AF60
0007F3001BF600
000AE1F5CF5000
000EB4FEE40000
002F87FE400000
005F6DE3000000
008FCF90000000
00CFBFF1000000
00FB5FF8000000
03F78CCE100000
06F4B95F700000
0AF1000DE00000
0DC00006F60000
1F900000ED0000
ENDCHAR
STARTCHAR uni049D
ENCODING 1181
SWIDTH 475 0
DWIDTH 10 0
BBX 11 11 0 0
BITMAP
005F5001BE30
008F1E6BD200
00BD2FCD2000
00EA5FD20000
02F8CC100000
05FDF5000000
09F3F9000000
0CD3FF400000
0EA6DCD10000
3F79A3F90000
6F40008F5000
ENDCHAR
STARTCHAR uni049E
ENCODING 1182
SWIDTH 557 0
DWIDTH 11 0
BBX 13 14 0 0
BITMAP
0004F600009F60
0007F40009F600
01FFFFD09F5000
027ED769F50000
001F90AF500000
005F5AF5000000
008FBFD0000000
00BFB8F4000000
00EB01EB000000
03F7009F200000
06F4003F900000
09F1000BE10000
0DC00005F70000
1F900000ED0000
ENDCHAR
STARTCHAR uni049F
ENCODING 1183
SWIDTH 478 0
DWIDTH 10 0
BBX 11 15 0 0
BITMAP
0005F5000000
0007F2000000
03FFFFF70000
014EB4410000
002F7003EC10
005F402EC100
009F02DC1000
00CB2DC10000
00F8DE100000
03FEEF200000
07F93F900000
0AE00BE10000
0DB004F70000
2F8000DE0000
5F50006F6000
ENDCHAR
STARTCHAR uni04A0
ENCODING 1184
SWIDTH 631 0
DWIDTH 13 0
BBX 14 14 1 0
BITMAP
0EFFFD00003EC1
1777FA0003EC10
0003F7003EC100
0007F303EC1000
000AF03EB10000
000DC3EB100000
001FCEB0000000
004F9F80000000
008F2AF3000000
00BE01ED000000
00EB005F800000
02F7000AF30000
06F40002ED0000
09F100006F8000
ENDCHAR
STARTCHAR uni04A1
ENCODING 1185
SWIDTH 560 0
DWIDTH 11 0
BBX 12 11 0 0
BITMAP
1FFFFF0006F7
1666EC006F70
0001F905F700
0004F65F8000
0007F7F80000
000AEEC00000
000DC6F50000
001F80CE1000
004F502FA000
007F2008F500
00AE0000DE10
ENDCHAR
STARTCHAR uni04A2
ENCODING 1186
SWIDTH 676 0
DWIDTH 14 0
BBX 14 18 0 -4
BITMAP
0004F6000002F8
0007F3000005F4
000AE0000008F1
000DC000000CD0
002F8000000FA0
005F5000003F60
008FFFFFFFFF30
00BE777777DF00
00EB000000DC00
03F7000001F800
06F4000004F500
09F1000008F200
0DC000000BF830
1F9000000EFF40
00000000008F10
0000000000BD00
0000000000EA00
0000000001F700
ENDCHAR
STARTCHAR uni04A3
ENCODING 1187
SWIDTH 599 0
DWIDTH 12 0
BBX 12 15 0 -4
BITMAP
004F600006F4
007F300009F1
00AF00000BD0
00DC00000EA0
01F900002F70
04FFFFFFFF30
07F86666BF10
0AF00000CC00
0EC00000F900
2F800004FA40
5F500007FF90
000000005F60
000000007F30
00000000AF00
00000000DC00
ENDCHAR
STARTCHAR uni04A4
ENCODING 1188
SWIDTH 754 0
DWIDTH 15 0
BBX 17 14 0 0
BITMAP
0004F6000002FFFFB0
0007F3000005F97740
000AE0000008F20000
000DC000000CD00000
002F8000000FA00000
005F5000003F700000
008FFFFFFFFF300000
00BE777777DF000000
00EB000000DC000000
03F7000001F9000000
06F4000004F5000000
09F1000008F2000000
0DC000000BE0000000
1F9000000EB0000000
ENDCHAR
STARTCHAR uni04A5
ENCODING 1189
SWIDTH 687 0
DWIDTH 14 0
BBX 15 11 0 0
BITMAP
004F600006FFFFA0
007F300009F66630
00AF00000BD00000
00DC00000EA00000
01F900002F700000
04FFFFFFFF300000
07F86666BF100000
0AF00000CC000000
0EC00000F9000000
2F800004F6000000
5F500007F3000000
ENDCHAR
STARTCHAR uni04A6
ENCODING 1190
SWIDTH 996 0
DWIDTH 20 0
BBX 19 19 0 -5
BITMAP
0004FFFFFFFFF4000000
0007F877777CF1000000
000AE000000DC0000000
000DB000001F90000000
002F8000004F50000000
005F5000007F20000000
008F200000BFEFD81000
00BE000000EC77BFD100
00EA000002F70007FA00
03F7000005F40000DF10
06F4000008F100009F30
09F100000CD000008F40
0DC000000FA000009F20
1F9000003F700000CF10
0000000000000002FB00
000000000000000AF500
000000000000008FB000
000000000A979DFB1000
0000000007DFEB600000
ENDCHAR
STARTCHAR uni04A7
ENCODING 1191
SWIDTH 817 0
DWIDTH 16 0
BBX 15 16 0 -5
BITMAP
004FFFFFFFD00000
007F76667FA00000
00AE00003F700000
00DB00006F400000
01F800009F100000
04F50000CFDEC400
07F20001FD78EF30
0AE00003F7003FA0
0EB00007F4000CE0
2F80000AF1000BE0
5F50000DC0000CD0
0000000000001FB0
0000000000006F70
000000000002EE10
00000003B79EE400
00000002CEEA3000
ENDCHAR
STARTCHAR uni04A8
ENCODING 1192
SWIDTH 720 0
DWIDTH 14 0
BBX 13 15 1 -1
BITMAP
000039DFEB0000
0007FFA8990000
008FB2006BB400
03FB000AFDEF20
0BF2005FA05F80
1FB000CF102FA0
5F7002FB003F90
6F5004F7004F80
8F4006F6009F40
7F6006F601EE00
4FA004F709F600
0DF401EC8FB000
04EFA7DFFA0000
0029DFEDFD9800
000000007EF800
ENDCHAR
STARTCHAR uni04A9
ENCODING 1193
SWIDTH 599 0
DWIDTH 12 0
BBX 10 11 1 0
BITMAP
0029DEC000
03EE867000
1DD103BEC3
7F501EE8EC
CE008F40AF
EB00CE00BE
FA00EC01EB
FB00DD07F5
BF20AF7FB0
4FD79FFD73
04CFEBDFE4
ENDCHAR
STARTCHAR uni04AA
ENCODING 1194
SWIDTH 584 0
DWIDTH 12 0
BBX 12 18 1 -4
BITMAP
000017CEED93
0004EFC98AE4
004FD3000010
01ED20000000
09F500000000
0ED000000000
4F8000000000
7F6000000000
8F4000000000
7F5000000000
5F9000000000
0EF400000000
04FFA78AD000
003AEFEC8000
00002E100000
00000F500000
00025F400000
001EE8000000
ENDCHAR
STARTCHAR uni04AB
ENCODING 1195
SWIDTH 450 0
DWIDTH 9 0
BBX 9 15 1 -4
BITMAP
0017DFEA10
01CF968A00
0BF4000000
5F70000000
AF10000000
DC00000000
FA00000000
FB00000000
CE10000000
5FD7699000
05CFEC5000
001E200000
000D700000
024F600000
0DEA000000
ENDCHAR
STARTCHAR uni04AC
ENCODING 1196
SWIDTH 498 0
DWIDTH 10 0
BBX 11 18 1 -4
BITMAP
0EFFFFFFFFA0
17779FA77740
00007F400000
0000AF100000
0000DC000000
0001F9000000
0005F6000000
0008F2000000
000BE0000000
000EB0000000
003F80000000
006F40000000
009F94000000
00CFF6000000
0006F3000000
0009E0000000
000CC0000000
000E90000000
ENDCHAR
STARTCHAR uni04AD
ENCODING 1197
SWIDTH 884 0
DWIDTH 18 0
BBX 17 15 0 -4
BITMAP
004F34CEC203BED600
007F6D77EA4E86DF20
00AFC100AED3006F40
00DF4000AF60006F40
01FB0000CE00009F10
04F60001FA0000CD00
07F20004F60001F900
0AE00007F30004F600
0EB0000AE00007F300
2F80000DB00008F840
5F50001F800002DF80
000000000000005F50
000000000000008F20
00000000000000BE00
00000000000000EB00
ENDCHAR
STARTCHAR uni04AE
ENCODING 1198
SWIDTH 502 0
DWIDTH 10 0
BBX 11 14 1 0
BITMAP
1F9000005F80
0BD00001EC00
07F2000AF300
04F5005F7000
00E901EC0000
00BD0AE20000
007F6F600000
003FFA000000
000EE1000000
000F90000000
003F60000000
007F30000000
00AF00000000
00DC00000000
ENDCHAR
STARTCHAR uni04AF
ENCODING 1199
SWIDTH 461 0
DWIDTH 9 0
BBX 9 16 1 -5
BITMAP
FA00000CD0
DC00006F50
BE0001DC00
9F0007F400
7F201EA000
5F409F2000
3F62F90000
1F7AE10000
0EAF700000
0CFD000000
0AF5000000
0AE0000000
0DB0000000
1F80000000
5F50000000
8F20000000
ENDCHAR
STARTCHAR uni04B0
ENCODING 1200
SWIDTH 502 0
DWIDTH 10 0
BBX 11 14 1 0
BITMAP
1F9000005F80
0BD00001EC00
07F2000AF300
03F5005F6000
00E901EB0000
00AD0AE10000
006F6F500000
002FF9000000
000ED1000000
BFFFFFF60000
78AFA8820000
007F30000000
00AF00000000
00DC00000000
ENDCHAR
STARTCHAR uni04B1
ENCODING 1201
SWIDTH 461 0
DWIDTH 9 0
BBX 11 16 -1 -5
BITMAP
00FA00000CD0
00DC00006F50
00BE0001DC00
009F0007F300
007F201EA000
005F409F2000
003F62F80000
001F7AE10000
000EAF700000
000CFD000000
000AF5000000
2FFFFFF70000
133EC3310000
002F80000000
005F50000000
008F20000000
ENDCHAR
STARTCHAR uni04B2
ENCODING 1202
SWIDTH 568 0
DWIDTH 11 0
BBX 13 18 -1 -4
BITMAP
0009F200003FA0
0003F70001DC00
0000CD000BD200
00006F309F3000
00001E96F50000
000009EF800000
000005FC000000
00001DFE000000
0000BE6F500000
0007F40EA00000
004F7009F10000
02EB0004F60000
0CD10000ED8200
9F3000009FF200
0000000009E000
000000000CB000
000000001F8000
000000003F5000
ENDCHAR
STARTCHAR uni04B3
ENCODING 1203
SWIDTH 520 0
DWIDTH 10 0
BBX 11 15 0 -4
BITMAP
009E1000AF30
003F6007F600
000BC04F9000
0005F5EB0000
0000DFD10000
0000BF500000
0007FEA00000
004F77F20000
02EA01F80000
1DD100AE6200
BE30003FF500
00000008F100
0000000BD000
0000000EA000
0000002F7000
ENDCHAR
STARTCHAR uni04B4
ENCODING 1204
SWIDTH 776 0
DWIDTH 16 0
BBX 15 18 1 -4
BITMAP
0EFFFFFFFFA03F70
1888AFB888406F40
00007F4000009F10
0000AF100000DD00
0000DC000001F900
0001F9000004F600
0005F6000007F300
0008F200000BE000
000BE000000EC000
000EB000002F8000
003F8000005F5000
006F4000009F2000
009F888888DF7300
00CFFFFFFFFFF500
000000000008F200
00000000000BE000
00000000000DB000
00000000001F8000
ENDCHAR
STARTCHAR uni04B5
ENCODING 1205
SWIDTH 657 0
DWIDTH 13 0
BBX 13 15 0 -4
BITMAP
0EFFFFFFC05F50
1668FB66408F20
0005F50000BD00
0008F20000EA00
000BE00002F700
000EB00006F400
002F70000CF100
005F50004FD000
005F4002DFA000
002FC68E4FD610
0006DEB308FE00
0000000000EB00
0000000002F900
0000000005F600
0000000008F300
ENDCHAR
STARTCHAR uni04B6
ENCODING 1206
SWIDTH 636 0
DWIDTH 13 0
BBX 11 18 2 -4
BITMAP
06F400000EC0
09F100002F80
0CD000005F50
1FA000008F20
4F700000BE00
7F400000EA00
8F200002F700
7F81126BF400
1DFFFFEDF100
0157630CC000
0000001F9000
0000004F6000
0000007FA500
000000BFF700
00000005F400
00000008F100
0000000BD000
0000000EA000
ENDCHAR
STARTCHAR uni04B7
ENCODING 1207
SWIDTH 543 0
DWIDTH 11 0
BBX 10 15 1 -4
BITMAP
0CD00004F6
0FA00007F3
3F70000BE0
6F40002FC0
7F3000BF90
5F812ACF50
0CFFF87F20
004520AE00
000000EB00
000002FB50
000005FFB0
0000002F80
0000005F50
0000008F20
000000BE00
ENDCHAR
STARTCHAR uni04B8
ENCODING 1208
SWIDTH 639 0
DWIDTH 13 0
BBX 11 14 2 0
BITMAP
06F400000EC0
09F100002F80
0CD000005F50
0FA000008F20
3F706E00BE00
6F409B00EA00
8F20C902F700
7F81E86BF400
1DFFFFEDF100
005AE40CC000
0009B01F9000
000C704F6000
0000007F3000
000000BE0000
ENDCHAR
STARTCHAR uni04B9
ENCODING 1209
SWIDTH 554 0
DWIDTH 11 0
BBX 10 11 1 0
BITMAP
0CD00004F6
0FA00007F3
3F70000BE0
6F40E42FB0
7F33F1AF80
5F86DACF50
0CFFF97F20
004E70BE00
001F30EB00
003F02F800
000005F500
ENDCHAR
STARTCHAR uni04BA
ENCODING 1210
SWIDTH 639 0
DWIDTH 13 0
BBX 12 14 0 0
BITMAP
0004F6000000
0007F3000000
000AF0000000
000EC0000000
002F90000000
005F88CEEC40
008FFC989EE1
00CE100007F4
00FB000007F3
03F700000AE0
06F400000EB0
0AF100002F80
0DC000005F50
1F9000008F20
ENDCHAR
STARTCHAR uni04BB
ENCODING 1211
SWIDTH 576 0
DWIDTH 12 0
BBX 10 11 0 0
BITMAP
004F700000
007F400000
00AF100000
00DC000000
01F93BEE70
04FAE86BF4
07FE2002F8
0AF50003F7
0ED00005F5
2F900008F1
5F50000CD0
ENDCHAR
STARTCHAR uni04BC
ENCODING 1212
SWIDTH 765 0
DWIDTH 15 0
BBX 15 14 1 0
BITMAP
00000017CEEC7000
000005EFB88CFA00
00005FC20000DF10
0002ED100000BF10
8E1AF3000003FD00
AD2FB01136AFE400
7FFFFFFFFFE92000
04BF976642000000
008F300000000000
008F500000000000
005F900000000000
000EF30000030000
0004FFA78AED0000
00003AEFEC940000
ENDCHAR
STARTCHAR uni04BD
ENCODING 1213
SWIDTH 592 0
DWIDTH 12 0
BBX 12 11 0 0
BITMAP
0000018DEC40
00001CF97DE1
00009F3006F4
1E83F80009F1
3F78F2139F80
0DFFFFFFD600
015FC5420000
000FB0000000
000DE1000100
0006FD779E00
00005CEEB600
ENDCHAR
STARTCHAR uni04BE
ENCODING 1214
SWIDTH 765 0
DWIDTH 15 0
BBX 15 18 1 -4
BITMAP
00000017CEEC7000
000005EFB88CFA00
00005FC20000DF10
0002ED100000BF10
8E1AF3000003FD00
AD2FB01136AFE400
7FFFFFFFFFE92000
04BF976542000000
008F300000000000
008F500000000000
005F800000000000
001EF30000020000
0005FE9679DD0000
00004BFFFDA50000
0000009F10000000
000000CD00000000
000000EA00000000
000002F800000000
ENDCHAR
STARTCHAR uni04BF
ENCODING 1215
SWIDTH 592 0
DWIDTH 12 0
BBX 12 15 0 -4
BITMAP
0000018DEC40
00001CF97DE1
00009F3006F4
1E83F80009F1
3F78F2139F80
0DFFFFFFD600
015FC5420000
000FB0000000
000CE1000100
0005FD769E00
00005DFEC700
000007F30000
00000AF00000
00000DD00000
00000FA00000
ENDCHAR
STARTCHAR uni04C0
ENCODING 1216
SWIDTH 272 0
DWIDTH 5 0
BBX 6 14 0 0
BITMAP
0004F6
0007F3
000AE0
000DB0
001F80
005F50
008F20
00BD00
00EA00
03F700
06F400
09F100
0DC000
1F9000
ENDCHAR
STARTCHAR uni04C1
ENCODING 1217
SWIDTH 775 0
DWIDTH 16 0
BBX 19 18 -1 0
BITMAP
00000001F6000BD00000
00000000EC449F600000
000000003CEEC5000000
00000000000000000000
0009F30003F60003EC10
0001EB0006F3002ED100
00008F4009F002DD2000
00001EC00DC01DE20000
000007F51F91CE300000
000000DD4F6BE4000000
0000007FCFCF40000000
000002EDCEBE10000000
00002DE2EB3F80000000
0001CE32F70BE1000000
001CF405F403F9000000
00AF5008F100BF200000
09F6000CD0003FA00000
8F80000F90000AF30000
ENDCHAR
STARTCHAR uni04C2
ENCODING 1218
SWIDTH 833 0
DWIDTH 17 0
BBX 19 15 -1 0
BITMAP
00000005F2001E900000
00000002FA45BE200000
000000006DFEB3000000
00000000000000000000
007FE90005F3004BEE20
0046AF8007F006FC7700
00000CE00AC02FB00000
000008F20D90AF200000
000007F31F60EB000000
000009FFFFFFF7000000
00000DE4AE48F5000000
00004F90BB05F6000000
0001DE20E802F9000000
167DF502F500BF963000
3EEA3005F2001AEF5000
ENDCHAR
STARTCHAR uni04C3
ENCODING 1219
SWIDTH 628 0
DWIDTH 13 0
BBX 13 19 0 -5
BITMAP
0004F600008F80
0007F30007F800
000AF0006F8000
000DC006F90000
002F905F900000
005F64FA000000
008F7EA0000000
00BFEFEC600000
00EE879DFB0000
03F80001AF6000
06F500002FB000
09F100000ED000
0DD000000ED000
1F9000001FB000
000000005F8000
00000000DF2000
0000001BF80000
01C88AEF900000
01BEFDA4000000
ENDCHAR
STARTCHAR uni04C4
ENCODING 1220
SWIDTH 514 0
DWIDTH 10 0
BBX 11 16 0 -5
BITMAP
004F5002EC10
007F202DC100
00AE01DD1000
00DB1CD20000
01F9CE200000
04FEFFA20000
07F636EE2000
0BE0003F9000
0EB0000DC000
2F80000CD000
5F50000DC000
0000001F9000
0000007F5000
000003ED0000
06A79FE30000
03CFD9200000
ENDCHAR
STARTCHAR uni04C5
ENCODING 1221
SWIDTH 649 0
DWIDTH 13 0
BBX 14 18 -1 -4
BITMAP
0000002FFFFFFD
0000006F9888FA
000000AE0004F7
000000EA0007F3
000004F6000AF0
000009F2000DC0
00000DC0002F90
00003F80005F50
00008F30008F20
0000DD0000BE00
0004F80000EB00
000CF20003F700
68CF700006FA60
8FD7000009FF70
00000000006F10
0000000001E900
0000000008F300
000000002FB000
ENDCHAR
STARTCHAR uni04C6
ENCODING 1222
SWIDTH 536 0
DWIDTH 11 0
BBX 11 15 -1 -4
BITMAP
0000007DFEC0
000009F96EC0
00003F700F90
0000AE103F60
0001E9007F30
0005F400AF00
000BD000DC00
002F8001F900
00AF1004F500
7AF70007F840
DE80000BFF50
000000006E00
00000000D800
00000006F200
0000000DB000
ENDCHAR
STARTCHAR uni04C7
ENCODING 1223
SWIDTH 678 0
DWIDTH 14 0
BBX 14 19 0 -5
BITMAP
0004F6000002F8
0007F3000005F5
000AE0000008F1
000DC000000CD0
002F8000000FA0
005F5000003F70
008FFFFFFFFF40
00BE777777DF10
00EB000000DC00
03F7000001F900
06F4000004F600
09F1000008F200
0DC000000BE000
1F9000000EB000
000000004F6000
00000000BE1000
00000009F70000
01DA9AEFA00000
01AEFEB5000000
ENDCHAR
STARTCHAR uni04C8
ENCODING 1224
SWIDTH 599 0
DWIDTH 12 0
BBX 12 16 0 -5
BITMAP
004F600006F4
007F300009F1
00AF00000BD0
00DC00000E90
01F900002F60
04FFFFFFFF30
07F86666BF00
0AF00000CC00
0EC00000F900
2F800003F600
5F500006F300
0000000AE000
0000001EA000
0000008F4000
00997BFA0000
006DFD800000
ENDCHAR
STARTCHAR uni04C9
ENCODING 1225
SWIDTH 684 0
DWIDTH 14 0
BBX 14 18 0 -4
BITMAP
0004F6000002F8
0007F3000005F4
000AE0000008F1
000DC000000CD0
002F8000000FA0
005F5000003F70
008FFFFFFFFF30
00BE777777DF00
00EB000000DC00
03F7000001F900
06F4000004F500
09F1000008F200
0DC000000BF840
1F9000000EFF30
0000000000AB00
0000000004F500
000000000DD000
000000007F7000
ENDCHAR
STARTCHAR uni04CA
ENCODING 1226
SWIDTH 599 0
DWIDTH 12 0
BBX 12 15 0 -4
BITMAP
004F600006F4
007F300009F1
00AF00000BD0
00DC00000EA0
01F900002F70
04FFFFFFFF40
07F86666BF10
0AF00000CC00
0EC00000F900
2F800004FA60
5F500007FF90
000000003F30
00000000AC00
00000002F600
00000009E100
ENDCHAR
STARTCHAR uni04CB
ENCODING 1227
SWIDTH 639 0
DWIDTH 13 0
BBX 11 18 2 -4
BITMAP
06F400000EC0
09F100002F80
0CD000005F50
0FA000008F20
3F700000BE00
6F400000EA00
8F200002F700
7F81126BF400
1DFFFFEDF100
0157630CC000
0000001F9000
0000004F6000
000008BF3000
00003FFE0000
00006F200000
00009E000000
0000CC000000
0000F9000000
ENDCHAR
STARTCHAR uni04CC
ENCODING 1228
SWIDTH 578 0
DWIDTH 12 0
BBX 9 15 2 -4
BITMAP
5F50000CD0
8F20000E90
BE00004F60
EB0000AF30
FA0004FF00
DD216EEC00
5FFFE5E900
025404F600
000007F300
00016CF000
0004FFC000
0006F40000
0009F10000
000CD00000
000FA00000
ENDCHAR
STARTCHAR uni04CD
ENCODING 1229
SWIDTH 841 0
DWIDTH 17 0
BBX 17 18 0 -4
BITMAP
0004FF40000002EFA0
0007EF6000000AEF70
000ACE8000003FAF40
000E9CA00000BC9F10
002F7AC00005F4CD00
005F48E0000DA1F900
008F16F1006F24F600
00CC04F201E807F300
00F902F408E10AF000
03F600F62F600DC000
06F200D8AD001F9000
0AE000BDF4005F5000
0DB0009FB0008F9500
1F80007F3000BFF600
00000000000007E000
0000000000002E8000
000000000000AF1000
000000000004FA0000
ENDCHAR
STARTCHAR uni04CE
ENCODING 1230
SWIDTH 688 0
DWIDTH 14 0
BBX 14 15 0 -4
BITMAP
004FB000001EF1
007FE000009FD0
00ADF10003FEA0
00D9F3000B9E70
01F5D5005E4F40
04F2B800D76F10
07E09A07D09D00
0AB06C1E50CA00
0D804E8B01F600
1F501FE303F840
5F200E9006FF60
00000000006E10
0000000000D900
0000000005F300
000000000CC000
ENDCHAR
STARTCHAR uni04CF
ENCODING 1231
SWIDTH 272 0
DWIDTH 5 0
BBX 6 14 0 0
BITMAP
0004F6
0007F3
000AE0
000DB0
001F80
005F50
008F20
00BD00
00EA00
03F700
06F400
09F100
0DC000
1F9000
ENDCHAR
STARTCHAR uni04D0
ENCODING 1232
SWIDTH 555 0
DWIDTH 11 0
BBX 13 18 -1 0
BITMAP
000005F2001E90
000003F945BE20
0000006DFEA300
00000000000000
00000009F60000
0000003FF80000
000000BCCA0000
000004F5BC0000
00000DC0AE0000
00006F408F1000
0001EB006F3000
0008F3004F5000
002EFFFFFF7000
00AF88888F9000
03F900000EB000
0BE100000CD000
5F8000000AE000
DE10000008F100
ENDCHAR
STARTCHAR uni04D1
ENCODING 1233
SWIDTH 564 0
DWIDTH 11 0
BBX 11 15 1 0
BITMAP
000CA0007F20
0009E546EA00
0001AEED7000
000000000000
0018DEA17D00
01DF96BBC900
0BF4000DF600
4F90000AF300
9F20000BF000
DD00000EC000
FB00004F9000
FA0000CF6000
EC0008EF3000
8FA6BC8E0000
19EE819B0000
ENDCHAR
STARTCHAR uni04D2
ENCODING 1234
SWIDTH 555 0
DWIDTH 11 0
BBX 12 18 -1 0
BITMAP
000000AB02E4
000000B903E3
000000000000
000000000000
00000009F600
0000003FF800
000000BCCA00
000004F5BC00
00000DC0AE00
00006F408F10
0001EB006F30
0008F3004F50
002EFFFFFF70
00AF88888F90
03F900000EB0
0BE100000CD0
5F8000000AE0
DE10000008F1
ENDCHAR
STARTCHAR uni04D3
ENCODING 1235
SWIDTH 564 0
DWIDTH 11 0
BBX 10 15 1 0
BITMAP
0005E10B90
0006D10C70
0000000000
0000000000
0018DEA17D
01DF96BBC9
0BF4000DF6
4F90000AF3
9F20000BF0
DD00000EC0
FB00004F90
FA0000CF60
EC0008EF30
8FA6BC8E00
19EE819B00
ENDCHAR
STARTCHAR uni04D4
ENCODING 1236
SWIDTH 816 0
DWIDTH 16 0
BBX 19 14 -1 0
BITMAP
000000005FFFFFFFFF10
00000001ECBF98888700
0000000AF39F10000000
0000004F80CD00000000
000001DD01FA00000000
000009F304F700000000
00004F8007FFFFFF6000
0001DD100AF777772000
0008FFFFFFC000000000
003FB8889F9000000000
00DE10005F6000000000
08F500008F2000000000
3FB00000BF7777730000
CE200000EFFFFFF40000
ENDCHAR
STARTCHAR uni04D5
ENCODING 1237
SWIDTH 814 0
DWIDTH 16 0
BBX 15 11 1 0
BITMAP
0019DE70E59EEA10
01DF97D9FDD78F90
0BF4004FFC100CC0
4F90001FF2001EA0
9F20002FA026DE30
DD00005FFFFFA300
FB0000AF75310000
FA0003FF40000000
EC001DFF80000100
9F87D6EDFA68C900
1BEC50F38EFDA300
ENDCHAR
STARTCHAR uni04D6
ENCODING 1238
SWIDTH 511 0
DWIDTH 10 0
BBX 12 18 0 0
BITMAP
00006F0002F7
00004F845CE1
000007DFDA20
000000000000
0004FFFFFFE0
0007F9888860
000AF0000000
000DC0000000
002F80000000
005F50000000
008FFFFFF400
00BE77777100
00EB00000000
03F700000000
06F400000000
09F100000000
0DE777772000
1FFFFFFF2000
ENDCHAR
STARTCHAR uni04D7
ENCODING 1239
SWIDTH 493 0
DWIDTH 10 0
BBX 10 15 1 0
BITMAP
00AC0005F4
007F646EC0
0019EFD810
0000000000
0018DEC400
01DF87DE10
0BF3006F30
4F80009F10
AF214AF800
DFFFFD6000
FC54200000
FA00000000
CE10001000
5FD769E000
05CFEB6000
ENDCHAR
STARTCHAR uni04D8
ENCODING 1240
SWIDTH 661 0
DWIDTH 13 0
BBX 13 14 0 0
BITMAP
00049CEFEA3000
000DEA98AFF400
0004000003EE10
00000000008F50
00000000004F70
00000000003F80
00016ACEEFFF60
008FFDA887CF40
08FB200000EE00
0ED0000006F900
2FA000002EE100
1FD10003DF4000
09FD88BFE30000
006CEEC7100000
ENDCHAR
STARTCHAR uni04D9
ENCODING 1241
SWIDTH 493 0
DWIDTH 10 0
BBX 9 11 0 0
BITMAP
007CEEB400
02E968EF30
0000003FA0
0000000DD0
0000000CC0
0038CEFFB0
07FD968F70
3F90009F20
6F4004F800
3FC69FB000
06DFD70000
ENDCHAR
STARTCHAR uni04DA
ENCODING 1242
SWIDTH 661 0
DWIDTH 13 0
BBX 13 18 0 0
BITMAP
000001E507D000
000002E408C000
00000000000000
00000000000000
00049CEFEA3000
000DEA98AFF400
0004000003EE10
00000000008F50
00000000004F70
00000000003F80
00016ACEEFFF60
008FFDA887CF40
08FB200000EE00
0ED0000006F900
2FA000002EE100
1FD10003DF4000
09FD88BFE30000
006CEEC7100000
ENDCHAR
STARTCHAR uni04DB
ENCODING 1243
SWIDTH 493 0
DWIDTH 10 0
BBX 9 15 0 0
BITMAP
0006D00D70
0007C01D60
0000000000
0000000000
007CEEB400
02E968EF30
0000003FA0
0000000DD0
0000000CC0
0038CEFFB0
07FD968F70
3F90009F20
6F4004F800
3FC69FB000
06DFD70000
ENDCHAR
STARTCHAR uni04DC
ENCODING 1244
SWIDTH 775 0
DWIDTH 16 0
BBX 19 18 -1 0
BITMAP
000000004E20AA000000
000000005D10B9000000
00000000000000000000
00000000000000000000
0009F30003F60003EC10
0001EB0006F3002ED100
00008F4009F002DD2000
00001EC00DC01DE20000
000007F51F91CE300000
000000DD4F6BE4000000
0000007FCFCF40000000
000002EDCEBE10000000
00002DE2EB3F80000000
0001CE32F70BE1000000
001CF405F403F9000000
00AF5008F100BF200000
09F6000CD0003FA00000
8F80000F90000AF30000
ENDCHAR
STARTCHAR uni04DD
ENCODING 1245
SWIDTH 833 0
DWIDTH 17 0
BBX 19 15 -1 0
BITMAP
000000007D00D7000000
000000008C01D6000000
00000000000000000000
00000000000000000000
007FE90005F3004BEE20
0046AF8007F006FC7700
00000CE00AC02FB00000
000008F20D90AF200000
000007F31F60EB000000
000009FFFFFFF7000000
00000DE4AE48F5000000
00004F90BB05F6000000
0001DE20E802F9000000
167DF502F500BF963000
3EEA3005F2001AEF5000
ENDCHAR
STARTCHAR uni04DE
ENCODING 1246
SWIDTH 532 0
DWIDTH 11 0
BBX 12 18 -1 0
BITMAP
000004E20AA0
000005D10B80
000000000000
000000000000
00005ADFEA20
0007FC869FD1
0001400008F4
0000000006F4
000000000BE1
00000014BE40
0005FFFE7100
0003667BF700
00000000AF30
000000005F70
000000006F60
02000002DE10
1FB8679FF400
06BDFEC82000
ENDCHAR
STARTCHAR uni04DF
ENCODING 1247
SWIDTH 436 0
DWIDTH 9 0
BBX 10 15 -1 0
BITMAP
00009B02E5
0000AA02E4
0000000000
0000000000
0018CEEB30
002E978ED0
00000008F2
00000009F1
0000016F80
0006FFE500
000367DD20
0000002F70
0100005F60
1E9769ED10
08DEEC7100
ENDCHAR
STARTCHAR uni04E0
ENCODING 1248
SWIDTH 525 0
DWIDTH 11 0
BBX 11 14 0 0
BITMAP
000FFFFFFFC0
00188888EF60
0000000AF500
000001BE4000
00001CD20000
0002DC100000
000AFFC71000
000456BFB000
0000000BF200
00000007F400
00000009F200
2000004FB000
DC867BFD2000
5BDFEC710000
ENDCHAR
STARTCHAR uni04E1
ENCODING 1249
SWIDTH 456 0
DWIDTH 9 0
BBX 11 16 -2 -5
BITMAP
0006FFFFFFB0
00036666CF50
00000007F500
0000007F5000
000007F50000
00008F400000
0003FFC60000
000136CF7000
0000000CE100
00000007F300
00000005F400
00000006F300
0000000BE000
1000006F7000
5D866AFA0000
29DFEB600000
ENDCHAR
STARTCHAR uni04E2
ENCODING 1250
SWIDTH 696 0
DWIDTH 14 0
BBX 14 17 0 0
BITMAP
00000026666500
0000009FFFFB00
00000000000000
0004F5000005FE
0007F200002EFB
000AE00001DCF8
000DA0000AD5F4
002F70007F38F1
005F4004F60BD0
008F102EA00EA0
00BD00CC102F60
00E909E2006F30
03F66F40009F00
06F5F80000CC00
09FDB00001F800
0DFD100004F500
1FF3000007F200
ENDCHAR
STARTCHAR uni04E3
ENCODING 1251
SWIDTH 577 0
DWIDTH 12 0
BBX 10 14 1 0
BITMAP
0002666650
0007FFFFC0
0000000000
05F40000CC
09F10000F9
0CD00003F6
0FA00006F3
3F70000AF0
7F30000EC0
AF00004F90
CD0000BF60
DC0008EF30
AF86BB9E00
1BED80AB00
ENDCHAR
STARTCHAR uni04E4
ENCODING 1252
SWIDTH 696 0
DWIDTH 14 0
BBX 14 18 0 0
BITMAP
0000004E20BA00
0000005D10C800
00000000000000
00000000000000
0004F5000005FE
0007F200002EFB
000AE00001DCF8
000DA0000AD5F4
002F70007F38F1
005F4004F60BD0
008F102EA00EA0
00BD00CC102F60
00E909E2006F30
03F66F40009F00
06F5F80000CC00
09FDB00001F800
0DFD100004F500
1FF3000007F200
ENDCHAR
STARTCHAR uni04E5
ENCODING 1253
SWIDTH 577 0
DWIDTH 12 0
BBX 10 15 1 0
BITMAP
0005E20B90
0005D10C80
0000000000
0000000000
05F40000CC
09F10000F9
0CD00003F6
0FA00006F3
3F70000AF0
7F30000EC0
AF00004F90
CD0000BF60
DC0008EF30
AF86BB9E00
1BED80AB00
ENDCHAR
STARTCHAR uni04E6
ENCODING 1254
SWIDTH 720 0
DWIDTH 14 0
BBX 13 18 1 0
BITMAP
000004E20BA000
000005D10C8000
00000000000000
00000000000000
00003ADFEB4000
0007FEA89EF600
007FA10002DF20
03FB0000006F80
0AF30000002FB0
1FB00000000FB0
4F700000002FA0
6F500000004F90
8F400000008F50
7F60000000DF10
4F90000008F800
0DF400007FD100
04EFA79DFC1000
0029DFEC600000
ENDCHAR
STARTCHAR uni04E7
ENCODING 1255
SWIDTH 561 0
DWIDTH 11 0
BBX 10 15 1 0
BITMAP
0008C01D60
0009B01E40
0000000000
0000000000
0019DFD600
02DE86BF70
0CE2000CE1
5F600007F3
AF000007F4
EC000008F2
FA00000CE0
FB00002F90
CE1000BE20
4FD77CF500
04CEEA3000
ENDCHAR
STARTCHAR uni04E8
ENCODING 1256
SWIDTH 720 0
DWIDTH 14 0
BBX 13 14 1 0
BITMAP
00003ADFEB4000
0007FE98AEF600
007F910002DF20
03FB0000005F80
0AF20000002FB0
1FB00000000FB0
4FFFFFFFFFFFA0
6F977777779F90
8F400000008F50
7F60000000DF10
4FA0000008F800
0DF400007FD100
04EFA78DFC1000
0029DFEC600000
ENDCHAR
STARTCHAR uni04E9
ENCODING 1257
SWIDTH 561 0
DWIDTH 11 0
BBX 10 11 1 0
BITMAP
0019DFD700
02DF96BF80
0CF3000CF1
5F800008F3
AF200006F3
EFFFFFFFF2
FC66666DD0
FA00001F80
CE1000AE10
4FC77CF400
04CEEA3000
ENDCHAR
STARTCHAR uni04EA
ENCODING 1258
SWIDTH 720 0
DWIDTH 14 0
BBX 13 18 1 0
BITMAP
000004E20BA000
000005D10C8000
00000000000000
00000000000000
00003ADFEB4000
0007FE98AEF600
007F910002DF20
03FB0000005F80
0AF20000002FB0
1FB00000000FB0
4FFFFFFFFFFFA0
6F977777779F90
8F400000008F50
7F60000000DF10
4FA0000008F800
0DF400007FD100
04EFA78DFC1000
0029DFEC600000
ENDCHAR
STARTCHAR uni04EB
ENCODING 1259
SWIDTH 561 0
DWIDTH 11 0
BBX 10 15 1 0
BITMAP
0008C01D60
0009B01E40
0000000000
0000000000
0019DFD700
02DF96BF80
0CF3000CF1
5F800008F3
AF200006F3
EFFFFFFFF2
FC66666DD0
FA00001F80
CE1000AE10
4FC77CF400
04CEEA3000
ENDCHAR
STARTCHAR uni04EC
ENCODING 1260
SWIDTH 584 0
DWIDTH 12 0
BBX 12 18 0 0
BITMAP
00006E10C800
00007C00D600
000000000000
000000000000
0049DEEC7100
006DA89DFC10
00000000AF80
000000001ED0
000000000CF0
000000000BF1
000CFFFFFFE0
000777777FD0
000000002F90
000000008F40
00000002EC00
3000003DE300
CD978BFE3000
5BEFEC710000
ENDCHAR
STARTCHAR uni04ED
ENCODING 1261
SWIDTH 456 0
DWIDTH 9 0
BBX 9 15 0 0
BITMAP
001D606E10
001E407C00
0000000000
0000000000
06CEFC6000
07967DF600
000001ED00
000000AF10
0000008F20
03FFFFFF00
027777DD00
000001F900
00000BF200
A868DF6000
8DFEA30000
ENDCHAR
STARTCHAR uni04EE
ENCODING 1262
SWIDTH 571 0
DWIDTH 11 0
BBX 15 17 -1 0
BITMAP
0000005666620000
000001FFFFF40000
0000000000000000
000BE0000001DE10
0007F3000008F500
0002F700003FA000
0000CC0000BE2000
00008F1006F60000
00003F501EB00000
00000D909F200000
000009D2F7000000
000004FBC0000000
000000EF30000000
000006F900000000
00004EC100000000
1B8BFD2000000000
0DFD810000000000
ENDCHAR
STARTCHAR uni04EF
ENCODING 1263
SWIDTH 461 0
DWIDTH 9 0
BBX 12 19 -2 -5
BITMAP
000004666630
00000EFFFF60
000000000000
000FA00000CD
000DC00005F6
000AE0000DD0
0008F1006F50
0006F300DC00
0004F506F400
0002F60DB000
0000E86F3000
0000C9DB0000
0000ADF30000
00008FA00000
00009F200000
0002F9000000
000BE1000000
66BF60000000
CEC500000000
ENDCHAR
STARTCHAR uni04F0
ENCODING 1264
SWIDTH 571 0
DWIDTH 11 0
BBX 15 18 -1 0
BITMAP
0000009B02E50000
000000A903E30000
0000000000000000
0000000000000000
000BE0000001DE10
0007F3000008F500
0002F700003FA000
0000CC0000BE2000
00008F1006F60000
00003F501EB00000
00000D909F200000
000009D2F7000000
000004FBC0000000
000000EF30000000
000006F900000000
00004EC100000000
1B8BFD2000000000
0DFD810000000000
ENDCHAR
STARTCHAR uni04F1
ENCODING 1265
SWIDTH 461 0
DWIDTH 9 0
BBX 12 20 -2 -5
BITMAP
000007D01D70
000008C01D50
000000000000
000000000000
000FA00000CD
000DC00005F6
000AE0000DD0
0008F1006F50
0006F300DC00
0004F506F400
0002F60DB000
0000E86F3000
0000C9DB0000
0000ADF30000
00008FA00000
00009F200000
0002F9000000
000BE1000000
66BF60000000
CEC500000000
ENDCHAR
STARTCHAR uni04F2
ENCODING 1266
SWIDTH 571 0
DWIDTH 11 0
BBX 15 18 -1 0
BITMAP
00000001DC09E300
0000000AC16E3000
0000008A04C30000
0000000000000000
000BE0000001DE10
0007F3000008F500
0002F700003FA000
0000CC0000BE2000
00008F1006F60000
00003F501EB00000
00000D909F200000
000009D2F7000000
000004FBC0000000
000000EF30000000
000006F900000000
00004EC100000000
1B8BFD2000000000
0DFD810000000000
ENDCHAR
STARTCHAR uni04F3
ENCODING 1267
SWIDTH 461 0
DWIDTH 9 0
BBX 13 20 -2 -5
BITMAP
0000001EB0AE20
000000BB17E300
000009904C2000
00000000000000
000FA00000CD00
000DC00005F600
000AE0000DD000
0008F1006F5000
0006F300DC0000
0004F506F40000
0002F60DB00000
0000E86F300000
0000C9DB000000
0000ADF3000000
00008FA0000000
00009F20000000
0002F900000000
000BE100000000
66BF6000000000
CEC50000000000
ENDCHAR
STARTCHAR uni04F4
ENCODING 1268
SWIDTH 639 0
DWIDTH 13 0
BBX 11 18 2 0
BITMAP
0001D706E100
0001E506D000
000000000000
000000000000
06F400000EC0
09F100002F80
0CD000005F50
1FA000008F20
3F700000BE00
6F400000EA00
8F300002F700
7F81136BF400
1DFFFFEDF100
0157630CC000
0000001F9000
0000004F6000
0000007F3000
000000BE0000
ENDCHAR
STARTCHAR uni04F5
ENCODING 1269
SWIDTH 555 0
DWIDTH 11 0
BBX 10 15 1 0
BITMAP
000B903E30
000C804E20
0000000000
0000000000
0CD00004F6
0FA00007F3
3F70000BE0
5F40002FC0
6F3000AF80
5F812ACF50
0CFFF97F20
004520BE00
000000EB00
000002F800
000005F500
ENDCHAR
STARTCHAR uni04F6
ENCODING 1270
SWIDTH 476 0
DWIDTH 10 0
BBX 11 18 0 -4
BITMAP
0004FFFFFFE0
0007F9888860
000AF0000000
000DC0000000
002F90000000
005F50000000
008F20000000
00BE00000000
00EB00000000
03F700000000
06F400000000
09F100000000
0DE820000000
1FFF20000000
00AE00000000
00DB00000000
01F800000000
04F500000000
ENDCHAR
STARTCHAR uni04F7
ENCODING 1271
SWIDTH 382 0
DWIDTH 8 0
BBX 9 15 0 -4
BITMAP
004FFFFF50
007F766610
00AE000000
00DC000000
01F9000000
04F5000000
07F2000000
0AE0000000
0EB0000000
2FB5000000
5FFB000000
03F8000000
06F5000000
09F2000000
0BE0000000
ENDCHAR
STARTCHAR uni04F8
ENCODING 1272
SWIDTH 786 0
DWIDTH 16 0
BBX 16 18 0 0
BITMAP
00000006D00D8000
00000007C00D6000
0000000000000000
0000000000000000
0004F600000000EB
0007F300000003F8
000AF000000006F4
000DC000000009F1
002F800000000CD0
005F500000001FA0
008FFFEB50004F60
00BE778EF6007F30
00EB0002FC00AF00
03F70000DD00DC00
06F40000EC02F800
09F10008F705F500
0DE668CFB008F200
1FFFFEB6000BE000
ENDCHAR
STARTCHAR uni04F9
ENCODING 1273
SWIDTH 721 0
DWIDTH 14 0
BBX 13 15 1 0
BITMAP
00001D607D0000
00002E408C0000
00000000000000
00000000000000
05F40000000EA0
09F10000002F70
0CD00000005F40
0FA00000008F10
3F91000000CD00
6FFFFD8100EA00
9F876AF803F700
AE0000DC06F400
AE0001EA09F100
5FB67DF30CD000
06CEDA300FA000
ENDCHAR
STARTCHAR uni04FA
ENCODING 1274
SWIDTH 471 0
DWIDTH 9 0
BBX 11 18 0 -4
BITMAP
0004FFFFFFD0
0007F9888850
000BE0000000
000EB0000000
003F80000000
006F40000000
1FFFFFF30000
17ED77700000
01FA00000000
04F700000000
07F400000000
0AF100000000
0DE710000000
1FFF00000000
009C00000000
00D900000000
68F400000000
AE9000000000
ENDCHAR
STARTCHAR uni04FB
ENCODING 1275
SWIDTH 382 0
DWIDTH 8 0
BBX 10 15 -1 -4
BITMAP
0004FFFFF5
0007F76661
000AF00000
000DC00000
001F900000
0BFFFFF100
039F533000
00AE000000
00DB000000
01FB500000
05FFB00000
000D700000
002F400000
17BE100000
1EE5000000
ENDCHAR
STARTCHAR uni04FC
ENCODING 1276
SWIDTH 508 0
DWIDTH 10 0
BBX 13 18 -1 -4
BITMAP
0009F200003FA0
0003F70001DC00
0000CD000BD200
00006F309F3000
00001E96F50000
000009EF800000
000005FC000000
00001DFE000000
0000BE6F500000
0007F40EA00000
004F7009F10000
02EB0004F60000
0CD10000EC7100
9F3000009FE000
000000000AC000
000000000D9000
000000068F4000
0000000BE80000
ENDCHAR
STARTCHAR uni04FD
ENCODING 1277
SWIDTH 469 0
DWIDTH 9 0
BBX 11 15 -1 -4
BITMAP
003F70004FA0
000BD001EC10
0005F40BE200
0000DA8F3000
00007FF60000
00004FB00000
0002EEF10000
001CD2F80000
00AE20AE1000
07F5003F9400
5F90000CFA00
00000000E700
00000002F400
0000017BE000
000001ED5000
ENDCHAR
STARTCHAR uni04FE
ENCODING 1278
SWIDTH 519 0
DWIDTH 10 0
BBX 13 14 -1 0
BITMAP
0009F200003FA0
0003F70001DC10
0000CC000BE200
00007F207F4000
00001F84F70000
00000ADEB00000
004FFFFFFFC000
00388FFF885000
00009E8F300000
0006F51E900000
003F900AE10000
02EB0004F60000
0CD10000EC0000
9F3000009F2000
ENDCHAR
STARTCHAR uni04FF
ENCODING 1279
SWIDTH 478 0
DWIDTH 10 0
BBX 11 11 -1 0
BITMAP
003F70004FA0
000CD001ED10
0006F40BE300
0001EA8F6000
00009FF90000
00EFFFFFFA00
0034DEF43200
000AD2F70000
008E20AD0000
06F5003F6000
4F90000CD000
ENDCHAR
STARTCHAR uni0500
ENCODING 1280
SWIDTH 565 0
DWIDTH 11 0
BBX 12 14 0 0
BITMAP
0000000005F5
0000000009F1
000000000CD0
000000001FA0
000000004F70
000000007F40
0006BEFFFF10
01CFC866EC00
09F60001F900
0EC00005F600
1FB00008F200
0EE1000BE000
07FE877EB000
006CEFFF8000
ENDCHAR
STARTCHAR uni0501
ENCODING 1281
SWIDTH 577 0
DWIDTH 12 0
BBX 11 15 1 0
BITMAP
000000000DC0
000000001F90
000000004F60
000000008F20
0019DEB1BE00
02DF96ACDB00
0BF4000CF800
4F800009F400
9F20000AF100
DD00000DD000
FB00003FA000
FA0000BF7000
EC0008EF3000
8FA6BB8F0000
19EE809C0000
ENDCHAR
STARTCHAR uni0502
ENCODING 1282
SWIDTH 831 0
DWIDTH 17 0
BBX 15 14 1 0
BITMAP
000000004F600000
000000007F300000
00000000BE000000
00000000EB000000
00000002F8000000
00000005F5000000
0039DEFFF1002F80
08FEA87ED0006F50
6FA1000EA0009F20
CE10003F6000CD00
FC00007F3001FA00
DE1001DF4007F500
8FC78ECED79FC000
07DFD814CFE91000
ENDCHAR
STARTCHAR uni0503
ENCODING 1283
SWIDTH 850 0
DWIDTH 17 0
BBX 15 15 1 0
BITMAP
000000000DC00000
000000001F900000
000000004F500000
000000007F200000
0019DEA1AE000000
02DF86BBDA000000
0BF4000CF7000000
4F800009F4000000
9F20000AF1000F90
DD00000DC0003F60
FB00003F90006F30
FA0000BF7000AE00
EC0008EF7002EA00
9FA6BE3CE76DE200
1AEE9202AEEB3000
ENDCHAR
STARTCHAR uni0504
ENCODING 1284
SWIDTH 837 0
DWIDTH 17 0
BBX 14 14 2 0
BITMAP
04ADFEB3000000
5FD868EE200000
1500006F600000
0000004F600000
0000009F200000
00013AE5000000
3FFFF9200000FA
2667BF800003F7
00000BF20006F4
000008F3000AF1
000009F3000DC0
000009F5005F80
000004FD89EE10
0000006CEEA200
ENDCHAR
STARTCHAR uni0505
ENCODING 1285
SWIDTH 743 0
DWIDTH 15 0
BBX 13 11 1 0
BITMAP
28DEEA10000000
4D969FB0000000
00000BF0000000
00000BD0000000
00017F60003F70
08FFE500006F40
0467DD10009F10
00005F4000DC00
00005F4003F800
00002FC67EE100
000005CEEA2000
ENDCHAR
STARTCHAR uni0506
ENCODING 1286
SWIDTH 569 0
DWIDTH 11 0
BBX 9 18 2 -4
BITMAP
04ADFEB300
5FD868EE20
1500006F60
0000004F60
000000AE20
00014AE500
3FFFF81000
2667AF9000
000008F300
000005F500
000007F300
00000AF000
00000DE820
00001FFF10
000000AD00
000000DA00
000001F700
000004F500
ENDCHAR
STARTCHAR uni0507
ENCODING 1287
SWIDTH 470 0
DWIDTH 9 0
BBX 8 15 1 -4
BITMAP
28DEEA10
4D969FB0
00000BF0
00000BD0
00017F60
08FFE400
0467DD10
00005F40
00006F30
00009F62
0000DFF3
00000AF1
00000DC0
00001F90
00004F60
ENDCHAR
STARTCHAR uni0508
ENCODING 1288
SWIDTH 895 0
DWIDTH 18 0
BBX 18 14 -1 0
BITMAP
0000002FFFFFF60000
0000006F988CF30000
000000AE000BE00000
000000EA000EB00000
000004F6002F800000
000009F2006F400000
00000DC0009F1000EB
00003F8000CD0002F8
00008F3001F90005F4
0000DD0004F60009F1
0004F80006F4000DC0
000CF20006F5004F80
68CF700002FE89EE10
8FD70000004CEDA200
ENDCHAR
STARTCHAR uni0509
ENCODING 1289
SWIDTH 806 0
DWIDTH 16 0
BBX 16 11 -1 0
BITMAP
0000007DFEC00000
000009F96ED00000
00003F700F900000
0000AE103F600000
0001E9007F3000EB
0005F400AF0002F8
000BD000DC0005F5
002F8000F90008F1
00AF1001F9000DC0
7AF70000CE75BF40
DE8000002BFFD500
ENDCHAR
STARTCHAR uni050A
ENCODING 1290
SWIDTH 953 0
DWIDTH 19 0
BBX 18 14 0 0
BITMAP
0004F6000002F80000
0007F3000005F50000
000AE0000008F20000
000DC000000CD00000
002F8000000FA00000
005F5000003F700000
008FFFFFFFFF3000BD
00BE777777DF0000EA
00EB000000DC0003F7
03F7000001F90006F3
06F4000004F6000AE0
09F1000004F7002EA0
0DC0000001EE88EF30
1F900000003BEEB300
ENDCHAR
STARTCHAR uni050B
ENCODING 1291
SWIDTH 867 0
DWIDTH 17 0
BBX 16 11 0 0
BITMAP
004F600006F40000
007F300009F10000
00AF00000BD00000
00DC00000E900000
01F900002F6000AE
04FFFFFFFF3000DB
07F86666CF0001F8
0AF00000CC0005F5
0EC00000DD000BE1
2F8000009F96AF70
5F50000019EFD700
ENDCHAR
STARTCHAR uni050C
ENCODING 1292
SWIDTH 695 0
DWIDTH 14 0
BBX 13 14 1 0
BITMAP
000018CEEDB610
0004EFC98ADE10
005FD300000200
01ED2000000000
09F50000000000
0ED00000000000
4F800000000000
6F50002FFFFF20
8F40002777EE00
7F50000001FA00
5F90000007F500
0EF400004EC000
04EFB88BFD2000
0029DFEC710000
ENDCHAR
STARTCHAR uni050D
ENCODING 1293
SWIDTH 588 0
DWIDTH 12 0
BBX 10 11 1 0
BITMAP
0006BEFEB4
01BFA657C7
0BE4000000
5F60000000
BE00000000
EB001FFFFC
FA001667F8
FB000007F4
BF20001EC0
3EE757EE20
03AEFD9200
ENDCHAR
STARTCHAR uni050E
ENCODING 1294
SWIDTH 658 0
DWIDTH 13 0
BBX 11 14 1 0
BITMAP
0EFFFFFFFFA0
17779FA77730
00007F400000
0000AF100000
0000DC000000
0001F9000000
0005F5000AE0
0008F2000DB0
000BD0002F80
000EA0005F40
002F80009F10
003F8001EB00
000DE98DF400
0002BEEB4000
ENDCHAR
STARTCHAR uni050F
ENCODING 1295
SWIDTH 586 0
DWIDTH 12 0
BBX 11 11 0 0
BITMAP
0EFFFFFF9000
1669FA663000
0006F3000000
0009F1000000
000DC0004F50
001F90007F20
004F6000AE00
006F3000EA00
006F4005F600
003FD68ED100
0005CFEA2000
ENDCHAR
STARTCHAR uni0510
ENCODING 1296
SWIDTH 539 0
DWIDTH 11 0
BBX 11 14 1 0
BITMAP
00029DFEB400
003EF968DF40
00AF30000500
00EC00000000
00CD00000000
005F82000000
0006EFFF3000
05DD86660000
4FA000000000
AF1000000000
CF0000000000
AF5000001000
3FF9679D7000
03ADFEC82000
ENDCHAR
STARTCHAR uni0511
ENCODING 1297
SWIDTH 444 0
DWIDTH 9 0
BBX 9 11 0 0
BITMAP
0005CEEC70
006FB77A90
00DC000000
00E9000000
00AE300000
002DFF9000
07FB763000
3F70000000
5F50000100
2FD768C900
04BEED9300
ENDCHAR
STARTCHAR uni0512
ENCODING 1298
SWIDTH 633 0
DWIDTH 13 0
BBX 14 18 -1 -4
BITMAP
0000002FFFFFFD
0000006F9888FA
000000AE0003F7
000000EA0007F3
000004F6000AF0
000009F2000DC0
00000DC0001F90
00003F80005F50
00008F30008F20
0000DD0000BE00
0004F80000EA00
000CF20003F700
68CF700006F940
8FD7000009FF70
00000000003F40
00000000005F10
0000000027DB00
000000004FC300
ENDCHAR
STARTCHAR uni0513
ENCODING 1299
SWIDTH 526 0
DWIDTH 11 0
BBX 11 15 -1 -4
BITMAP
0000007DFEC0
000009F96EC0
00003F700F90
0000AE103F60
0001E9007F30
0005F400AE00
000BD000DC00
002F8001F800
00AF1004F500
7AF70007F720
DE80000BFF50
000000004F20
000000008D00
00000037E900
0000006EC200
ENDCHAR
STARTCHAR uni1E00
ENCODING 7680
SWIDTH 555 0
DWIDTH 11 0
BBX 12 19 -1 -5
BITMAP
00000009F600
0000003FF800
000000BCCA00
000004F5BC00
00000DC0AE00
00006F408F10
0001EB006F30
0008F3004F50
002EFFFFFF70
00AF88888F90
03F900000EB0
0BE100000CD0
5F8000000AE0
DE10000008F1
000000000000
0004DE900000
000D41C50000
000D41C50000
0004DE900000
ENDCHAR
STARTCHAR uni1E01
ENCODING 7681
SWIDTH 564 0
DWIDTH 11 0
BBX 10 16 1 -5
BITMAP
0018DEA17D
01DF96BBC9
0BF4000DF6
4F90000AF3
9F20000BF0
DD00000EC0
FB00004F90
FA0000CF60
EC0008EF30
8FA6BC8E00
19EE819B00
0000000000
02CEB10000
0A70A80000
0A70A80000
02CEB10000
ENDCHAR
STARTCHAR uni1E3E
ENCODING 7742
SWIDTH 836 0
DWIDTH 17 0
BBX 17 18 0 0
BITMAP
000000000008F60000
00000000005F600000
0000000003D5000000
000000000000000000
0004FF40000002EFA0
0007EF6000000AEF70
000ACE8000003FAF40
000E9CA00000BC9F10
002F7AC00005F4CD00
005F48E0000DA1FA00
008F16F1006F24F600
00CC04F201E807F300
00F902F408E10AF000
03F600F62F600DC000
06F200D8AD001F9000
0AE000BDF4005F6000
0DB0009FB0008F2000
1F80007F3000BE0000
ENDCHAR
STARTCHAR uni1E3F
ENCODING 7743
SWIDTH 872 0
DWIDTH 17 0
BBX 17 15 0 0
BITMAP
00000000001DD20000
0000000000AD200000
0000000008B1000000
000000000000000000
004F34CEC203BED600
007F6D77EA4E86DF20
00AFC100AED3006F40
00DF4000AF60006F40
01FB0000CE00009F10
04F60001FA0000CD00
07F20004F60000FA00
0AE00007F30003F700
0EB0000AE00007F300
2F80000DB0000AF100
5F50001F80000DC000
ENDCHAR
STARTCHAR Wgrave
ENCODING 7808
SWIDTH 852 0
DWIDTH 17 0
BBX 17 18 2 0
BITMAP
000000AF2000000000
0000002E9000000000
00000003E200000000
000000000000000000
CD00000AF600004F80
BD00002FF60000AF10
BE00009CE70002F900
AE0002F6E80009F200
AF0008E1D9001EA000
9F001E70C9007F3000
8F108E10CA00DB0000
8F11E800BB05F40000
7F27F200AC0CC00000
6F3D90009C3F500000
6F7F20009C8D000000
5FCA00008DE7000000
4FF300007FE1000000
4FB000006F80000000
ENDCHAR
STARTCHAR wgrave
ENCODING 7809
SWIDTH 716 0
DWIDTH 14 0
BBX 14 15 1 0
BITMAP
00001DD0000000
000004F5000000
0000006D000000
00000000000000
DB0002FE0000DD
CC0008EF0005F6
CC001E9F100BE0
BD007D4F203F70
AD00E73F309E10
AE06E13F41F900
9E0D902F47F200
9E4F201F5DA000
8DAA000F9F4000
7EF3000FEC0000
7FB0000EF50000
ENDCHAR
STARTCHAR Wacute
ENCODING 7810
SWIDTH 852 0
DWIDTH 17 0
BBX 17 18 2 0
BITMAP
0000000003FB000000
000000001DA0000000
00000000C800000000
000000000000000000
CD00000AF600004F80
BD00002FF60000AF10
BE00009CE70002F900
AE0002F6E80009F200
AF0008E1D9001EA000
9F001E70C9007F3000
8F108E10CA00DB0000
8F11E800BB05F40000
7F27F200AC0CC00000
6F3D90009C3F500000
6F7F20009C8D000000
5FCA00008DE7000000
4FF300007FE1000000
4FB000006F80000000
ENDCHAR
STARTCHAR wacute
ENCODING 7811
SWIDTH 716 0
DWIDTH 14 0
BBX 14 15 1 0
BITMAP
000000008F5000
00000005F60000
0000003D400000
00000000000000
DB0002FE0000DD
CC0008EF0005F6
CC001E9F100BE0
BD007D4F203F70
AD00E73F309E10
AE06E13F41F900
9E0D902F47F200
9E4F201F5DA000
8DAA000F9F4000
7EF3000FEC0000
7FB0000EF50000
ENDCHAR
STARTCHAR Wdieresis
ENCODING 7812
SWIDTH 852 0
DWIDTH 17 0
BBX 17 18 2 0
BITMAP
000000B903E3000000
000000C804E2000000
000000000000000000
000000000000000000
CD00000AF600004F80
BD00002FF60000AF10
BE00009CE70002F900
AE0002F6E80009F200
AF0008E1D9001EA000
9F001E70C9007F3000
8F108E10CA00DB0000
8F11E800BB05F40000
7F27F200AC0CC00000
6F3D90009C3F500000
6F7F20009C8D000000
5FCA00008DE7000000
4FF300007FE1000000
4FB000006F80000000
ENDCHAR
STARTCHAR wdieresis
ENCODING 7813
SWIDTH 716 0
DWIDTH 14 0
BBX 14 15 1 0
BITMAP
00002E408C0000
00003E309B0000
00000000000000
00000000000000
DB0002FE0000DD
CC0008EF0005F6
CC001E9F100BE0
BD007D4F203F70
AD00E73F309E10
AE06E13F41F900
9E0D902F47F200
9E4F201F5DA000
8DAA000F9F4000
7EF3000FEC0000
7FB0000EF50000
ENDCHAR
STARTCHAR uni1EA0
ENCODING 7840
SWIDTH 555 0
DWIDTH 11 0
BBX 12 17 -1 -3
BITMAP
00000009F600
0000003FF800
000000BCCA00
000004F5BC00
00000DC0AE00
00006F408F10
0001EB006F30
0008F3004F50
002EFFFFFF70
00AF88888F90
03F900000EB0
0BE100000CD0
5F8000000AE0
DE10000008F1
000000000000
00006E300000
00007E200000
ENDCHAR
STARTCHAR uni1EA1
ENCODING 7841
SWIDTH 564 0
DWIDTH 11 0
BBX 10 14 1 -3
BITMAP
0018DEA17D
01DF96BBC9
0BF4000DF6
4F90000AF3
9F20000BF0
DD00000EC0
FB00004F90
FA0000CF60
EC0008EF30
8FA6BC8E00
19EE819B00
0000000000
009D100000
00AC000000
ENDCHAR
STARTCHAR uni1EA2
ENCODING 7842
SWIDTH 555 0
DWIDTH 11 0
BBX 12 20 -1 0
BITMAP
00000001EE90
0000000013F3
0000000028F1
00000000EB40
00000000F100
000000000000
00000009F600
0000003FF800
000000BCCA00
000004F5BC00
00000DC0AE00
00006F408F10
0001EB006F30
0008F3004F50
002EFFFFFF70
00AF88888F90
03F900000EB0
0BE100000CD0
5F8000000AE0
DE10000008F1
ENDCHAR
STARTCHAR uni1EA3
ENCODING 7843
SWIDTH 564 0
DWIDTH 11 0
BBX 10 17 1 0
BITMAP
00000BFC20
0000011C80
0000015E60
000009D600
00000B6000
0000000000
0018DEA17D
01DF96BBC9
0BF4000DF6
4F90000AF3
9F20000BF0
DD00000EC0
FB00004F90
FA0000CF60
EC0008EF30
8FA6BC8E00
19EE819B00
ENDCHAR
STARTCHAR uni1EA4
ENCODING 7844
SWIDTH 555 0
DWIDTH 11 0
BBX 15 19 -1 0
BITMAP
000000000000BD20
00000003FF2B9100
0000003E7C900000
000002C401B30000
0000000000000000
00000009F6000000
0000003FF8000000
000000BCCA000000
000004F5BC000000
00000DC0AE000000
00006F408F100000
0001EB006F300000
0008F3004F500000
002EFFFFFF700000
00AF88888F900000
03F900000EB00000
0BE100000CD00000
5F8000000AE00000
DE10000008F10000
ENDCHAR
STARTCHAR uni1EA5
ENCODING 7845
SWIDTH 564 0
DWIDTH 11 0
BBX 12 16 1 0
BITMAP
0000000005F7
00000BF85C30
0000AC7E1000
000980069000
000000000000
0018DEA17D00
01DF96BBC900
0BF4000DF600
4F90000AF300
9F20000BF000
DD00000EC000
FB00004F9000
FA0000CF6000
EC0008EF3000
8FA6BC8E0000
19EE819B0000
ENDCHAR
ENDFONT
